<?xml version="1.0" encoding="UTF-8" standalone="no"?>
<svg
   xmlns:osb="http://www.openswatchbook.org/uri/2009/osb"
   xmlns:dc="http://purl.org/dc/elements/1.1/"
   xmlns:cc="http://creativecommons.org/ns#"
   xmlns:rdf="http://www.w3.org/1999/02/22-rdf-syntax-ns#"
   xmlns:svg="http://www.w3.org/2000/svg"
   xmlns="http://www.w3.org/2000/svg"
   xmlns:sodipodi="http://sodipodi.sourceforge.net/DTD/sodipodi-0.dtd"
   xmlns:inkscape="http://www.inkscape.org/namespaces/inkscape"
   width="450"
   height="250"
   viewBox="0 0 119.0625 66.145837"
   version="1.1"
   id="svg8"
   inkscape:version="1.0.1 (3bc2e813f5, 2020-09-07)"
   sodipodi:docname="_BG.svg"
   inkscape:export-filename="D:\_Personal(Clark)\Downloads\_cert_talline\jpg\App Abaca\UI\vector\icons\_BG.png"
   inkscape:export-xdpi="96"
   inkscape:export-ydpi="96">
  <defs
     id="defs2">
    <linearGradient
       id="linearGradient3311"
       osb:paint="solid">
      <stop
         style="stop-color:#f5dfbb;stop-opacity:1;"
         offset="0"
         id="stop3309" />
    </linearGradient>
    <marker
       style="overflow:visible"
       id="Arrow1Lstart"
       refX="0"
       refY="0"
       orient="auto"
       inkscape:stockid="Arrow1Lstart"
       inkscape:isstock="true">
      <path
         transform="matrix(0.8,0,0,0.8,10,0)"
         style="fill:#f5dfbb;fill-opacity:1;fill-rule:evenodd;stroke:#f5dfbb;stroke-width:1pt;stroke-opacity:1"
         d="M 0,0 5,-5 -12.5,0 5,5 Z"
         id="path881" />
    </marker>
  </defs>
  <sodipodi:namedview
     id="base"
     pagecolor="#ffffff"
     bordercolor="#666666"
     borderopacity="1.0"
     inkscape:pageopacity="0.0"
     inkscape:pageshadow="2"
     inkscape:zoom="1.6701291"
     inkscape:cx="236.88117"
     inkscape:cy="180.63613"
     inkscape:document-units="mm"
     inkscape:current-layer="layer2"
     inkscape:document-rotation="0"
     showgrid="false"
     units="px"
     inkscape:window-width="1920"
     inkscape:window-height="1001"
     inkscape:window-x="-9"
     inkscape:window-y="-9"
     inkscape:window-maximized="1"
     showguides="true"
     inkscape:guide-bbox="true">
    <sodipodi:guide
       position="-69.871703,74.689932"
       orientation="1,0"
       id="guide855" />
  </sodipodi:namedview>
  <metadata
     id="metadata5">
    <rdf:RDF>
      <cc:Work
         rdf:about="">
        <dc:format>image/svg+xml</dc:format>
        <dc:type
           rdf:resource="http://purl.org/dc/dcmitype/StillImage" />
        <dc:title />
      </cc:Work>
    </rdf:RDF>
  </metadata>
  <g
     inkscape:label="Layer 1"
     inkscape:groupmode="layer"
     id="layer1"
     style="display:inline;mix-blend-mode:normal" />
  <g
     inkscape:groupmode="layer"
     id="layer2"
     inkscape:label="Layer 2"
     style="display:inline;opacity:1">
    <path
       sodipodi:type="spiral"
       style="fill:none;fill-rule:evenodd;stroke:#abf3ee;stroke-width:0.467;stroke-miterlimit:4;stroke-dasharray:none;stroke-opacity:1"
       id="path851"
       sodipodi:cx="18.013803"
       sodipodi:cy="17.227255"
       sodipodi:expansion="1.12"
       sodipodi:revolution="5.6300001"
       sodipodi:radius="15.639305"
       sodipodi:argument="-34.557518"
       sodipodi:t0="0.029999999"
       d="m 17.863547,16.958358 c 0.100934,-0.397118 0.644097,-0.340172 0.893968,-0.14668 0.541893,0.419623 0.403097,1.240351 -0.04178,1.671738 -0.719129,0.697317 -1.886496,0.465818 -2.494601,-0.254437 -0.862434,-1.021487 -0.529123,-2.563454 0.481083,-3.348931 1.32978,-1.03396 3.262995,-0.593158 4.227854,0.717634 1.210204,1.644101 0.65789,3.980569 -0.96188,5.127113 -1.964009,1.390211 -4.713254,0.723271 -6.043781,-1.212434 -1.573375,-2.289007 -0.789257,-5.458995 1.468343,-6.975713 2.618644,-1.759277 6.216267,-0.855808 7.921261,1.728915 1.947613,2.952526 0.922894,6.983883 -1.99362,8.879119 -3.290314,2.138143 -7.760893,0.990484 -9.848221,-2.262041 -2.3306804,-3.631722 -1.058552,-8.54652 2.533841,-10.827684 3.976498,-2.5250692 9.340113,-1.1270752 11.816759,2.808742 2.72118,4.324424 1.196034,10.141117 -3.086509,12.814805 C 18.06095,28.597405 11.787203,26.943913 8.9149928,22.311561 5.7968561,17.282574 7.5798103,10.548045 12.564866,7.4759036 17.950172,4.1571003 25.148996,6.0705641 28.422411,11.411051 31.943237,17.155183 29.898276,24.821627 24.199778,28.297598 18.094431,32.021738 9.957213,29.844344 6.2774576,23.785383 2.3487724,17.316544 4.6594871,8.7055482 11.081243,4.8208299 17.915755,0.68642228 27.003396,3.1313037 31.094209,9.9180818 34.690021,15.883638 33.622125,23.723051 28.719623,28.627838" />
    <path
       sodipodi:type="spiral"
       style="fill:none;fill-rule:evenodd;stroke:#abf3ee;stroke-width:0.649851;stroke-miterlimit:4;stroke-dasharray:none;stroke-opacity:1"
       id="path855"
       sodipodi:cx="70.163696"
       sodipodi:cy="40.816341"
       sodipodi:expansion="1.12"
       sodipodi:revolution="5.6300001"
       sodipodi:radius="15.639305"
       sodipodi:argument="-34.557518"
       sodipodi:t0="0.029999999"
       d="m 70.01344,40.547444 c 0.100934,-0.397117 0.644096,-0.340171 0.893968,-0.146679 0.541893,0.419623 0.403097,1.24035 -0.04178,1.671737 -0.719129,0.697317 -1.886496,0.465818 -2.494601,-0.254436 -0.862434,-1.021488 -0.529123,-2.563455 0.481082,-3.348932 1.329781,-1.03396 3.262996,-0.593157 4.227855,0.717635 1.210204,1.6441 0.657889,3.980569 -0.96188,5.127112 -1.964009,1.390211 -4.713254,0.723271 -6.043782,-1.212433 -1.573374,-2.289008 -0.789256,-5.458995 1.468344,-6.975713 2.618644,-1.759278 6.216267,-0.855809 7.921261,1.728915 1.947612,2.952525 0.922894,6.983882 -1.99362,8.879119 -3.290315,2.138143 -7.760893,0.990483 -9.848221,-2.262041 -2.330681,-3.631722 -1.058552,-8.546521 2.533841,-10.827684 3.976497,-2.52507 9.340113,-1.127076 11.816759,2.808742 2.72118,4.324423 1.196034,10.141117 -3.086509,12.814805 -4.67531,2.918901 -10.949057,1.265409 -13.821267,-3.366944 -3.118137,-5.028986 -1.335183,-11.763516 3.649873,-14.835657 5.385305,-3.318803 12.58413,-1.405339 15.857545,3.935147 3.520826,5.744133 1.475865,13.410576 -4.222634,16.886547 -6.105346,3.72414 -14.242564,1.546746 -17.92232,-4.512214 -3.928685,-6.46884 -1.61797,-15.079835 4.803786,-18.964554 6.834512,-4.134407 15.922153,-1.689526 20.012966,5.097252 3.595812,5.965557 2.527915,13.80497 -2.374586,18.709757"
       transform="matrix(-0.82890017,0.02407992,-0.02407992,-0.82890017,162.42223,82.092979)" />
    <path
       sodipodi:type="spiral"
       style="display:inline;opacity:1;fill:none;fill-rule:evenodd;stroke:#abf3ee;stroke-width:0.883565;stroke-miterlimit:4;stroke-dasharray:none;stroke-opacity:1"
       id="path855-3"
       sodipodi:cx="70.163696"
       sodipodi:cy="40.816341"
       sodipodi:expansion="1.12"
       sodipodi:revolution="5.6300001"
       sodipodi:radius="15.639305"
       sodipodi:argument="-34.557518"
       sodipodi:t0="0.029999999"
       d="m 70.01344,40.547444 c 0.100934,-0.397117 0.644096,-0.340171 0.893968,-0.146679 0.541893,0.419623 0.403097,1.24035 -0.04178,1.671737 -0.719129,0.697317 -1.886496,0.465818 -2.494601,-0.254436 -0.862434,-1.021488 -0.529123,-2.563455 0.481082,-3.348932 1.329781,-1.03396 3.262996,-0.593157 4.227855,0.717635 1.210204,1.6441 0.657889,3.980569 -0.96188,5.127112 -1.964009,1.390211 -4.713254,0.723271 -6.043782,-1.212433 -1.573374,-2.289008 -0.789256,-5.458995 1.468344,-6.975713 2.618644,-1.759278 6.216267,-0.855809 7.921261,1.728915 1.947612,2.952525 0.922894,6.983882 -1.99362,8.879119 -3.290315,2.138143 -7.760893,0.990483 -9.848221,-2.262041 -2.330681,-3.631722 -1.058552,-8.546521 2.533841,-10.827684 3.976497,-2.52507 9.340113,-1.127076 11.816759,2.808742 2.72118,4.324423 1.196034,10.141117 -3.086509,12.814805 -4.67531,2.918901 -10.949057,1.265409 -13.821267,-3.366944 -3.118137,-5.028986 -1.335183,-11.763516 3.649873,-14.835657 5.385305,-3.318803 12.58413,-1.405339 15.857545,3.935147 3.520826,5.744133 1.475865,13.410576 -4.222634,16.886547 -6.105346,3.72414 -14.242564,1.546746 -17.92232,-4.512214 -3.928685,-6.46884 -1.61797,-15.079835 4.803786,-18.964554 6.834512,-4.134407 15.922153,-1.689526 20.012966,5.097252 3.595812,5.965557 2.527915,13.80497 -2.374586,18.709757"
       transform="matrix(-0.43215726,0.01255436,-0.01255436,-0.43215726,100.39189,26.109463)" />
    <path
       sodipodi:type="spiral"
       style="display:inline;opacity:1;fill:none;fill-rule:evenodd;stroke:#abf3ee;stroke-width:1.3064;stroke-miterlimit:4;stroke-dasharray:none;stroke-opacity:1"
       id="path855-3-4"
       sodipodi:cx="70.163696"
       sodipodi:cy="40.816341"
       sodipodi:expansion="1.12"
       sodipodi:revolution="5.6300001"
       sodipodi:radius="15.639305"
       sodipodi:argument="-34.557518"
       sodipodi:t0="0.029999999"
       d="m 70.01344,40.547444 c 0.100934,-0.397117 0.644096,-0.340171 0.893968,-0.146679 0.541893,0.419623 0.403097,1.24035 -0.04178,1.671737 -0.719129,0.697317 -1.886496,0.465818 -2.494601,-0.254436 -0.862434,-1.021488 -0.529123,-2.563455 0.481082,-3.348932 1.329781,-1.03396 3.262996,-0.593157 4.227855,0.717635 1.210204,1.6441 0.657889,3.980569 -0.96188,5.127112 -1.964009,1.390211 -4.713254,0.723271 -6.043782,-1.212433 -1.573374,-2.289008 -0.789256,-5.458995 1.468344,-6.975713 2.618644,-1.759278 6.216267,-0.855809 7.921261,1.728915 1.947612,2.952525 0.922894,6.983882 -1.99362,8.879119 -3.290315,2.138143 -7.760893,0.990483 -9.848221,-2.262041 -2.330681,-3.631722 -1.058552,-8.546521 2.533841,-10.827684 3.976497,-2.52507 9.340113,-1.127076 11.816759,2.808742 2.72118,4.324423 1.196034,10.141117 -3.086509,12.814805 -4.67531,2.918901 -10.949057,1.265409 -13.821267,-3.366944 -3.118137,-5.028986 -1.335183,-11.763516 3.649873,-14.835657 5.385305,-3.318803 12.58413,-1.405339 15.857545,3.935147 3.520826,5.744133 1.475865,13.410576 -4.222634,16.886547 -6.105346,3.72414 -14.242564,1.546746 -17.92232,-4.512214 -3.928685,-6.46884 -1.61797,-15.079835 4.803786,-18.964554 6.834512,-4.134407 15.922153,-1.689526 20.012966,5.097252 3.595812,5.965557 2.527915,13.80497 -2.374586,18.709757"
       transform="matrix(-0.29074298,-0.23494663,0.23494663,-0.29074298,78.718473,65.682245)"
       inkscape:transform-center-x="-1.1916647"
       inkscape:transform-center-y="0.72930131" />
    <path
       sodipodi:type="spiral"
       style="display:inline;opacity:1;fill:none;fill-rule:evenodd;stroke:#abf3ee;stroke-width:1.36750876;stroke-miterlimit:4;stroke-dasharray:none;stroke-opacity:1"
       id="path855-3-4-1"
       sodipodi:cx="70.163696"
       sodipodi:cy="40.816341"
       sodipodi:expansion="1.12"
       sodipodi:revolution="5.6300001"
       sodipodi:radius="15.639305"
       sodipodi:argument="-34.557518"
       sodipodi:t0="0.029999999"
       d="m 70.01344,40.547444 c 0.100934,-0.397117 0.644096,-0.340171 0.893968,-0.146679 0.541893,0.419623 0.403097,1.24035 -0.04178,1.671737 -0.719129,0.697317 -1.886496,0.465818 -2.494601,-0.254436 -0.862434,-1.021488 -0.529123,-2.563455 0.481082,-3.348932 1.329781,-1.03396 3.262996,-0.593157 4.227855,0.717635 1.210204,1.6441 0.657889,3.980569 -0.96188,5.127112 -1.964009,1.390211 -4.713254,0.723271 -6.043782,-1.212433 -1.573374,-2.289008 -0.789256,-5.458995 1.468344,-6.975713 2.618644,-1.759278 6.216267,-0.855809 7.921261,1.728915 1.947612,2.952525 0.922894,6.983882 -1.99362,8.879119 -3.290315,2.138143 -7.760893,0.990483 -9.848221,-2.262041 -2.330681,-3.631722 -1.058552,-8.546521 2.533841,-10.827684 3.976497,-2.52507 9.340113,-1.127076 11.816759,2.808742 2.72118,4.324423 1.196034,10.141117 -3.086509,12.814805 -4.67531,2.918901 -10.949057,1.265409 -13.821267,-3.366944 -3.118137,-5.028986 -1.335183,-11.763516 3.649873,-14.835657 5.385305,-3.318803 12.58413,-1.405339 15.857545,3.935147 3.520826,5.744133 1.475865,13.410576 -4.222634,16.886547 -6.105346,3.72414 -14.242564,1.546746 -17.92232,-4.512214 -3.928685,-6.46884 -1.61797,-15.079835 4.803786,-18.964554 6.834512,-4.134407 15.922153,-1.689526 20.012966,5.097252 3.595812,5.965557 2.527915,13.80497 -2.374586,18.709757"
       transform="matrix(-0.21726785,-0.17557209,0.17557209,-0.21726785,42.285459,69.606908)"
       inkscape:transform-center-x="-0.89051408"
       inkscape:transform-center-y="0.54499619" />
    <path
       id="path916-5-6"
       style="display:inline;opacity:1;fill:#abf3e9;fill-opacity:1;stroke:#abf3ee;stroke-width:0;stroke-linecap:round;stroke-linejoin:round;stroke-miterlimit:4;stroke-dasharray:none;stroke-opacity:1"
       inkscape:transform-center-x="1.137606"
       inkscape:transform-center-y="-0.18722801"
       d="m 51.348814,24.402656 c -0.805692,0.256642 -1.560903,0.644843 -2.322527,1.00621 -0.379915,0.180302 -0.12488,0.717582 0.254987,0.537282 v 0 c 0.714811,-0.339306 1.424249,-0.700019 2.173902,-0.958366 0.413755,-0.07522 0.307382,-0.660337 -0.106373,-0.585126 z m 2.378458,2.03582 c -0.228375,0.08758 -0.461,0.164759 -0.685113,0.262719 -0.968735,0.423447 -2.510106,1.193073 -3.373297,1.617057 -2.667551,1.31026 -5.332081,2.625258 -8.008327,3.917733 -0.801704,0.380671 -1.603407,0.761345 -2.405112,1.142015 -0.379878,0.180379 -0.124782,0.717605 0.255092,0.537229 v 0 c 0.802884,-0.381239 1.60577,-0.762474 2.408652,-1.143712 2.677207,-1.29296 5.342748,-2.608337 8.011229,-3.919139 0.881945,-0.433227 2.347905,-1.165273 3.32598,-1.596389 0.204494,-0.09014 0.41656,-0.16204 0.624821,-0.243066 0.406207,-0.108844 0.252256,-0.683297 -0.153925,-0.574447 z m 0.718641,3.169961 c -1.373708,0.456036 -2.643352,1.186635 -3.90609,1.883954 -1.236954,0.681208 -2.475464,1.359667 -3.691984,2.076937 -0.21769,0.131812 -0.437969,0.259844 -0.650251,0.400379 -0.350467,0.232413 -0.02174,0.72805 0.32868,0.495638 v 0 c 0.203312,-0.135113 0.415264,-0.256782 0.62364,-0.383729 1.211665,-0.714498 2.445432,-1.390016 3.67742,-2.06863 1.224882,-0.676565 2.455994,-1.387227 3.786768,-1.834109 0.403365,-0.118926 0.23517,-0.689368 -0.168183,-0.57044 z M 106.83538,3.3897714 c -0.83868,0.2671473 -1.6248,0.671239 -2.4176,1.047398 -0.39547,0.1876822 -0.12999,0.7469554 0.26542,0.5592759 v 0 c 0.74407,-0.3531957 1.48255,-0.7286745 2.26289,-0.9975965 0.43069,-0.078294 0.31996,-0.6873672 -0.11073,-0.6090774 z m 2.47581,2.1191548 c -0.23772,0.091167 -0.47987,0.1715026 -0.71315,0.2734734 -1.00839,0.4407795 -2.61286,1.2419103 -3.51138,1.6832493 -2.77675,1.3638943 -5.550349,2.7327201 -8.336141,4.0781021 -0.834522,0.396253 -1.669042,0.79251 -2.503564,1.188762 -0.395428,0.187763 -0.129889,0.74698 0.265534,0.559221 v 0 c 0.83575,-0.396845 1.671501,-0.793686 2.507251,-1.19053 2.786792,-1.345885 5.56144,-2.7151062 8.33916,-4.0795651 0.91804,-0.4509611 2.44401,-1.2129721 3.46212,-1.6617353 0.21287,-0.093829 0.43361,-0.1686733 0.6504,-0.2530164 0.42283,-0.1132994 0.26258,-0.7112668 -0.16023,-0.597961 z m 0.74806,3.2997203 c -1.42994,0.4747038 -2.75155,1.2352085 -4.06598,1.9610715 -1.28759,0.709094 -2.5768,1.415324 -3.84311,2.161955 -0.2266,0.137208 -0.4559,0.270481 -0.67687,0.416768 -0.36481,0.241927 -0.0226,0.757852 0.34214,0.515925 v 0 c 0.21163,-0.140641 0.43226,-0.267291 0.64916,-0.399435 1.26126,-0.743745 2.54553,-1.446915 3.82795,-2.153307 1.27502,-0.704259 2.55653,-1.4440116 3.94178,-1.9091872 0.41987,-0.1237934 0.24479,-0.7175863 -0.17507,-0.5937903 z M 7.2343161,62.726408 c 0.785497,-0.301309 1.513282,-0.730387 2.248978,-1.133179 0.36698,-0.200964 0.08278,-0.719953 -0.284202,-0.51899 v 0 c -0.690481,0.378186 -1.374377,0.777323 -2.104119,1.077099 -0.406635,0.09853 -0.26729,0.673599 0.139343,0.57507 z m -2.4797,-1.885191 c 0.221792,-0.100137 0.448414,-0.190195 0.66538,-0.300403 0.937855,-0.47638 2.42455,-1.329586 3.257524,-1.800422 2.5741809,-1.455049 5.1450919,-2.914634 7.7289349,-4.35252 0.774398,-0.424274 1.548796,-0.848552 2.323194,-1.272826 0.36694,-0.201039 0.08263,-0.719967 -0.284311,-0.518931 v 0 c -0.775538,0.424907 -1.551076,0.84981 -2.326614,1.274716 -2.584767,1.438421 -5.156657,2.898441 -7.7317269,4.354083 -0.851076,0.481098 -2.265037,1.292633 -3.21172,1.777169 -0.197934,0.101307 -0.404424,0.184938 -0.606636,0.27741 -0.3972,0.131505 -0.211221,0.693229 0.185975,0.561724 z m -0.896332,-3.107283 c 1.338213,-0.532067 2.557256,-1.330861 3.771371,-2.096203 1.189402,-0.747854 2.3805379,-1.493067 3.5475799,-2.275562 0.208638,-0.143461 0.420068,-0.283318 0.622826,-0.435131 0.33473,-0.251031 -0.02029,-0.72441 -0.355009,-0.47338 v 0 c -0.194167,0.14591 -0.39769,0.278965 -0.597356,0.417057 -1.1623819,0.779465 -2.3489639,1.521482 -3.5335989,2.266473 -1.1777,0.742548 -2.359621,1.519321 -3.65572,2.039825 -0.3938,0.141356 -0.193894,0.698274 0.199907,0.556921 z" />
  </g>
</svg>
