<?xml version="1.0" encoding="UTF-8" standalone="no"?>
<svg
   xmlns:dc="http://purl.org/dc/elements/1.1/"
   xmlns:cc="http://creativecommons.org/ns#"
   xmlns:rdf="http://www.w3.org/1999/02/22-rdf-syntax-ns#"
   xmlns:svg="http://www.w3.org/2000/svg"
   xmlns="http://www.w3.org/2000/svg"
   xmlns:xlink="http://www.w3.org/1999/xlink"
   xmlns:sodipodi="http://sodipodi.sourceforge.net/DTD/sodipodi-0.dtd"
   xmlns:inkscape="http://www.inkscape.org/namespaces/inkscape"
   width="700"
   height="700"
   viewBox="0 0 185.20833 185.20834"
   version="1.1"
   id="svg8"
   inkscape:version="1.0.1 (3bc2e813f5, 2020-09-07)"
   sodipodi:docname="diagnose.svg"
   inkscape:export-filename="D:\_Personal(Clark)\Downloads\_cert_talline\jpg\App Abaca\UI\vector\icons\diagnose3.png"
   inkscape:export-xdpi="96"
   inkscape:export-ydpi="96">
  <defs
     id="defs2">
    <linearGradient
       inkscape:collect="always"
       id="linearGradient1839">
      <stop
         style="stop-color:#065c77;stop-opacity:1;"
         offset="0"
         id="stop1835" />
      <stop
         style="stop-color:#065c77;stop-opacity:0;"
         offset="1"
         id="stop1837" />
    </linearGradient>
    <clipPath
       clipPathUnits="userSpaceOnUse"
       id="clipPath1464">
      <path
         id="path1466"
         style="fill:#ff0000;fill-opacity:1;fill-rule:nonzero;stroke:none;stroke-width:0.264583"
         d="M 1.9693888,5.9908488 V 180.90782 H 184.29521 V 5.9908488 Z M 53.822555,100.71013 c 0.427683,0.009 0.787601,0.48607 0.566891,1.29191 -0.899102,3.28276 -0.658302,1.96005 -1.107943,5.82755 -0.208806,1.79599 -0.291819,2.18272 -0.107487,3.87832 0.02011,0.18502 0.0989,0.35911 0.144693,0.5395 0.220858,0.87005 0.436835,1.74106 0.655256,2.61173 0.637847,2.98762 0.321691,1.94718 1.504302,5.25084 0.23069,0.64444 0.401106,1.3201 0.734838,1.91771 0.492858,0.88255 2.730738,4.07132 3.575495,5.03122 0.704664,0.80072 1.498983,1.5179 2.248439,2.27686 2.514129,2.27245 5.46421,4.08246 8.606195,5.35781 0.893935,0.36286 1.805551,0.67993 2.708362,1.0201 1.424459,0.23432 2.699465,0.94519 4.077785,1.32188 0.351092,0.096 0.736325,0.024 1.083657,0.13281 1.758021,0.55057 0.445315,0.66083 1.680517,0.44235 0.198913,-0.0352 0.234172,0.16652 0.03514,0.20102 -1.084114,0.18796 -0.432644,0.0155 -1.886188,0.72605 -0.393319,0.0749 -0.793017,-0.11369 -1.19166,-0.15089 -3.307154,-0.30899 -1.331566,0.11464 -4.434355,-0.80253 -0.994281,-0.30376 -2.004206,-0.56044 -2.982762,-0.91158 -0.543224,-0.19492 -1.054645,-0.46977 -1.573033,-0.72347 -2.772904,-1.35708 -5.448869,-2.93416 -7.689453,-5.08858 -0.799539,-0.83172 -1.643618,-1.62328 -2.398818,-2.49545 -1.279716,-1.47794 -2.921667,-3.98924 -3.77548,-5.60534 -0.337209,-0.63827 -0.543965,-1.33807 -0.77153,-2.02314 -0.968166,-2.91456 -0.8851,-2.82793 -1.448491,-5.46684 -0.158977,-0.8727 -0.31092,-1.74655 -0.476972,-2.61794 -0.05651,-0.2965 -0.168077,-0.58421 -0.190688,-0.88521 -0.258583,-3.44196 0.619572,-6.87799 1.532723,-10.16114 0.174136,-0.62609 0.547926,-0.90243 0.880568,-0.89555 z" />
    </clipPath>
    <clipPath
       clipPathUnits="userSpaceOnUse"
       id="clipPath1474">
      <path
         id="path1476"
         style="fill:#ff0000;fill-opacity:1;fill-rule:nonzero;stroke:none;stroke-width:0.264583"
         d="M 14.858008,69.654663 V 168.42641 H 113.62975 V 69.654663 Z m 38.964547,31.055467 c 0.427683,0.009 0.787601,0.48607 0.566891,1.29191 -0.899102,3.28276 -0.658302,1.96005 -1.107943,5.82755 -0.208806,1.79599 -0.291819,2.18272 -0.107487,3.87832 0.02011,0.18502 0.0989,0.35911 0.144693,0.5395 0.220858,0.87005 0.436835,1.74106 0.655256,2.61173 0.637847,2.98762 0.321691,1.94718 1.504302,5.25084 0.23069,0.64444 0.401106,1.3201 0.734838,1.91771 0.492858,0.88255 2.730738,4.07132 3.575495,5.03122 0.704664,0.80072 1.498983,1.5179 2.248439,2.27686 2.514129,2.27245 5.46421,4.08246 8.606195,5.35781 0.893935,0.36286 1.805551,0.67993 2.708362,1.0201 1.424459,0.23432 2.699465,0.94519 4.077785,1.32188 0.351092,0.096 0.736325,0.024 1.083657,0.13281 1.758021,0.55057 0.445315,0.66083 1.680517,0.44235 0.198913,-0.0352 0.234172,0.16652 0.03514,0.20102 -1.084114,0.18796 -0.432644,0.0155 -1.886188,0.72605 -0.393319,0.0749 -0.793017,-0.11369 -1.19166,-0.15089 -3.307154,-0.30899 -1.331566,0.11464 -4.434355,-0.80253 -0.994281,-0.30376 -2.004206,-0.56044 -2.982762,-0.91158 -0.543224,-0.19492 -1.054645,-0.46977 -1.573033,-0.72347 -2.772904,-1.35708 -5.448869,-2.93416 -7.689453,-5.08858 -0.799539,-0.83172 -1.643618,-1.62328 -2.398818,-2.49545 -1.279716,-1.47794 -2.921667,-3.98924 -3.77548,-5.60534 -0.337209,-0.63827 -0.543965,-1.33807 -0.77153,-2.02314 -0.968166,-2.91456 -0.8851,-2.82793 -1.448491,-5.46684 -0.158977,-0.8727 -0.31092,-1.74655 -0.476972,-2.61794 -0.05651,-0.2965 -0.168077,-0.58421 -0.190688,-0.88521 -0.258583,-3.44196 0.619572,-6.87799 1.532723,-10.16114 0.174136,-0.62609 0.547926,-0.90243 0.880568,-0.89555 z" />
    </clipPath>
    <clipPath
       clipPathUnits="userSpaceOnUse"
       id="clipPath1484">
      <path
         id="path1486"
         style="fill:#ff0000;fill-opacity:1;fill-rule:nonzero;stroke:none;stroke-width:0.264583"
         d="m 25.72091,80.840027 v 75.871853 h 75.87186 V 80.840027 Z m 28.101645,19.870103 c 0.427683,0.009 0.787601,0.48607 0.566891,1.29191 -0.899102,3.28276 -0.658302,1.96005 -1.107943,5.82755 -0.208806,1.79599 -0.291819,2.18272 -0.107487,3.87832 0.02011,0.18502 0.0989,0.35911 0.144693,0.5395 0.220858,0.87005 0.436835,1.74106 0.655256,2.61173 0.637847,2.98762 0.321691,1.94718 1.504302,5.25084 0.23069,0.64444 0.401106,1.3201 0.734838,1.91771 0.492858,0.88255 2.730738,4.07132 3.575495,5.03122 0.704664,0.80072 1.498983,1.5179 2.248439,2.27686 2.514129,2.27245 5.46421,4.08246 8.606195,5.35781 0.893935,0.36286 1.805551,0.67993 2.708362,1.0201 1.424459,0.23432 2.699465,0.94519 4.077785,1.32188 0.351092,0.096 0.736325,0.024 1.083657,0.13281 1.758021,0.55057 0.445315,0.66083 1.680517,0.44235 0.198913,-0.0352 0.234172,0.16652 0.03514,0.20102 -1.084114,0.18796 -0.432644,0.0155 -1.886188,0.72605 -0.393319,0.0749 -0.793017,-0.11369 -1.19166,-0.15089 -3.307154,-0.30899 -1.331566,0.11464 -4.434355,-0.80253 -0.994281,-0.30376 -2.004206,-0.56044 -2.982762,-0.91158 -0.543224,-0.19492 -1.054645,-0.46977 -1.573033,-0.72347 -2.772904,-1.35708 -5.448869,-2.93416 -7.689453,-5.08858 -0.799539,-0.83172 -1.643618,-1.62328 -2.398818,-2.49545 -1.279716,-1.47794 -2.921667,-3.98924 -3.77548,-5.60534 -0.337209,-0.63827 -0.543965,-1.33807 -0.77153,-2.02314 -0.968166,-2.91456 -0.8851,-2.82793 -1.448491,-5.46684 -0.158977,-0.8727 -0.31092,-1.74655 -0.476972,-2.61794 -0.05651,-0.2965 -0.168077,-0.58421 -0.190688,-0.88521 -0.258583,-3.44196 0.619572,-6.87799 1.532723,-10.16114 0.174136,-0.62609 0.547926,-0.90243 0.880568,-0.89555 z" />
    </clipPath>
    <clipPath
       clipPathUnits="userSpaceOnUse"
       id="clipPath1494">
      <path
         id="path1496"
         style="fill:#ff0000;fill-opacity:1;fill-rule:nonzero;stroke:none;stroke-width:0.264583"
         d="m -23.721856,105.73084 -23.994979,32.50632 34.994655,25.83177 23.994978,-32.50631 z m 7.21415,7.25984 c 0.338844,0.26111 0.344994,0.85881 -0.311159,1.37607 -2.672959,2.10717 -1.693686,1.186 -4.352303,4.03055 -1.234612,1.32095 -1.531073,1.5828 -2.389763,3.05646 -0.0937,0.1608 -0.1337,0.34766 -0.203992,0.51998 -0.339022,0.83117 -0.682538,1.6602 -1.023887,2.49041 -1.261133,2.78249 -0.897593,1.75765 -1.908129,5.11794 -0.197124,0.65549 -0.461285,1.3003 -0.547694,1.9793 -0.127608,1.00276 -0.220897,4.89733 -0.111324,6.1713 0.0914,1.06271 0.30454,2.11146 0.456778,3.16717 0.673156,3.3214 1.971695,6.52966 3.742155,9.42173 0.503719,0.82283 1.048854,1.61932 1.573186,2.42918 1.006885,1.03449 1.610508,2.36363 2.495722,3.48526 0.225481,0.28572 0.57814,0.45663 0.79298,0.75042 1.087435,1.48703 -0.03418,0.79614 1.089349,1.35393 0.18093,0.0898 0.08951,0.27305 -0.09111,0.1826 -0.983849,-0.49262 -0.357306,-0.24444 -1.948723,-0.53604 -0.360903,-0.17335 -0.570498,-0.56243 -0.869132,-0.82911 -2.477258,-2.21268 -1.139394,-0.69856 -3.091036,-3.27919 -0.619547,-0.83488 -1.279646,-1.64116 -1.858402,-2.50483 -0.32129,-0.47943 -0.569521,-1.00429 -0.835921,-1.51627 -1.424981,-2.73863 -2.641315,-5.59669 -3.164488,-8.66068 -0.149319,-1.14399 -0.35832,-2.28213 -0.447944,-3.43234 -0.15186,-1.94908 0.01854,-4.94468 0.291392,-6.75198 0.10776,-0.71378 0.357013,-1.39958 0.580781,-2.08591 0.95199,-2.91989 0.967367,-2.80085 2.081315,-5.25858 0.390375,-0.79653 0.787104,-1.58983 1.17101,-2.38952 0.130632,-0.27211 0.211733,-0.56984 0.372302,-0.82544 1.836095,-2.92279 4.583226,-5.16571 7.267724,-7.26485 0.511927,-0.40031 0.976776,-0.40065 1.240315,-0.19756 z" />
    </clipPath>
    <clipPath
       clipPathUnits="userSpaceOnUse"
       id="clipPath1474-9">
      <path
         id="path1476-9"
         style="fill:#ff0000;fill-opacity:1;fill-rule:nonzero;stroke:none;stroke-width:0.264583"
         d="M 14.858008,69.654663 V 168.42641 H 113.62975 V 69.654663 Z m 38.964547,31.055467 c 0.427683,0.009 0.787601,0.48607 0.566891,1.29191 -0.899102,3.28276 -0.658302,1.96005 -1.107943,5.82755 -0.208806,1.79599 -0.291819,2.18272 -0.107487,3.87832 0.02011,0.18502 0.0989,0.35911 0.144693,0.5395 0.220858,0.87005 0.436835,1.74106 0.655256,2.61173 0.637847,2.98762 0.321691,1.94718 1.504302,5.25084 0.23069,0.64444 0.401106,1.3201 0.734838,1.91771 0.492858,0.88255 2.730738,4.07132 3.575495,5.03122 0.704664,0.80072 1.498983,1.5179 2.248439,2.27686 2.514129,2.27245 5.46421,4.08246 8.606195,5.35781 0.893935,0.36286 1.805551,0.67993 2.708362,1.0201 1.424459,0.23432 2.699465,0.94519 4.077785,1.32188 0.351092,0.096 0.736325,0.024 1.083657,0.13281 1.758021,0.55057 0.445315,0.66083 1.680517,0.44235 0.198913,-0.0352 0.234172,0.16652 0.03514,0.20102 -1.084114,0.18796 -0.432644,0.0155 -1.886188,0.72605 -0.393319,0.0749 -0.793017,-0.11369 -1.19166,-0.15089 -3.307154,-0.30899 -1.331566,0.11464 -4.434355,-0.80253 -0.994281,-0.30376 -2.004206,-0.56044 -2.982762,-0.91158 -0.543224,-0.19492 -1.054645,-0.46977 -1.573033,-0.72347 -2.772904,-1.35708 -5.448869,-2.93416 -7.689453,-5.08858 -0.799539,-0.83172 -1.643618,-1.62328 -2.398818,-2.49545 -1.279716,-1.47794 -2.921667,-3.98924 -3.77548,-5.60534 -0.337209,-0.63827 -0.543965,-1.33807 -0.77153,-2.02314 -0.968166,-2.91456 -0.8851,-2.82793 -1.448491,-5.46684 -0.158977,-0.8727 -0.31092,-1.74655 -0.476972,-2.61794 -0.05651,-0.2965 -0.168077,-0.58421 -0.190688,-0.88521 -0.258583,-3.44196 0.619572,-6.87799 1.532723,-10.16114 0.174136,-0.62609 0.547926,-0.90243 0.880568,-0.89555 z" />
    </clipPath>
    <clipPath
       clipPathUnits="userSpaceOnUse"
       id="clipPath891">
      <path
         id="path893"
         style="fill:#ff0000;fill-opacity:1;fill-rule:nonzero;stroke:none;stroke-width:0.264582"
         d="M 1.6146973,9.5511404 V 150.20308 c 0.5714352,-0.36584 1.1234169,-0.7618 1.6859863,-1.14132 0.4020476,-0.25337 0.8083851,-0.50051 1.2072178,-0.75883 0.3380284,-0.22589 0.6745478,-0.45358 1.0110772,-0.6816 0.2394056,-0.16399 0.479887,-0.32567 0.7186677,-0.49061 6.0291277,-4.12358 11.8333627,-8.56613 17.6397937,-12.99625 0.983509,-0.95586 1.973389,-1.90416 2.984327,-2.82783 0.675455,-0.61714 4.413354,-3.93171 5.907901,-4.90815 0.897807,-0.58656 1.859311,-1.06887 2.789214,-1.6031 3.619327,-1.68071 7.127342,-3.62312 10.566373,-5.64587 5.837352,-3.43336 -0.758584,0.24478 4.932347,-2.88239 2.147725,-1.40775 -0.02111,-0.0541 2.249699,-1.27054 0.187481,-0.10043 0.333473,-0.27876 0.533852,-0.35007 0.345272,-0.12287 0.717125,-0.15563 1.073367,-0.24144 -2.63e-4,0.001 0.0046,-0.006 0.0021,-5.3e-4 0.0881,-0.0213 0.1761,-0.0432 0.261519,-0.0736 0.01848,-0.007 0.02322,-0.009 0.04118,-0.0154 0.297772,-0.42396 0.732756,-1.06949 1.390488,-2.08033 0.389329,-0.59833 0.598907,-1.29911 0.963201,-1.91301 1.258395,-2.12061 0.706414,-0.56415 1.091386,-1.77042 0.01676,-0.0526 0.05119,-0.0703 0.07774,-0.0618 0.02655,0.009 0.04463,0.0433 0.0278,0.0958 -0.05249,0.16376 -0.117899,0.32378 -0.157531,0.49112 -0.125488,0.52982 -0.147998,1.08792 -0.337198,1.59847 -0.248973,0.67184 -0.708069,1.25136 -0.966288,1.91971 -1.747824,4.52387 0.01099,1.2375 -1.442998,3.79875 -0.337644,0.61613 -0.608536,1.27391 -1.012623,1.84866 -0.306852,0.43644 -0.731867,0.77677 -1.103228,1.15986 -0.227156,0.23431 -0.448771,0.47481 -0.671818,0.71352 0.289224,-0.17451 0.579937,-0.3476 0.868475,-0.52304 0.661326,-0.44273 1.317187,-0.89389 1.984058,-1.3282 1.082819,-0.70521 2.202808,-1.35405 3.264894,-2.09011 0.739126,-0.51224 1.408617,-1.11908 2.133352,-1.65149 0.738088,-0.54222 1.517492,-1.02658 2.253816,-1.57119 0.372194,-0.27528 0.688353,-0.62414 1.069766,-0.88649 0.550609,-0.37877 1.145475,-0.68763 1.718419,-1.03167 1.106051,-0.98962 0.597505,-0.6267 1.458442,-1.17788 0.027,-0.0173 0.05125,-0.0263 0.07053,-0.0288 0.05785,-0.008 0.07531,0.0451 0.01906,0.12304 -0.60527,0.83829 -0.203724,0.35533 -1.31584,1.35034 -0.426061,0.52595 -0.811023,1.08764 -1.278261,1.57736 -0.323539,0.33911 -0.731662,0.58618 -1.082637,0.89679 -1.020185,0.90292 -1.534841,1.36542 -1.878009,1.67826 0.53856,-0.39202 -1.135933,1.03559 0,0 -0.228387,0.16627 -0.861311,0.66648 -2.323828,1.86205 -1.024317,0.83734 -1.981793,1.75664 -3.026538,2.56837 -0.638378,0.49599 -1.343608,0.89918 -2.015463,1.34878 -1.070165,0.72297 -2.123205,1.47167 -3.210325,2.16888 -0.80218,0.51445 -1.64114,0.96954 -2.455105,1.46513 -4.456326,2.71326 -8.94143,5.4227 -13.084283,8.60394 -1.288556,0.98632 -2.589712,1.9572 -3.866186,2.9591 -0.843169,0.66181 -1.660998,1.35511 -2.492172,2.03193 -3.534499,2.87814 -7.043028,5.79775 -10.734714,8.47472 -0.09909,0.0973 -0.197857,0.1953 -0.298072,0.29138 -0.847406,0.81242 -2.67049,2.47298 -3.241728,2.99771 -2.303672,1.98332 -4.5706,4.00948 -6.8741911,5.99285 -1.3928436,1.19922 -2.8217167,2.35634 -4.2090459,3.56194 -0.982687,0.85396 -1.9531676,1.71872 -2.9179147,2.58843 v 6.98539 H 95.612432 c 0.0045,-0.12693 0.0061,-0.1868 0.0082,-0.23784 -0.112256,-0.32582 -0.235836,-0.64709 -0.329989,-0.97915 -0.139033,-0.53495 -0.532569,-0.93422 -0.812879,-1.40388 -0.875774,-1.26223 -1.926262,-2.37692 -2.967335,-3.50325 -0.252233,-0.32323 -0.51842,-0.63628 -0.756763,-0.96989 -1.176429,-1.64668 0.560161,0.51763 -1.01777,-1.54441 -0.653236,-0.85364 -1.543652,-1.51311 -2.432969,-2.09577 -1.595424,-1.04532 -1.074321,-2.51786 0.1982,-2.46592 0.356305,0.0146 0.771211,0.14836 1.215455,0.44479 1.035414,0.69091 2.066452,1.46181 2.848416,2.44378 1.535233,1.92794 0.208212,0.37501 1.297824,1.90838 0.183612,0.2584 0.396393,0.49446 0.5946,0.74184 1.086456,1.14096 2.128367,2.31737 3.055368,3.59179 0.461951,0.66147 0.898764,1.32083 1.170151,2.0829 0.127665,0.34625 0.253741,0.6996 0.402063,1.03888 0.132006,0.21723 0.111486,0.57974 0.09266,0.83553 0.04458,0.0356 0.08511,0.0745 0.127156,0.11222 h 81.96215 V 9.5511404 Z M 53.264572,116.59506 c -0.66025,0.56675 0.414192,-0.18099 -1.370412,0.98843 -0.669512,0.48719 -1.018785,0.74469 -1.337978,0.97967 0.0084,-0.004 0.01687,-0.008 0.02522,-0.0124 0.49954,-0.25863 0.948438,-0.60962 1.453808,-0.85664 0.154875,-0.0757 0.233943,-0.11107 0.366029,-0.17452 0.200368,-0.20561 0.506701,-0.53379 0.863328,-0.92459 z m -7.122843,5.47084 c -0.46959,0.26049 -0.939933,0.51936 -1.410566,0.77787 0.477552,-0.24577 0.94746,-0.50587 1.410566,-0.77787 z m -4.655896,2.55909 c -2.077376,1.14089 -4.147867,2.29421 -6.182809,3.512 -0.03303,0.0198 -0.06534,0.0399 -0.09833,0.0597 2.081693,-1.21154 4.178505,-2.39627 6.281137,-3.57172 z M 5.2152436,150.38017 c -0.2691795,0.17073 -0.5375663,0.34187 -0.8072143,0.51172 -0.9298292,0.50404 -1.8447415,1.03792 -2.793332,1.50529 v 0.90297 c 0.099881,-0.0824 0.1997429,-0.16534 0.3001313,-0.24711 1.105052,-0.8852 2.2021834,-1.77933 3.300415,-2.67287 z m -3.1083929,4.7048 c -0.1645992,0.11358 -0.3244761,0.22711 -0.4921534,0.34286 v 0.9354 c 0.1615572,-0.0669 0.3737627,-0.17357 0.6702762,-0.35109 0.4186512,-0.25064 0.815419,-0.53559 1.2103064,-0.82318 -0.5851723,0.17158 -1.0670182,0.1052 -1.3884292,-0.10399 z" />
    </clipPath>
    <clipPath
       clipPathUnits="userSpaceOnUse"
       id="clipPath1086">
      <path
         id="path1088"
         style="fill:#ff0000;fill-opacity:1;fill-rule:nonzero;stroke:none;stroke-width:0.264583"
         d="M 4.2245484,4.2002604 V 159.27245 H 87.85407 c 0.118555,-0.1533 0.238178,-0.30577 0.355532,-0.45992 -0.02148,-0.0182 -0.04466,-0.0339 -0.06563,-0.0527 -0.02106,-0.0189 0.08999,0.0209 0.07286,0.0434 -0.0024,0.003 -0.0048,0.006 -0.0072,0.009 0.08441,0.0713 0.17235,0.13769 0.263552,0.19998 0.0108,-0.0121 0.0223,-0.0236 0.03307,-0.0357 0.0019,0.001 0.0011,5.3e-4 0.0026,0.002 -0.01207,-0.0138 -0.02471,-0.027 -0.03669,-0.0408 -0.01119,-0.0129 0.143041,0.11322 0.03669,0.0408 0.04252,0.0486 0.08604,0.0961 0.129193,0.14418 0.08736,0.0536 0.178903,0.10115 0.269751,0.14986 h 3.769278 c -0.63305,-1.12188 -0.09312,-2.05393 0.797885,-2.06395 0.469527,-0.005 1.035569,0.24547 1.577681,0.85886 1.126739,1.27488 0.690706,0.81959 1.121894,1.20509 H 183.14644 V 4.2002604 Z" />
    </clipPath>
    <clipPath
       clipPathUnits="userSpaceOnUse"
       id="clipPath1096">
      <path
         id="path1098"
         style="fill:#ff0000;fill-opacity:1;fill-rule:nonzero;stroke:none;stroke-width:0.264583"
         d="M 23.856942,5.0596395 V 163.67683 c 0.105165,-0.12819 0.177092,-0.21525 0.237711,-0.24753 -0.01951,-0.19387 0.0012,-0.3606 0.15813,-0.42272 1.483148,-0.58694 3.137794,-0.57525 4.706688,-0.86299 -0.211108,-0.23062 -0.444378,-0.44261 -0.633034,-0.69195 -0.0076,-0.0101 -0.0048,-0.0142 0.0047,-0.0145 0.02781,-0.001 0.112609,0.0343 0.140044,0.0605 0.597614,0.57038 1.222287,1.11976 1.746147,1.75855 0.237312,0.28938 0.341521,0.66584 0.51418,0.99787 0.01617,0.0311 0.186436,0.35606 0.291455,0.55656 0.459422,-0.54604 0.937635,-1.07357 1.471744,-1.54513 0.175567,-0.15501 0.447535,0.1494 0.649058,0.26872 0.204721,0.12122 0.418028,0.27618 0.628901,0.43977 0.674463,-0.19121 1.806197,-0.25861 3.67678,-0.66922 0.311899,-0.0685 0.449789,0.45306 0.674894,0.67955 0.152236,0.17774 0.302315,0.35744 0.453718,0.53588 0.229896,-0.24706 0.469767,-0.51162 0.722437,-0.80046 0.0011,-0.001 0.0397,0.03 0.05013,0.0367 0.0062,-0.008 0.01241,-0.0169 0.0186,-0.0253 0.01117,-0.0152 0.029,0.0245 0.04341,0.0367 l 0.368969,0.27492 c 0.463669,0.208 0.875125,0.52459 1.310513,0.7891 1.134261,0.68909 2.256015,1.39867 3.393594,2.08256 0.24452,0.14425 0.489944,0.28765 0.734837,0.43149 1.214994,-1.95612 0.863566,-2.19997 2.062406,-1.25367 0.02111,0.0196 0.04292,0.0383 0.06408,0.0579 0.03032,-0.064 -0.212196,-0.20932 -0.145727,-0.17466 0.120213,0.0627 0.205647,0.17671 0.30799,0.26561 0.208788,0.18138 0.421871,0.3578 0.625285,0.54519 0.228044,0.21007 0.445844,0.43141 0.668692,0.64699 0.01606,0.0156 0.032,0.0314 0.04806,0.047 0.435541,0.37154 0.874664,0.73881 1.318265,1.10071 0.804471,-0.55653 1.617975,-1.09735 2.49442,-1.526 0.197623,-0.0967 0.315487,0.31844 0.513665,0.41392 0.04641,0.0224 0.02074,-0.10091 0.03101,-0.15141 0.236781,0.10295 0.488064,0.17802 0.710549,0.30903 0.2608,0.15358 0.439836,0.26548 0.630971,0.38344 0.308544,-0.61286 0.465166,-0.82839 0.774112,-0.69402 0.01341,-0.0135 0.02476,-0.0241 0.03824,-0.0377 0.104642,-0.10535 0.241599,0.1726 0.360185,0.262 0.126801,0.0956 0.796597,0.61468 0.967899,0.74724 1.085249,0.82477 2.173406,1.64502 3.263884,2.46186 0.413218,-0.61191 0.829098,-1.22225 1.224732,-1.84433 0.156385,0.0926 0.310433,0.18843 0.463021,0.28681 0.01193,-0.003 0.02572,0.006 0.04134,0.0263 0.404956,0.26288 0.797222,0.54519 1.183389,0.83612 0.273235,0.18456 0.546703,0.36864 0.820105,0.55294 1.361244,-1.00981 2.62913,-2.16461 4.106209,-2.99413 0.07701,-0.0433 0.297953,0.12223 0.513665,0.30386 0.420134,-0.23664 0.774446,-0.313 1.09864,-0.28164 0.195177,-0.54744 0.708705,-0.89305 2.20555,-1.69395 0.373417,-0.19976 0.847307,-0.003 1.270207,0.0196 0.146539,0.008 0.300529,0.011 0.434083,0.0718 1.655355,0.75383 2.101144,0.98576 2.834452,1.46192 0.396571,-0.62989 0.80594,-0.65851 1.677416,-0.2098 0.84323,-0.48349 1.370288,-0.64687 1.663465,-0.6873 -0.0051,-0.003 -0.03853,-0.0253 -0.04599,-0.03 -0.112733,-0.0518 -0.24757,-0.13335 -0.402042,-0.26665 -0.03622,-0.0312 0.0773,0.0565 0.117306,0.0827 0.183681,0.1204 0.238667,0.15517 0.284736,0.18397 0.02421,0.0111 0.04471,0.0186 0.06666,0.0269 0.393988,-0.0485 0.330475,0.12437 0,0 -0.0067,8e-4 -0.01373,0.002 -0.02066,0.003 0.116988,0.0712 -0.34544,-0.24023 0.672828,0.45682 0.170995,0.13045 0.285332,0.21544 0.406175,0.30644 0.243549,-0.7081 0.491236,-1.41365 0.923975,-2.01176 0.0856,-0.11832 0.223224,-0.099 0.376722,-0.0382 0.654277,-0.83296 1.205457,-1.3075 1.714624,-1.52446 -0.01942,-0.0437 -0.0408,-0.0865 -0.05994,-0.13023 -0.04485,-0.10248 -0.150715,-0.25094 -0.06976,-0.32814 0.304382,-0.29034 0.561295,-0.55161 0.797883,-0.79944 -0.356976,-0.53285 -0.719188,-1.20636 -0.400492,-1.4397 1.034439,-0.75739 2.335758,-1.03532 3.610631,-1.31155 0.250767,-0.31992 0.499984,-0.64136 0.746207,-0.9648 -0.02148,-0.0181 -0.04466,-0.0339 -0.06563,-0.0527 -0.02106,-0.0189 0.08999,0.0209 0.07286,0.0434 -0.0024,0.003 -0.0048,0.006 -0.0072,0.009 0.08441,0.0713 0.17235,0.1377 0.263552,0.19999 0.0108,-0.0121 0.0223,-0.0236 0.03307,-0.0357 0.0019,0.001 0.0011,5.3e-4 0.0026,0.002 -0.01206,-0.0138 -0.02471,-0.027 -0.03669,-0.0408 -0.01119,-0.0129 0.143041,0.11322 0.03669,0.0408 0.04252,0.0486 0.08604,0.0961 0.129194,0.14418 0.526743,0.32306 1.129416,0.5422 1.657778,0.84336 0.380511,0.19488 0.761421,0.39134 1.142567,0.58653 0.290083,-0.59855 0.715817,-1.05971 1.212328,-1.14877 0.03979,0 0.07602,0.006 0.112655,0.009 -0.7619,-1.18334 -0.216247,-2.19356 0.711586,-2.204 0.469527,-0.005 1.035568,0.24547 1.577681,0.85886 1.495132,1.6917 0.229637,0.32744 1.904791,1.93942 0.174937,0.16833 0.320035,0.36739 0.50333,0.52658 1.434836,1.24611 0.291947,0.0852 1.346687,1.09503 0.523785,0.50147 1.036939,1.01392 1.55546,1.52083 2.76745,2.88412 4.98007,6.21512 7.28844,9.45938 1.02085,1.41745 1.58979,2.21217 2.69907,3.72587 0.38612,0.5269 0.79856,1.03542 1.16737,1.57458 0.64709,0.946 1.22679,1.93726 1.87998,2.87889 h 69.95847 V 5.0596395 Z M 29.334643,163.5466 c 0.0029,0.0452 0.0053,0.0959 0.0098,0.12299 0.01818,0.10844 0.03672,0.21698 0.05736,0.32505 0.02833,-0.11348 -0.03512,-0.28942 -0.06718,-0.44804 z m 53.33938,1.69396 c 0.139838,0.36729 0.193223,0.508 0.242364,0.47025 -0.08043,-0.15699 -0.159493,-0.31465 -0.242364,-0.47025 z m -29.339812,2.50217 c 0.01908,0.0224 0.03961,0.0435 0.05891,0.0656 -0.0055,-0.012 -0.01053,-0.0242 -0.01603,-0.0362 -0.0073,-0.0159 -0.05422,-0.0428 -0.04289,-0.0295 z m 21.301027,0.20929 c -0.0072,0.001 -0.01402,0.007 -0.02119,0.0191 -0.01312,0.0221 -0.0033,0.0554 0.01188,0.076 0.04335,0.0588 0.08766,0.11675 0.131776,0.17519 -0.0353,-0.10415 -0.07793,-0.27716 -0.122473,-0.27027 z m 18.891353,3.45922 c -0.539866,0.68632 -0.924999,1.12433 -1.233516,1.36633 -0.0043,0.0176 -0.0076,0.0348 -0.01551,0.0532 -0.426053,0.99606 -1.157438,1.819 -1.938898,2.59778 0.112374,0.10404 0.202896,0.20491 0.16433,0.24649 -0.302075,0.32573 -0.623186,0.63194 -0.953947,0.92811 0.212068,0.15359 0.425484,0.30553 0.636137,0.46095 -0.04724,1.14081 1.130642,0.92069 1.588019,1.48208 0.174038,0.21363 0.178964,0.52725 0.330211,0.75758 0.05456,0.0831 0.237812,0.0466 0.261482,0.14315 0.07826,0.31917 0.04733,0.87756 0.01085,1.341 h 17.241321 c -0.26512,-0.29311 -0.52821,-0.58795 -0.78134,-0.89142 -0.42146,-0.50528 -0.78367,-1.05748 -1.17564,-1.58595 -2.09864,-2.8295 -1.12947,-1.49792 -2.75177,-3.75067 -0.17586,-0.24723 -0.34885,-0.49735 -0.52348,-0.7457 -0.90014,1.16122 -0.85843,1.32068 -1.51619,0.45631 -0.006,0.004 -0.0104,0.007 -0.016,0.0114 -0.0232,0.0173 -0.0364,-0.0451 -0.0537,-0.0682 -0.0968,-0.12888 -0.19308,-0.25779 -0.28939,-0.38705 -0.16886,-0.19019 -0.33754,-0.38074 -0.50695,-0.57051 -0.8028,1.80017 -2.939031,1.75154 -3.767727,-0.40669 -0.159255,0.093 -0.319495,0.18465 -0.481624,0.27285 -0.122893,0.0669 -0.234579,-0.15213 -0.353467,-0.22583 -0.334515,-0.20748 -0.67128,-0.41197 -1.006658,-0.61805 -0.07488,-0.046 -0.147645,-0.0951 -0.222207,-0.14159 -0.28869,0.22116 -0.585148,0.43155 -0.891935,0.62735 0.04868,0.0458 0.03551,0.0422 -0.01138,0.007 -0.02569,0.0164 -0.05011,0.0345 -0.07596,0.0507 -0.188762,0.11783 -0.353775,-0.27021 -0.524515,-0.4129 -0.387578,-0.32389 -0.761207,-0.66424 -1.1405,-0.99787 z m 1.74098,1.36012 c 0.0038,-0.002 0.0076,-0.005 0.01138,-0.007 -0.0098,-0.009 -0.03164,-0.0303 -0.04496,-0.0429 -0.0043,0.006 -0.0091,0.0113 -0.01344,0.0171 0.04334,0.0323 0.02566,0.0171 0.04703,0.0331 z m -13.801744,5.12579 c -0.281908,0.32504 -0.586316,0.63541 -0.898136,0.94103 0.128241,0.17763 0.259512,0.35281 0.409795,0.51159 0.213013,0.22506 0.477459,0.39521 0.716235,0.59273 -0.191431,0.2792 -0.378944,0.56163 -0.564306,0.84543 h 7.47603 c -0.17874,-0.12748 -0.372327,-0.22211 -0.60048,-0.23823 -0.0013,0.004 -0.0019,0.006 -0.0031,0.01 -0.144568,0.4285 -0.8958,-0.12739 -1.343588,-0.19069 -0.420892,-0.0595 -0.862793,-0.0325 -1.262454,-0.17725 -1.141429,-0.41349 -1.975946,-1.48676 -3.161565,-1.80816 -0.255971,-0.16225 -0.512276,-0.32428 -0.768429,-0.48627 z m -57.608885,0.23926 v 2.65152 h 2.053104 c -0.226162,-0.21069 -0.442789,-0.4368 -0.660941,-0.65578 -0.27081,-0.342 -0.561095,-0.66952 -0.812871,-1.02577 -0.162649,-0.23014 -0.281349,-0.48843 -0.427881,-0.72916 -0.0493,-0.081 -0.101254,-0.16035 -0.151411,-0.24081 z m 6.403742,2.30529 c -0.150077,0.117 -0.302704,0.23052 -0.453718,0.34623 h 0.668176 c -0.07133,-0.11551 -0.143698,-0.23036 -0.214458,-0.34623 z m 60.909978,0.14779 c 0.005,0.0544 0.01336,0.12796 0.02119,0.19844 h 0.325043 c -0.08323,-0.0505 -0.164377,-0.10161 -0.346231,-0.19844 z" />
    </clipPath>
    <clipPath
       clipPathUnits="userSpaceOnUse"
       id="clipPath1106">
      <path
         id="path1108"
         style="fill:#ff0000;fill-opacity:1;fill-rule:nonzero;stroke:none;stroke-width:0.264583"
         d="m 19.053617,80.463821 v 84.208809 h 3.822506 c 0.828757,-0.70175 1.056246,-1.15692 1.21853,-1.24333 -0.01951,-0.19387 0.0012,-0.3606 0.15813,-0.42272 1.483148,-0.58694 3.137794,-0.57525 4.706688,-0.86299 -0.211108,-0.23062 -0.444378,-0.44261 -0.633034,-0.69195 -0.0076,-0.0101 -0.0048,-0.0142 0.0047,-0.0145 0.02781,-0.001 0.112609,0.0343 0.140044,0.0605 0.597614,0.57038 1.222287,1.11976 1.746147,1.75855 0.237312,0.28938 0.341521,0.66584 0.51418,0.99787 0.01215,0.0234 0.125937,0.24072 0.21911,0.41858 h 0.191201 c 0.4235,-0.49644 0.864232,-0.97572 1.352888,-1.40715 0.175567,-0.15501 0.447535,0.1494 0.649058,0.26872 0.204721,0.12122 0.418028,0.27618 0.628901,0.43977 0.674463,-0.19121 1.806197,-0.25861 3.67678,-0.66922 0.311899,-0.0685 0.449789,0.45306 0.674894,0.67955 0.152151,0.17764 0.302852,0.35659 0.453718,0.53537 0.229822,-0.24699 0.469857,-0.51122 0.722437,-0.79995 0.0011,-0.001 0.0397,0.03 0.05013,0.0367 0.0062,-0.008 0.01241,-0.0169 0.0186,-0.0253 0.01117,-0.0152 0.029,0.0245 0.04341,0.0367 l 0.368969,0.27492 c 0.374981,0.16821 0.717058,0.40466 1.064017,0.62993 h 41.573174 c 0.423879,-0.447 0.806136,-0.73276 1.166337,-0.88625 -0.01942,-0.0436 -0.0408,-0.0865 -0.05994,-0.13022 -0.04485,-0.10248 -0.150715,-0.25095 -0.06976,-0.32815 0.304382,-0.29034 0.561295,-0.5516 0.797883,-0.79943 -0.356976,-0.53285 -0.719188,-1.20637 -0.400492,-1.43971 1.034439,-0.75739 2.335758,-1.03532 3.610631,-1.31155 0.250767,-0.31991 0.499983,-0.64136 0.746207,-0.96479 -0.02148,-0.0182 -0.04466,-0.0339 -0.06563,-0.0527 -0.02106,-0.0189 0.08999,0.0209 0.07286,0.0434 -0.0024,0.003 -0.0048,0.006 -0.0072,0.009 0.08441,0.0713 0.17235,0.13769 0.263551,0.19998 0.0108,-0.0121 0.02231,-0.0236 0.03307,-0.0357 0.0019,0.001 0.0011,5.3e-4 0.0026,0.002 -0.01206,-0.0138 -0.02471,-0.027 -0.03669,-0.0408 -0.01119,-0.0129 0.143042,0.11322 0.03669,0.0408 0.04252,0.0486 0.08604,0.0961 0.129194,0.14418 0.526743,0.32307 1.129416,0.5422 1.657778,0.84336 0.380511,0.19488 0.761421,0.39135 1.142566,0.58653 0.290084,-0.59854 0.715817,-1.0597 1.212329,-1.14877 0.03979,0 0.07602,0.005 0.112654,0.009 -0.761899,-1.18334 -0.216246,-2.19357 0.711587,-2.20401 0.469527,-0.005 1.035568,0.24548 1.577681,0.85887 1.495131,1.6917 0.229637,0.32743 1.904791,1.93941 0.174937,0.16833 0.320035,0.3674 0.50333,0.52658 1.434835,1.24612 0.291947,0.0852 1.346687,1.09503 0.523785,0.50147 1.036947,1.01392 1.555461,1.52084 0.47523,0.49527 0.93293,1.00451 1.37873,1.52342 h 1.52032 V 80.463821 Z M 29.334643,163.5466 c 0.0029,0.0452 0.0053,0.0959 0.0098,0.12299 0.01818,0.10844 0.03672,0.21698 0.05736,0.32505 0.02833,-0.11348 -0.03512,-0.28942 -0.06718,-0.44804 z" />
    </clipPath>
    <clipPath
       clipPathUnits="userSpaceOnUse"
       id="clipPath1086-1">
      <path
         id="path1088-4"
         style="fill:#ff0000;fill-opacity:1;fill-rule:nonzero;stroke:none;stroke-width:0.264583"
         d="M 4.2245484,4.2002604 V 159.27245 H 87.85407 c 0.118555,-0.1533 0.238178,-0.30577 0.355532,-0.45992 -0.02148,-0.0182 -0.04466,-0.0339 -0.06563,-0.0527 -0.02106,-0.0189 0.08999,0.0209 0.07286,0.0434 -0.0024,0.003 -0.0048,0.006 -0.0072,0.009 0.08441,0.0713 0.17235,0.13769 0.263552,0.19998 0.0108,-0.0121 0.0223,-0.0236 0.03307,-0.0357 0.0019,0.001 0.0011,5.3e-4 0.0026,0.002 -0.01207,-0.0138 -0.02471,-0.027 -0.03669,-0.0408 -0.01119,-0.0129 0.143041,0.11322 0.03669,0.0408 0.04252,0.0486 0.08604,0.0961 0.129193,0.14418 0.08736,0.0536 0.178903,0.10115 0.269751,0.14986 h 3.769278 c -0.63305,-1.12188 -0.09312,-2.05393 0.797885,-2.06395 0.469527,-0.005 1.035569,0.24547 1.577681,0.85886 1.126739,1.27488 0.690706,0.81959 1.121894,1.20509 H 183.14644 V 4.2002604 Z" />
    </clipPath>
    <linearGradient
       inkscape:collect="always"
       xlink:href="#linearGradient1839"
       id="linearGradient1841"
       x1="11.582329"
       y1="93.613508"
       x2="179.94298"
       y2="93.613508"
       gradientUnits="userSpaceOnUse" />
  </defs>
  <sodipodi:namedview
     id="base"
     pagecolor="#ffffff"
     bordercolor="#666666"
     borderopacity="1.0"
     inkscape:pageopacity="0.0"
     inkscape:pageshadow="2"
     inkscape:zoom="0.76508705"
     inkscape:cx="330.17729"
     inkscape:cy="359.35701"
     inkscape:document-units="mm"
     inkscape:current-layer="layer1"
     inkscape:document-rotation="0"
     showgrid="false"
     units="px"
     inkscape:window-width="1920"
     inkscape:window-height="1001"
     inkscape:window-x="-9"
     inkscape:window-y="-9"
     inkscape:window-maximized="1"
     showguides="false" />
  <metadata
     id="metadata5">
    <rdf:RDF>
      <cc:Work
         rdf:about="">
        <dc:format>image/svg+xml</dc:format>
        <dc:type
           rdf:resource="http://purl.org/dc/dcmitype/StillImage" />
        <dc:title />
      </cc:Work>
    </rdf:RDF>
  </metadata>
  <g
     inkscape:label="Layer 1"
     inkscape:groupmode="layer"
     id="layer1"
     style="display:inline">
    <path
       id="rect855"
       style="fill:#0e9594;fill-opacity:1;stroke:#065c77;stroke-width:2;stroke-linecap:round;stroke-linejoin:round;stroke-opacity:1;stroke-miterlimit:4;stroke-dasharray:none"
       d="M 12.949909,0.16360374 H 173.39488 c 6.72993,0 12.14789,5.41795936 12.14789,12.14789126 V 172.75647 c 0,6.72993 -5.41796,12.14789 -12.14789,12.14789 H 12.949909 c -6.7299317,0 -12.14789106,-5.41796 -12.14789106,-12.14789 V 12.311495 c 0,-6.7299319 5.41795936,-12.14789126 12.14789106,-12.14789126 z" />
    <path
       id="circle1013"
       style="fill:#ffffff;fill-opacity:1;stroke:none;stroke-width:3.94716;stroke-linecap:round;stroke-linejoin:round;stroke-miterlimit:4;stroke-dasharray:none;stroke-dashoffset:10.554;stroke-opacity:1"
       d="M 76.779613,56.074814 A 27.886372,27.383386 0 0 0 48.893286,83.458155 27.886372,27.383386 0 0 0 76.779613,110.8415 27.886372,27.383386 0 0 0 104.66596,83.458155 27.886372,27.383386 0 0 0 76.779613,56.074814 Z m -8.229555,11.266834 a 8.6385235,8.4827106 0 0 1 0.03426,0 8.6385235,8.4827106 0 0 1 8.638857,8.48253 8.6385235,8.4827106 0 0 1 -8.638857,8.48253 8.6385235,8.4827106 0 0 1 -8.638341,-8.48253 8.6385235,8.4827106 0 0 1 8.604065,-8.48253 z m 14.935473,18.161275 a 3.6462927,3.5805245 0 0 1 3.645865,3.580611 3.6462927,3.5805245 0 0 1 -3.645865,3.580608 3.6462927,3.5805245 0 0 1 -3.646379,-3.580608 3.6462927,3.5805245 0 0 1 3.646379,-3.580611 z M 76.846414,44.011116 A 40.534539,39.803418 0 0 0 36.312113,83.814802 40.534539,39.803418 0 0 0 76.846414,123.618 40.534539,39.803418 0 0 0 102.49694,114.63507 c -0.0363,1.38701 0.38188,2.63681 1.29851,3.5369 l 17.60823,17.29062 c 2.31963,2.2778 6.91513,1.43239 10.30369,-1.89505 3.38856,-3.32745 4.24898,-7.83956 1.92936,-10.11734 l -17.60822,-17.29062 c -1.18792,-1.1665 -2.97319,-1.51239 -4.88708,-1.12688 A 40.534539,39.803418 0 0 0 117.38125,83.814802 40.534539,39.803418 0 0 0 76.846414,44.011116 Z M 115.78157,9.1744703 c 28.31019,0.2435401 54.8226,10.5216187 61.40006,24.8035167 10.26717,22.293516 -42.14646,-17.99978 -46.79254,24.539756 -9.54812,87.422527 -45.193376,89.843647 -77.178194,74.377897 -0.183993,0.28385 -0.441974,0.53721 -0.790475,0.74506 -12.966715,7.73356 -21.681797,39.01592 -21.681797,39.01592 -1.456025,2.62012 -4.917925,3.88228 -7.762433,2.83003 l -8.239268,-3.04757 c -1.120751,-0.41459 -3.963676,-4.00547 -2.506471,-6.62917 0,0 19.132852,-20.42298 21.681292,-39.01542 0.221754,-1.61782 1.672967,-2.62601 3.406932,-3.03651 -1.783012,-1.17076 -3.535888,-2.36363 -5.250329,-3.56604 C -6.4153789,93.201625 31.210924,39.459004 69.641848,19.302367 l 5.15e-4,5.02e-4 C 83.453472,12.059076 99.900233,9.0378503 115.78157,9.1744703 Z" />
  </g>
</svg>
