<?xml version="1.0" encoding="UTF-8" standalone="no"?>
<svg
   xmlns:dc="http://purl.org/dc/elements/1.1/"
   xmlns:cc="http://creativecommons.org/ns#"
   xmlns:rdf="http://www.w3.org/1999/02/22-rdf-syntax-ns#"
   xmlns:svg="http://www.w3.org/2000/svg"
   xmlns="http://www.w3.org/2000/svg"
   xmlns:sodipodi="http://sodipodi.sourceforge.net/DTD/sodipodi-0.dtd"
   xmlns:inkscape="http://www.inkscape.org/namespaces/inkscape"
   width="700"
   height="700"
   viewBox="0 0 185.20833 185.20834"
   version="1.1"
   id="svg8"
   inkscape:version="1.0.1 (3bc2e813f5, 2020-09-07)"
   sodipodi:docname="appInfo.svg"
   inkscape:export-filename="D:\_Personal(Clark)\Downloads\_cert_talline\jpg\App Abaca\UI\vector\icons\appInfo.png"
   inkscape:export-xdpi="96.641304"
   inkscape:export-ydpi="96.641304">
  <defs
     id="defs2">
    <rect
       x="86.567332"
       y="61.780341"
       width="38.264536"
       height="107.0112"
       id="rect899" />
    <rect
       x="-2.007652"
       y="65.097339"
       width="61.659341"
       height="50.530953"
       id="rect893" />
    <rect
       x="-21.559918"
       y="93.580911"
       width="43.340262"
       height="41.325525"
       id="rect881" />
    <rect
       x="-98.124735"
       y="84.360267"
       width="50.292576"
       height="77.55383"
       id="rect869" />
  </defs>
  <sodipodi:namedview
     id="base"
     pagecolor="#ffffff"
     bordercolor="#666666"
     borderopacity="1.0"
     inkscape:pageopacity="0.0"
     inkscape:pageshadow="2"
     inkscape:zoom="0.63446243"
     inkscape:cx="342.85714"
     inkscape:cy="400.00053"
     inkscape:document-units="mm"
     inkscape:current-layer="layer1"
     inkscape:document-rotation="0"
     showgrid="false"
     units="px"
     inkscape:window-width="1920"
     inkscape:window-height="1001"
     inkscape:window-x="-9"
     inkscape:window-y="-9"
     inkscape:window-maximized="1" />
  <metadata
     id="metadata5">
    <rdf:RDF>
      <cc:Work
         rdf:about="">
        <dc:format>image/svg+xml</dc:format>
        <dc:type
           rdf:resource="http://purl.org/dc/dcmitype/StillImage" />
        <dc:title></dc:title>
      </cc:Work>
    </rdf:RDF>
  </metadata>
  <g
     inkscape:label="Layer 1"
     inkscape:groupmode="layer"
     id="layer1">
    <path
       id="path887"
       style="fill:#0e9594;fill-opacity:1;stroke-width:32.8895"
       d="M 348.67188 19.9375 A 332.27959 332.27959 0 0 0 16.392578 352.2168 A 332.27959 332.27959 0 0 0 348.67188 684.49805 A 332.27959 332.27959 0 0 0 680.95117 352.2168 A 332.27959 332.27959 0 0 0 348.67188 19.9375 z M 358.00391 165.94531 A 49.952296 49.952296 0 0 1 358.01953 165.94531 A 49.952296 49.952296 0 0 1 407.9707 215.89844 A 49.952296 49.952296 0 0 1 358.01953 265.85156 A 49.952296 49.952296 0 0 1 308.06641 215.89844 A 49.952296 49.952296 0 0 1 358.00391 165.94531 z M 348.94922 291.51758 L 367.46484 291.51758 C 386.11742 291.51758 401.13477 298.55261 401.13477 307.29102 L 401.13477 557.5957 C 401.13477 566.33412 386.11742 573.36914 367.46484 573.36914 L 348.94922 573.36914 C 330.29665 573.36914 315.2793 566.33412 315.2793 557.5957 L 315.2793 307.29102 C 315.2793 298.55261 330.29665 291.51758 348.94922 291.51758 z "
       transform="scale(0.26458333)" />
    <g
       id="text891"
       style="font-style:normal;font-weight:normal;font-size:52.9167px;line-height:1.25;font-family:sans-serif;white-space:pre;shape-inside:url(#rect893);fill:#000000;fill-opacity:1;stroke:none" />
  </g>
</svg>
