<?xml version="1.0" encoding="UTF-8" standalone="no"?>
<svg
   xmlns:dc="http://purl.org/dc/elements/1.1/"
   xmlns:cc="http://creativecommons.org/ns#"
   xmlns:rdf="http://www.w3.org/1999/02/22-rdf-syntax-ns#"
   xmlns:svg="http://www.w3.org/2000/svg"
   xmlns="http://www.w3.org/2000/svg"
   xmlns:sodipodi="http://sodipodi.sourceforge.net/DTD/sodipodi-0.dtd"
   xmlns:inkscape="http://www.inkscape.org/namespaces/inkscape"
   width="700"
   height="700"
   viewBox="0 0 185.20834 185.20834"
   version="1.1"
   id="svg1614"
   inkscape:version="1.0.1 (3bc2e813f5, 2020-09-07)"
   sodipodi:docname="ic_assessment.svg"
   inkscape:export-filename="D:\_Personal(Clark)\Downloads\_cert_talline\jpg\App Abaca\UI\vector\icons\newVectors\ic_assessment.png"
   inkscape:export-xdpi="96"
   inkscape:export-ydpi="96">
  <defs
     id="defs1608">
    <clipPath
       clipPathUnits="userSpaceOnUse"
       id="clipPath1326">
      <path
         id="path1328"
         style="fill:#ff0000;fill-opacity:1;fill-rule:nonzero;stroke:none;stroke-width:0.264583"
         d="m 165.82295,16.95297 c -0.4755,0.823141 -0.91005,1.669354 -1.26452,2.550232 -0.47228,1.173655 -0.82148,2.41548 -1.22008,3.61425 -0.52659,1.655831 -1.19821,3.260996 -1.76889,4.900992 -0.31592,0.907878 -0.54958,1.836369 -0.8356,2.75332 -0.62016,1.792396 -1.14194,3.622813 -2.01797,5.310272 -0.49201,0.75043 -1.10841,1.560259 -2.25102,1.259872 -0.7236,-0.19023 -1.24271,-0.889117 -1.26814,-1.590085 -0.0111,0.01333 -0.0208,0.02784 -0.0351,0.03927 -0.13222,0.105185 -0.10965,-0.320286 -0.17415,-0.476457 -0.12331,-0.298534 -0.30222,-0.572852 -0.41393,-0.875916 -0.2641,-0.716666 -0.23975,-0.715883 -0.35037,-1.358056 -0.009,-0.895694 0.13543,-1.771655 0.0915,-2.667537 0.23056,-0.485423 0.38028,-1.018098 0.69143,-1.456243 0.1587,-0.22348 0.41891,-0.373488 0.67593,-0.468704 0.071,-0.0263 0.009,0.156691 -0.0207,0.22634 -0.13477,0.315812 -0.54297,0.582764 -0.46767,0.917774 0.17074,0.75982 0.63821,0.880414 1.1467,1.060402 0.006,-0.246787 0.0126,-0.493739 0.0186,-0.740524 0.0146,-0.57835 0.0896,0.01249 0.1602,-0.561723 0.0296,-0.240128 0.0594,-0.480245 0.0889,-0.720368 0.47076,0.130186 0.91103,0.212153 1.19889,0.642853 0.24252,-0.806596 0.45973,-1.615819 0.73794,-2.415874 0.5505,-1.583099 1.19733,-3.133007 1.70945,-4.729943 -0.18766,0.02888 -0.37303,0.06487 -0.55035,0.130742 -0.50712,0.1884 -1.02722,0.934619 -1.29966,0.494543 -0.27891,-0.450505 -0.45826,-1.027647 -0.60979,-1.634526 -0.1437,0.143445 -0.28818,0.286177 -0.42891,0.432532 -0.33364,0.346976 -0.75677,0.80539 -1.19166,1.260905 0.47267,0.453089 1.47108,0.351165 2.13889,0.598413 0.13679,0.09092 0.26317,0.199872 0.41031,0.272852 0.0329,0.01632 0.0726,-0.0105 0.10904,-0.0155 -0.27045,0.122463 -0.52721,0.281299 -0.81132,0.367419 -0.13584,0.04116 -0.29546,-0.04864 -0.42581,0.0078 -0.94452,0.4063 -0.0178,0.37027 -0.70384,0.3514 -0.10223,0.06454 -0.19264,0.152977 -0.30644,0.193787 -0.0733,0.0263 -0.15619,-2e-4 -0.23409,0 -0.16304,3.97e-4 -0.32582,5.82e-4 -0.48886,0.0016 -0.52632,0.0021 -1.05287,0.0025 -1.57924,0.0026 -1.18967,1.008828 -3.29551,2.743615 -4.29741,3.487126 -1.01412,0.752586 -2.0603,1.461341 -3.09025,2.192115 -3.79748,2.603582 -7.7882,4.921848 -11.53986,7.593851 -0.70634,0.503066 -1.3918,1.034987 -2.08773,1.552361 -0.40116,0.316352 -0.81069,0.62217 -1.20354,0.948777 -0.17253,0.143433 -1.8204,1.559938 -2.3549,2.071193 -0.0762,0.127976 -0.19824,0.278011 -0.39481,0.497128 -0.10139,0.113009 0.15528,-0.264607 0.26149,-0.373105 0.0247,-0.02524 0.0973,-0.08953 0.13332,-0.124023 0.25175,-0.422955 -0.0559,-0.574307 -0.32453,-1.920814 -1.1278,-3.472696 0.0966,-2.650988 -2.89439,-2.685106 -0.60374,-0.0069 -1.54277,-0.617558 -1.80971,-0.07596 -1.17534,2.384475 1.43834,0.897411 1.77095,1.161169 0.33216,0.263392 0.50161,0.683495 0.75241,1.02526 0.15486,-0.11738 0.30971,-0.234537 0.46457,-0.351917 0.15781,-0.119597 0.27876,0.04085 0.12041,0.159681 l -0.49352,0.370002 c -0.23212,0.590677 -0.34969,1.240205 -0.69608,1.771986 -0.0862,0.13231 -0.44415,-0.131951 -0.47335,0.02326 -0.0784,0.416597 0.57757,1.002344 0.23357,1.250053 -0.51521,0.371017 -1.26948,-0.03424 -1.90427,-0.04703 -3.22513,-0.06494 -1.93515,0.66993 -3.2365,-2.947623 -0.1149,-0.802087 -0.447,-1.602782 -0.34468,-2.40657 0.0646,-0.507709 0.50682,-0.892691 0.81649,-1.300181 1.49786,-1.970993 3.74218,-3.512492 5.62498,-5.081342 0.81152,-0.599247 1.61241,-1.213146 2.43448,-1.797825 2.91919,-2.076191 5.97706,-3.947525 8.98188,-5.896797 -0.099,-0.0011 -0.19823,-0.0018 -0.29714,-0.0031 -3.73231,0.02623 -7.46477,0.04997 -11.19725,0.03876 -0.52626,0.07528 -1.054,0.140556 -1.57872,0.225826 -0.38694,0.06288 -0.76516,0.182152 -1.15548,0.218592 -3.22893,0.301416 -6.44327,0.229053 -9.6759,0.077 -1.66812,-0.04721 -3.33703,-0.02667 -5.00538,-0.01137 -0.49017,0.0045 -0.98155,-0.01586 -1.47071,0.01602 -1.0484,0.06834 -2.21596,0.248996 -3.2675,0.397391 -0.93281,0.04894 -1.86465,0.116691 -2.79828,0.146762 -0.24311,0.0078 -0.48636,0.0056 -0.72967,0.0026 1.35046,0.806245 2.68997,1.628725 4.09432,2.342492 0.31513,-0.0055 0.60434,0.0011 1.00821,0.0072 2.00098,0.07587 2.23529,0.297254 1.85725,1.5875 0.006,0.01466 0.005,0.02299 -0.007,0.02119 -5.3e-4,0.0013 -7.9e-4,0.003 -0.002,0.0047 -8e-4,-0.0016 -0.002,-0.003 -0.004,-0.0047 -0.0734,-0.02307 -0.14713,-0.0459 -0.22066,-0.06873 0.0293,-0.02254 0.0581,-0.04569 0.0873,-0.06821 0.006,-0.0049 0.014,-0.0062 0.0227,-0.0047 -0.39255,-0.4905 -0.54503,-0.549875 -0.6997,-0.181901 -0.1719,-0.170323 -0.31619,-0.307964 -0.4377,-0.415996 0.0341,0.09198 0.009,0.195963 -0.078,0.329178 0.16455,0.05033 0.32844,0.102275 0.49299,0.152448 0.008,-0.02003 0.0156,-0.04649 0.0233,-0.0646 0.0365,0.03615 0.0688,0.06633 0.10697,0.104902 0.16071,0.04909 0.32128,0.09904 0.48162,0.148828 -0.0654,0.05039 -0.1295,0.102452 -0.19482,0.152961 0.0978,0.103825 0.19474,0.205504 0.29611,0.318844 0.0459,-0.142047 0.0878,-0.275074 0.12403,-0.397391 0.13099,0.169846 0.27733,0.363667 0.46353,0.611849 -0.077,0.06512 -0.154,0.130217 -0.23099,0.195336 0.67277,0.806863 1.30704,1.742073 1.43867,2.486155 0.12805,0.791504 -0.97448,-0.855615 -2.1146,-1.909964 -0.44379,1.384044 -1.02279,3.405958 -1.35082,6.410979 -0.005,0.04906 -0.11969,0.03496 -0.1478,-0.0057 -0.29386,-0.423201 -0.55342,-0.777988 -0.79788,-1.103809 -0.19056,0.647199 -0.36251,1.067667 -0.49971,1.358058 0.30661,0.08878 0.61437,0.173686 0.92036,0.264583 0.0493,0.01463 -0.11266,0.0013 -0.14987,0.03669 -0.008,0.0079 -0.009,0.01315 -0.0114,0.01913 0.1861,-0.0051 0.39743,0.0019 0.64388,0.02997 0.0671,0.0076 -0.13465,-0.0066 -0.20205,-0.0098 -0.13248,-0.0034 -0.46928,0.04857 -0.44183,-0.02016 -1.23747,0.03364 -1.20376,0.620662 -0.75913,-0.320392 -0.43606,-0.126267 -0.87185,-0.253574 -1.30896,-0.376206 -0.1373,0.204137 -0.27737,0.410266 -0.42582,0.621668 -0.0995,0.141711 -0.33259,-0.09846 -0.49609,-0.155546 -0.62831,-0.219395 -1.22898,-0.506743 -1.82831,-0.79375 -2.033007,-1.03523 -3.96794,-2.2333 -5.924189,-3.403409 -4.387999,-2.237949 -9.015378,-3.946054 -13.496333,-5.983613 -0.836102,-0.431498 -1.853626,-1.009725 -2.767274,-1.169956 -0.485111,-0.08508 -0.979297,-0.08419 -1.473811,-0.077 -0.295704,1.725297 -0.589288,3.451044 -0.887283,5.17436 -0.279519,1.531122 -0.578075,3.059078 -0.838711,4.593518 -1.258673,7.410146 -2.389092,14.844231 -3.562572,22.267892 -2.898857,18.338734 0.709329,-4.837284 -2.384351,15.114842 -0.879316,5.834618 -1.808454,11.660385 -3.041674,17.431493 -0.208417,0.975336 -0.397817,1.9563 -0.655775,2.919717 -0.404069,1.509133 -0.886134,2.996128 -1.329118,4.4943 -0.940658,2.892746 -0.798433,2.894556 -2.14612,5.464266 -0.193384,0.36872 -0.377812,0.75884 -0.672828,1.05265 -0.62562,0.62301 -1.462175,0.83344 -2.322856,0.58446 -0.18958,-0.0548 -0.231619,-0.31963 -0.347266,-0.47955 -0.08842,-0.11571 -0.247039,-0.20277 -0.265099,-0.34727 -0.02823,-0.22593 0.115662,-0.44214 0.138491,-0.66869 0.01011,-0.10029 -0.07259,-0.20403 -0.04082,-0.29973 0.06071,-0.1829 0.234807,-0.31184 0.303339,-0.49196 0.03635,-0.0956 -0.04384,-0.21475 5.3e-4,-0.30695 0.06951,-0.14475 0.213264,-0.24012 0.319876,-0.36019 0.0027,-0.0714 0.0056,-0.14254 0.0083,-0.21394 0.0024,-0.0643 0.06698,-0.0608 0.0646,0.002 -0.0028,0.0711 -0.0056,0.14179 -0.0083,0.21291 0.100952,0.12006 0.201874,0.24009 0.302824,0.36018 -5.3e-5,0.0168 -0.004,0.0348 -0.0062,0.0522 0.03818,-0.0587 0.07346,-0.11874 0.10387,-0.1819 0.9133,-1.897024 1.217184,-3.10004 1.888774,-5.162477 0.417234,-1.443607 0.86927,-2.8779 1.252122,-4.331002 0.24978,-0.948063 0.440563,-1.91071 0.644922,-2.869592 1.220888,-5.728816 2.127829,-11.513251 3.002917,-17.303853 2.245937,-14.015664 4.465153,-28.03802 7.056932,-41.994854 0.284039,-1.486797 0.560057,-2.976436 0.836126,-4.466393 -0.01664,0.007 -0.02742,0.01247 -0.04444,0.01964 -0.418013,-0.148951 -0.629544,-0.227926 -0.845944,-0.306441 -3.576805,-0.05669 -7.154545,-0.06005 -10.729577,0.09353 -0.617492,0.06303 -1.14908,0.118865 -1.66915,0.172599 0.08945,0.189091 0.179951,0.380396 0.265102,0.548287 0.08624,0.17005 0.44301,0.593171 0.275952,0.501263 -0.314195,-0.172855 -0.87498,-0.761839 -1.11828,-0.991672 -0.02257,0.0023 -0.04366,0.0039 -0.06615,0.0062 1.211559,1.808737 1.663433,1.407923 1.775087,1.197343 -0.08775,0.288859 -0.339817,1.596216 -0.395324,6.083867 -1.568043,0.671544 -3.059586,1.561258 -4.704107,2.014347 -0.467426,0.128783 -0.95065,-0.195401 -1.416968,-0.328145 -1.458407,-0.415171 -2.900521,-1.427615 -4.294312,-1.999363 -3.004386,-1.485845 -5.984999,-3.021706 -8.912116,-4.655011 0.103799,0.114914 0.163965,0.186182 0.32091,0.35605 0.03482,0.03768 0.0717,0.07329 0.107487,0.110069 -0.0024,0.0013 -0.0046,0.0019 -0.0067,0.0036 0.02262,0.01881 0.04476,0.03828 0.06718,0.05736 -0.02014,-0.02019 -0.04004,-0.04054 -0.05995,-0.06098 0.07246,-0.04384 0.14832,0.120255 0.22221,0.206189 -0.05385,-0.04869 -0.107029,-0.0982 -0.162264,-0.145211 0.02564,0.02572 0.04996,0.05268 0.07596,0.07803 0.03422,0.03337 0.143952,0.126151 0.108522,0.09405 -0.0063,-0.0056 -0.01281,-0.01553 -0.01913,-0.02326 0.164444,0.148674 0.324557,0.302085 0.473872,0.468706 -2.106907,2.22159 -4.09624,4.561719 -6.29574,6.69003 2.388574,3.458405 4.855665,6.870006 7.69307,9.973035 0.698371,0.763748 2.156672,2.119079 2.843755,2.771923 2.58984,1.9065 -0.525613,-0.530982 2.655134,2.684592 0.352374,0.356232 0.912664,0.49354 1.202512,0.902271 0.479603,0.676315 0.581949,1.568019 1.039728,2.259293 1.421675,2.146811 1.15284,-0.561951 0.966867,2.538863 0.308824,0.264046 0.487347,0.307424 -0.16588,0.679029 0.08332,0.30662 -0.380405,0.580737 -0.57516,0.182417 -3.35734,0.705861 -0.101817,0.461915 -2.587439,-0.525031 -0.699194,-0.277352 -1.516327,-0.146447 -2.218468,-0.416513 -0.464505,-0.178662 -0.755857,-0.65995 -1.194245,-0.895553 -4.261022,-2.290078 -0.378084,0.429945 -3.641637,-2.010212 -0.782662,-0.593738 -1.604225,-1.139714 -2.348177,-1.781289 -1.042139,-0.898726 -3.58326,-3.89927 -4.103624,-4.540289 -1.023657,-1.261015 -4.837187,-6.510703 -5.347994,-7.230568 -0.712946,-1.004724 -1.38701,-2.036342 -2.080496,-3.054594 -0.930642,-1.389099 -1.852742,-2.78394 -2.792076,-4.167187 -0.490109,-0.721728 -1.013657,-1.420754 -1.496033,-2.147673 -0.693292,-1.044755 -1.317782,-2.13509 -2.030367,-3.166732 0.0014,0.02238 0.0014,0.0448 0.0031,0.06718 0.121669,1.579925 0.390013,3.14792 0.470772,4.730459 0.04521,0.885865 0.0169,2.683928 -0.03927,4.630209 0.03894,0.448881 0.07791,0.897731 0.116789,1.346689 -0.02303,2.901807 -0.02529,-0.566841 0.105937,3.210655 0.03803,1.094761 0.02258,2.190785 0.03721,3.286107 0.006,0.451186 0.0292,0.902964 0.0026,1.353404 -0.04903,0.828892 -0.125334,1.655903 -0.200505,2.483054 0.02354,-0.02996 0.05004,-0.05747 0.07183,-0.08888 0.116039,-0.167246 0.102645,-0.394203 0.153995,-0.59118 0.249617,-0.186817 0.536517,-0.331811 0.748792,-0.56017 0.100973,-0.108625 0.02387,-0.354105 0.158646,-0.415997 1.603762,-0.736377 1.053659,0.361755 1.442289,-0.745175 1.242256,-0.292753 0.944221,0.07435 1.295011,-0.574125 0.108897,-0.201297 0.253455,-0.285858 0.376206,-0.28422 0.204584,0.0027 0.348535,0.244192 0.165364,0.578776 -0.313676,0.572971 -0.208936,0.187124 0.486275,1.095542 -0.367876,1.047363 -0.209171,0.138625 0.597898,1.626774 0.03351,0.06181 -0.105315,0.130106 -0.07907,0.195337 0.08322,0.206766 0.318855,0.335814 0.379304,0.550354 0.03824,0.135713 -0.07264,0.27254 -0.109037,0.40876 0.156147,0.284599 0.312558,0.569095 0.468707,0.853694 -0.258329,1.420802 -0.09247,-0.09257 0.170532,1.685685 0.02543,0.17195 -0.08383,0.342656 -0.07493,0.516249 0.01495,0.291161 0.132977,0.570696 0.14573,0.861963 0.01027,0.234481 -0.05127,0.466923 -0.077,0.700214 0.02803,0.373153 0.0562,0.746159 0.08423,1.119312 -0.154731,1.390351 -0.03258,0.0027 -0.05633,1.796791 -0.0036,0.272251 -0.0517,0.542673 -0.04857,0.814937 0.0047,0.422524 0.06523,0.843566 0.07183,1.266071 0.005,0.320263 -0.02474,0.640094 -0.03721,0.96015 l 0.05168,1.449006 c -0.0741,1.490485 -0.04366,0.663363 -0.07597,2.482535 -0.06694,1.566154 -0.280421,3.129809 -0.263551,4.701006 -0.119994,2.958928 -0.183367,5.919737 -0.337963,8.877493 -0.02432,2.607828 -0.113197,5.267719 -0.923457,7.770587 -0.03962,1.597692 0.01762,1.390373 -0.327112,3.257683 -0.03482,0.188632 -0.09686,0.372567 -0.172601,0.548801 -0.03454,0.08038 -0.141372,0.125892 -0.154511,0.212392 -0.106,0.69774 0.170516,1.424654 -0.04806,2.116666 -0.03849,0.428107 -0.05979,0.857642 -0.0987,1.285709 -0.0045,0.04928 -0.0061,0.102121 -0.03049,0.145211 -0.01968,0.03484 -0.102254,0.03578 -0.09405,0.07493 0.086,0.408443 0.241578,0.798814 0.362252,1.198377 l 0.349332,2.143538 c -7.9e-5,1.777238 2.14e-4,3.554239 5.29e-4,5.331469 -7.9e-5,1.91314 -0.0024,3.82653 0,5.73969 0.0046,1.66962 0.0043,3.33896 -0.01654,5.00848 0.0053,2.11282 0.229682,4.23233 -0.134361,6.33191 -0.129125,0.551 -0.247875,1.07755 -0.401526,1.62678 -0.007,0.0251 -0.03349,0.0894 -0.04289,0.0651 -0.04083,-0.10529 -0.05082,-0.44526 -0.06098,-0.33279 -0.270015,2.98872 0.448255,-0.52648 -0.593246,3.57032 -0.15616,0.18243 0.04349,-0.022 -0.05788,-0.27543 -0.07405,-0.18514 -0.04462,0.11622 -0.03824,0.32091 0.06328,0.14936 0.12191,0.30024 0.166397,0.4563 0.213005,0.74715 0.335558,1.51854 0.444934,2.28771 0.03892,0.27364 -0.0013,0.553 -0.0016,0.82941 -5.29e-4,0.91572 7.94e-4,1.83143 0.0088,2.74712 0.01627,1.86955 -0.01347,3.74009 -0.47594,5.56555 -0.180441,0.85744 -0.329224,1.84775 -0.60203,2.67012 -0.107622,0.32443 -0.261335,0.63174 -0.378273,0.95292 -0.334457,0.91867 0.145707,-0.12888 -0.340547,0.86351 -0.1918,1.19324 0.0392,-0.1176 -0.324011,1.44022 -0.05421,0.23251 -0.06827,0.4739 -0.134359,0.70332 -0.106801,0.37077 -0.262274,0.72595 -0.382922,1.09244 -0.05916,0.17971 -0.07306,0.37569 -0.156063,0.5457 -0.09939,0.20361 -0.256409,0.37377 -0.384473,0.56069 -0.232376,1.21507 0.08507,-0.22152 -0.464571,1.36736 -0.09728,0.28123 -0.09503,0.59575 -0.222725,0.86454 -0.595448,1.25335 -0.570072,1.49266 -1.475362,1.89705 -0.01906,0.0339 -0.02768,0.0493 -0.04547,0.0811 0.480391,0.005 0.978574,0.0139 1.236617,0.0155 0.462241,0.0804 0.919101,0.20662 1.386995,0.24132 0.307477,0.0228 0.614366,-0.0571 0.922424,-0.0698 0.212291,-0.008 0.425054,0.0176 0.637171,0.006 0.493551,-0.0286 0.984107,-0.0959 1.477428,-0.12816 3.498244,-0.22851 -1.512493,0.1934 2.535764,-0.1664 1.298562,-0.048 2.587852,-0.12851 3.886583,-0.18551 0.187212,-0.0102 0.375532,-0.0157 0.564309,-0.016 1.321364,-0.002 2.664756,0.25291 3.800285,0.9524 0.399872,0.24633 0.758938,0.55321 1.13843,0.82992 2.247842,2.47566 -0.376139,-0.48358 -0.679545,-0.4129 -1.938541,0.45207 -3.62889,1.60114 -5.402771,2.53577 7.363884,-0.0636 7.056626,-1.67105 7.42332,1.52807 -0.711086,0.0238 -1.422117,0.0476 -2.133203,0.0713 -2.209406,0.2026 -4.424752,0.33983 -6.636287,0.51987 0.380322,3.18028 0.05765,1.40916 7.634676,1.26297 0.532323,-0.28878 1.072671,-0.55732 1.631942,-0.77876 0.246163,-0.0975 0.06579,0.77115 -0.198956,0.76894 -0.510238,-0.004 -0.980892,0.001 -1.432986,0.0103 -1.693593,0.91876 -3.298722,2.0538 -5.106665,2.64531 0.169365,0.0174 0.336074,0.0333 0.603062,0.0708 0.467503,0.0659 -0.217643,0.0151 -0.764293,-0.0181 -0.153673,0.0471 -0.308719,0.0912 -0.465604,0.12971 -0.03331,0.008 -0.117715,-0.0439 -0.22376,-0.12247 -0.694772,-0.0203 -1.389912,-0.0348 -2.080493,-0.11059 -0.242917,-0.0267 -0.480912,-0.0931 -0.724504,-0.11265 -0.210039,-0.0167 -0.421293,0.003 -0.632002,0.004 -2.662552,-0.14631 -5.372288,0.18265 -7.984526,-0.52296 -1.611082,-0.50381 -0.108417,-0.14854 -2.15129,-0.19224 -0.638789,-0.0136 -1.272841,-0.11774 -1.910994,-0.14934 -0.06118,-0.003 -0.122676,-0.002 -0.183968,-0.002 V 173.7802 H 179.81021 V 16.95297 Z m -57.75978,13.230199 c 5.3e-4,-0.0019 0.002,-0.0038 0.002,-0.0057 -10e-4,0.0011 -0.003,0.0024 -0.004,0.0036 5.3e-4,5.3e-4 5.3e-4,0.0013 0.002,0.0021 z m -0.002,-0.0021 c -0.24472,-0.226095 -0.49022,-0.427527 -0.72657,-0.568439 -0.13744,0.452308 -0.32014,1.008991 -0.58498,1.677932 0.43722,-0.369787 0.87434,-0.739706 1.31155,-1.109493 z M 107.3346,29.61263 c 0.0206,-0.06794 0.0381,-0.127704 0.0568,-0.190688 -0.0555,0.04349 -0.11091,0.08718 -0.16639,0.130741 0.0362,0.01902 0.0728,0.03799 0.10955,0.05995 z m -0.10955,-0.05995 c -0.14687,-0.07709 -0.2888,-0.128791 -0.42323,-0.148828 -0.0168,0.174006 -0.0331,0.352682 -0.0506,0.519348 0.15729,-0.124367 0.31617,-0.246692 0.47388,-0.37052 z m -0.42323,-0.148828 c 0.0203,-0.210407 0.0407,-0.421476 0.0599,-0.642855 -0.37695,0.397912 -1.02073,0.996047 -1.92288,1.946134 0.18887,-0.139721 0.49246,-0.180324 0.87075,-0.03514 0.0402,-0.03214 0.0802,-0.06451 0.1204,-0.09663 -0.14922,-0.231582 -0.23881,-0.618926 0.38603,-1.067636 0.14377,-0.103246 0.30842,-0.130297 0.48576,-0.10387 z m 0.0599,-0.642855 c 0.14148,-0.149342 0.247,-0.273225 0.31471,-0.377238 -0.0924,-0.02826 -0.18464,-0.05681 -0.27698,-0.08526 -0.0125,0.155028 -0.0247,0.312616 -0.0377,0.462503 z m -2.04948,2.07791 c -0.24404,0.259257 -0.50659,0.544624 -0.78703,0.857829 0.0719,0.08041 0.1397,0.158211 0.21238,0.238229 0.19565,-0.158279 0.3922,-0.315381 0.58808,-0.473356 -0.13514,-0.219093 -0.12941,-0.450635 -0.0134,-0.622702 z m -1.43558,1.60197 c -0.1651,0.191588 -0.33436,0.392189 -0.51004,0.60203 0.17934,-0.145386 0.35914,-0.290237 0.53847,-0.435633 -0.0135,-0.05116 -0.0233,-0.105619 -0.0284,-0.166397 z m -49.139632,0.150379 -0.0072,0.239778 c 0.442987,0.440346 1.669045,1.844871 1.329118,1.320848 -0.371276,-0.572331 -0.855178,-1.059503 -1.321884,-1.560626 z m 52.104832,0.331245 c -0.0472,0.271092 -0.0951,0.526809 -0.14315,0.766879 0.0706,0.004 0.11695,-0.02905 0.12661,-0.118856 0.0287,-0.266655 0.0301,-0.471493 0.0165,-0.648023 z m 49.53082,1.636075 c -0.0102,0.0037 -0.0208,0.0084 -0.031,0.01188 -0.0531,0.01823 -0.14383,0.160835 -0.0915,0.141076 0.0612,-0.02302 0.0816,-0.101883 0.12247,-0.152963 z m -54.561,1.181325 c -0.037,-0.0099 0.0545,0.05417 0.0816,0.08113 0.0175,-0.01484 0.0352,-0.0296 0.0527,-0.04444 -0.0448,-0.01204 -0.0895,-0.02466 -0.13435,-0.03669 z M 60.618523,102.36895 c -0.03377,-5.3e-4 -0.122099,0.0514 -0.26045,0.108 0.05847,0.0479 0.117099,0.0957 0.157612,0.15761 0.03742,0.0572 -0.03672,0.17421 0.02479,0.20361 0.08125,0.0387 0.220146,0.0127 0.261482,-0.0672 0.0324,-0.0627 -0.09955,-0.0999 -0.149344,-0.14986 -0.0024,-0.18699 0.0054,-0.25166 -0.0341,-0.25218 z m -41.764377,13.95211 v 1.18546 c 0.019,-0.0748 0.04013,-0.14982 0.05736,-0.22428 -0.02313,-0.31954 -0.04175,-0.64021 -0.05736,-0.96118 z m 8.151957,7.2316 c 0.101698,0.23641 0.219048,0.46714 0.328663,0.70073 -0.0027,-0.0224 -0.0038,-0.0452 -0.0078,-0.0672 -0.106897,-0.21104 -0.214011,-0.42249 -0.32091,-0.63355 z m -7.904944,21.89324 c -0.09261,0.0293 -0.15931,0.0549 -0.247013,0.0837 v 0.87902 c 0.08104,-0.32131 0.162227,-0.64263 0.247013,-0.96273 z m 0.473873,0.71158 c -0.04284,0.0173 -0.140493,0.1277 -0.16123,0.18552 -0.0598,0.16672 -0.115706,0.33493 -0.173633,0.5023 0.07889,0.0566 0.158485,0.11322 0.241846,0.14262 0.03778,-0.27042 0.07676,-0.54067 0.112654,-0.81131 0.0027,-0.0203 -0.0054,-0.0249 -0.01964,-0.0191 z m -0.37207,2.71767 c -0.09547,0.21659 -0.191342,0.43297 -0.286804,0.64957 -0.0085,0.10354 -0.009,0.20801 -0.0067,0.31264 0.04299,-0.002 0.08604,-0.004 0.128674,-0.01 0.0026,-2.7e-4 0.0051,-0.001 0.0078,-0.002 0.05275,-0.31673 0.107091,-0.6332 0.157096,-0.95033 z m 13.907679,8.98084 c 0.0105,0.012 0.189823,0.19339 0.642855,0.65733 0.04794,0.0295 0.08118,0.0488 0.124024,0.0749 -0.400968,-0.37057 -0.783032,-0.75068 -0.766879,-0.73226 z" />
    </clipPath>
    <clipPath
       clipPathUnits="userSpaceOnUse"
       id="clipPath2113">
      <path
         id="path2115"
         style="fill:#ff0000;fill-opacity:1;fill-rule:nonzero;stroke:none;stroke-width:0.264583"
         d="m 163.45565,14.648718 c 0.11879,0.413224 0.21105,0.741239 0.22118,0.775147 0.0779,1.58014 0.44195,3.126081 0.59479,4.69687 0.065,0.668581 0.0124,1.344675 0.0713,2.013831 0.33356,3.792603 0.35143,1.855098 0.56792,5.021399 0.10386,1.518886 0.16693,3.040317 0.25063,4.560446 0.19681,5.264423 -0.0104,10.531301 -0.12557,15.794384 -0.0156,0.703527 0.0902,1.415585 -0.0176,2.110984 -0.18221,1.175737 -0.56468,2.311685 -0.84698,3.467486 -1.01056,5.596718 0.45241,-1.77636 -1.49758,5.210535 -0.19161,0.686567 -0.0629,1.451218 -0.32763,2.11305 -0.49738,1.243618 -1.39547,2.296183 -1.92753,3.525366 -1.94167,4.485704 1.05687,0.803749 -2.87011,4.689121 -0.62738,0.927502 -0.57097,1.414766 -1.72186,1.410766 -0.1928,-7.94e-4 -0.35347,-0.153914 -0.5302,-0.230995 -0.27351,-0.119282 -0.002,-0.306363 0.23875,-0.407725 0.13122,-0.475107 0.81241,-1.2924 0.83405,-1.323435 0.003,-0.839373 0.005,-1.678819 0.008,-2.518193 0.22275,-0.808522 0.60717,-1.588747 0.66817,-2.425174 0.0869,-1.191665 -0.25228,-2.382414 -0.23047,-3.577042 0.0133,-0.729184 0.29918,-1.43374 0.33537,-2.162144 0.024,-0.482007 0.0389,-0.870524 0.0501,-1.220597 -0.0371,-0.11911 -0.0727,-0.230195 -0.11317,-0.369485 -0.16921,-0.581821 0.10308,-1.229881 -0.0444,-1.81746 -1.29044,-5.126262 -1.08609,-0.530048 -1.07539,-4.362527 -0.20416,-1.160825 -0.3302,-1.793491 -0.40772,-2.164207 -0.26643,0.279247 -0.54208,0.552786 -0.73743,0.881081 -1.36486,2.293912 1.62583,-0.07524 -2.02313,2.150775 0.84639,0.07349 -1.15739,1.413801 -0.95343,0.993222 0.15616,-0.322014 -0.3372,0.442917 -0.3514,0.08526 -0.0307,-0.774226 -0.48166,-0.796589 0.16433,-1.550291 -0.41258,-0.959639 -0.63077,-1.419067 -0.74362,-1.640727 0.16119,0.237924 0.44849,0.467601 0.35966,-0.909505 -0.0427,-0.661866 -0.43438,-1.272238 -0.46508,-1.934765 -0.0229,-0.493231 0.34219,-0.956435 0.30799,-1.44901 -0.32418,-4.666792 -0.86392,-0.312052 -0.36432,-3.395657 -0.48924,-4.173439 -0.25885,-0.591 -0.0104,-4.525306 0.003,-0.05335 0.003,-0.10682 0.006,-0.160197 -0.11734,-0.02241 -0.2346,-0.04475 -0.35192,-0.06718 -0.017,-1.115603 0.10722,0.106032 -1.69602,-1.414902 -0.0877,-0.07393 0.0782,-0.227161 0.0553,-0.339513 -0.094,-0.46118 -0.20308,-1.780948 -0.40101,-1.353923 -0.18748,0.404489 -0.31047,0.771757 -0.38654,1.116211 -0.0108,-0.03582 -0.0225,-0.07167 -0.0336,-0.107487 -0.0228,0.184803 -0.0378,0.360862 -0.032,0.492476 0.0149,-0.124338 0.0374,-0.252039 0.0662,-0.382923 0.0535,0.177273 0.10353,0.354669 0.14469,0.531752 -0.14649,0.158292 -0.20228,0.05839 -0.21135,-0.148829 -0.0216,0.179324 -0.029,0.352732 -0.0248,0.521415 0.15722,0.379222 0.52575,1.140489 1.24489,3.564125 -0.58157,-1.384697 -1.21521,-2.362314 -1.24489,-3.564125 -0.14764,-0.356182 -0.10764,-0.389268 0.0465,-1.049031 -0.15209,-0.487711 -0.32299,-0.974756 -0.41909,-1.457274 -0.1553,-0.77973 -0.23021,-1.573536 -0.33125,-2.362132 -0.0344,-0.268639 0.15505,1.13628 0.31781,0.747758 -0.19513,-0.499012 -0.43366,-0.98307 -0.58498,-1.497066 -0.54405,-1.848008 -0.77645,-3.596502 -0.78444,-5.509741 -10e-4,-0.345246 -0.008,-0.693423 0.0109,-1.038696 -0.51749,-0.0124 -1.05052,-0.05269 -1.62575,-0.129191 -1.0269,-0.136576 -1.31546,-0.410683 -0.62063,0.07028 -0.2494,0.05717 -0.49393,0.143596 -0.74827,0.171565 -3.68675,0.405423 -7.33593,0.24788 -11.03447,0.19017 -1.30955,-0.02044 -2.61931,-0.02405 -3.92896,-0.03617 -0.93722,-0.0024 -1.87443,0.02201 -2.8112,-0.0072 -0.49413,-0.01543 -0.98804,-0.03628 -1.48208,-0.05426 0.14169,0.30471 0.27657,0.591237 0.44338,0.963248 0.12873,0.287034 -0.62499,-0.07953 -0.93947,-0.08733 -0.59159,-0.01471 -1.5125,-0.510691 -1.77509,0.01964 -0.51334,1.036766 2.05425,1.201314 2.32544,1.240235 0.10259,0.07487 0.22089,0.132322 0.30799,0.224792 0.0215,0.02283 -0.0836,-0.02748 -0.094,0.0021 -0.0269,0.07458 0.0666,0.184432 0.008,0.237712 -0.11819,0.107461 -1.01756,0.247587 -1.2392,0.340547 -1.59288,0.404359 -3.15145,0.942135 -4.78472,1.180289 -2.3206,0.466045 -4.6872,0.613979 -7.01766,1.02888 -2.66659,0.470744 -5.32786,0.984028 -8.0238,1.26297 -2.52906,0.37106 -5.051995,1.023824 -7.620726,0.991156 0.06779,-0.05266 0.287647,-0.175612 0.203607,-0.158131 -0.349829,0.07277 -0.67184,0.250449 -1.020611,0.328144 -1.258787,0.280443 -2.377509,0.424159 -3.638021,0.369488 -0.888759,0.0172 -1.777495,-0.0069 -2.665987,0.01707 -1.398257,0.06703 -2.795545,0.04122 -4.189407,-0.09147 -2.330339,-0.234021 -4.652576,-0.544025 -6.939113,-1.064016 -2.999597,-0.7238 -6.007661,-1.462479 -9.086266,-1.761652 -7.540027,-0.992068 1.252302,0.126516 -5.066874,-0.576709 -1.227796,-0.136634 -2.449877,-0.323623 -3.67833,-0.454234 -0.968303,-0.102955 -1.942737,-0.137832 -2.910416,-0.246497 -1.655424,-0.185896 -3.300664,-0.457278 -4.956802,-0.636654 -1.3764,-0.149079 -2.759195,-0.232232 -4.138766,-0.3483 -1.806822,-0.268256 -3.613524,-0.536347 -5.420342,-0.804602 -0.860409,-0.07945 -1.724864,-0.123703 -2.581238,-0.238745 -1.206114,-0.162025 -2.397117,-0.42757 -3.602879,-0.592212 -0.733922,-0.100214 -1.48242,-0.07805 -2.212787,-0.201538 -1.801588,-0.304612 -3.548377,-0.890876 -5.36453,-1.127063 -0.01839,-0.0079 -0.118184,-0.04935 -0.14831,-0.06201 0.02893,0.441954 0.05585,0.884148 0.07906,1.326533 0.075,1.430002 0.01355,2.863914 0.02016,4.295862 -0.0019,3.422399 0.0499,6.844753 0.02687,10.267075 -0.05241,7.787608 -0.298971,15.573414 -0.802534,23.345343 -0.270031,3.567978 -0.455827,7.143478 -0.818554,10.703224 -0.169357,1.662063 -0.387011,3.318823 -0.587046,4.977474 -0.123629,1.025139 -0.220696,2.05413 -0.383956,3.073715 -0.251524,1.570797 -0.604915,3.124131 -0.860413,4.694285 -0.184436,1.133449 -0.305787,2.276158 -0.458886,3.414263 -0.404522,1.494861 -0.804018,2.991075 -1.21388,4.484481 -0.168747,0.61486 -0.270408,1.25431 -0.521932,1.840198 -0.249026,0.580068 -0.561089,1.129737 -0.873331,1.679483 0.510801,4.111528 1.189403,8.196518 1.856217,12.298998 0.290696,1.53297 0.581603,3.06571 0.872298,4.59868 0.346333,2.0712 0.647741,4.15033 1.038697,6.21358 0.245777,1.29708 0.654465,2.56151 0.870747,3.86384 0.259278,1.56121 0.288975,3.15523 0.553971,4.71548 0.152773,0.89951 0.641342,1.73613 0.696082,2.64686 0.08146,1.35542 -0.19485,2.70897 -0.292489,4.06332 0.724487,3.89668 0.595156,0.86801 -0.324528,4.26383 -0.287676,1.0622 1.320567,1.44085 -1.604036,1.79937 -3.442373,0.42198 -2.30816,-0.4509 -1.631425,-1.16531 -0.0061,-0.0699 -0.01198,-0.13989 -0.01809,-0.2098 -0.01336,-0.15317 -0.0028,-0.28853 0.02636,-0.40566 -0.06009,0.007 -0.120227,0.0136 -0.179835,0.0258 -0.593552,0.12188 -1.026682,0.64379 -1.539957,0.96583 -0.0025,-0.0946 0.05017,-0.20859 -0.0072,-0.2837 -0.210756,-0.27551 -0.497946,-0.49517 -0.754992,-0.73432 -0.01109,0.43782 -0.02913,0.87505 -0.08165,1.30948 -0.133517,1.10437 -0.39282,2.19013 -0.589112,3.28507 -0.0053,0.42455 0.01368,0.85024 -0.0155,1.27382 -0.04937,0.71651 -0.263501,1.42691 -0.221175,2.14354 4.102409,1.42926 5.539809,4.52263 4.563546,7.0497 1.07152,-0.11202 2.138112,-0.27789 3.212725,-0.3545 0.745559,-0.0532 1.494346,-0.021 2.241722,-0.031 1.342713,-0.018 2.685346,-0.0502 4.028178,-0.0532 0.966335,-0.002 1.933149,0.0674 2.899048,0.0382 0.949722,-0.0287 1.895189,-0.14128 2.84272,-0.21188 2.164797,-0.29078 1.467988,-0.24091 4.288629,-0.33332 0.433689,-0.0143 0.87327,-0.0759 1.305861,-0.061 0.144198,0.005 0.287767,0.0184 0.429948,0.045 1.017675,0.19004 1.97579,0.621 2.97398,0.89555 0.606812,0.16691 1.325547,0.064 1.838648,0.4284 0.776851,0.5517 1.228299,1.45728 1.842265,2.18591 2.637864,0.50901 0.875596,-0.23367 2.837034,2.44533 0.207698,0.28368 0.806969,0.33897 0.79737,0.69041 -0.0172,0.62923 -0.713698,1.25334 -1.174089,1.69963 -0.164428,0.1594 -0.339047,-0.0484 -0.149346,-0.17674 0.07981,-0.054 0.320863,-0.21293 0.239262,-0.16174 -0.248398,0.15591 -0.492855,0.31726 -0.739489,0.47594 -0.03072,-0.0643 -0.03097,-0.22865 -0.0925,-0.19275 -2.077924,1.21366 -0.237434,1.14063 -2.846856,0.63614 -0.945734,0.40378 -1.83561,0.97767 -2.837034,1.2113 -0.377473,0.0881 -0.739712,-0.27209 -1.127064,-0.28629 -0.503389,-0.0184 -0.996628,0.15568 -1.499135,0.19067 -0.425201,0.0298 -0.852527,-0.0121 -1.278474,0.003 -2.060287,0.0751 -2.072259,0.12333 -4.149101,0.3793 -1.211916,0.0709 -2.422406,0.1795 -3.635952,0.2124 -1.128924,0.0306 -5.924267,-0.12847 -6.66161,-0.13746 -0.67849,-0.009 -1.357223,0.0436 -2.035535,0.0258 -0.944113,-0.0247 -1.884336,-0.15548 -2.828768,-0.15348 -0.682584,0.002 -1.360839,0.10953 -2.041219,0.16433 -1.028107,-0.077 -2.056696,-0.15089 -3.084566,-0.23099 -0.625802,-0.0488 -1.263354,-0.0206 -1.876371,-0.15555 -1.018912,-0.22434 -1.99188,-0.62284 -2.993099,-0.91622 -0.342073,-0.10024 -0.691354,-0.17788 -1.03818,-0.26252 v 9.00049 H 175.52313 V 14.648718 Z m -15.35048,18.232479 c -0.0171,0.05696 -0.0807,0.358677 -0.13281,0.687813 0.0394,-0.180723 0.0795,-0.361624 0.12764,-0.633036 0.0111,-0.06263 0.0142,-0.07688 0.005,-0.05478 z M 24.929227,139.54807 c 0.0045,0.0664 0.0042,0.13757 -0.0026,0.21394 -0.0011,0.0132 -0.0024,0.0266 -0.0036,0.0398 0.201821,-0.0358 0.804113,-0.0583 0.605131,-0.10749 -0.196631,-0.0486 -0.397209,-0.0993 -0.59893,-0.14624 z m -8.020182,15.06109 c -0.02547,0.10634 -0.01393,0.20087 0.0677,0.22015 0.13962,0.033 0.278724,0.0182 0.417546,-0.0181 -0.162933,-0.0521 -0.325007,-0.11771 -0.485242,-0.20206 z" />
    </clipPath>
  </defs>
  <sodipodi:namedview
     id="base"
     pagecolor="#ffffff"
     bordercolor="#666666"
     borderopacity="1.0"
     inkscape:pageopacity="0.0"
     inkscape:pageshadow="2"
     inkscape:zoom="0.51004156"
     inkscape:cx="-120.18514"
     inkscape:cy="427.82401"
     inkscape:document-units="mm"
     inkscape:current-layer="layer1"
     inkscape:document-rotation="0"
     showgrid="false"
     units="px"
     inkscape:window-width="1920"
     inkscape:window-height="1001"
     inkscape:window-x="-9"
     inkscape:window-y="-9"
     inkscape:window-maximized="1"
     showguides="false" />
  <metadata
     id="metadata1611">
    <rdf:RDF>
      <cc:Work
         rdf:about="">
        <dc:format>image/svg+xml</dc:format>
        <dc:type
           rdf:resource="http://purl.org/dc/dcmitype/StillImage" />
        <dc:title />
      </cc:Work>
    </rdf:RDF>
  </metadata>
  <g
     inkscape:label="Layer 1"
     inkscape:groupmode="layer"
     id="layer1">
    <path
       id="rect855"
       style="display:inline;fill:#0e9594;fill-opacity:1;stroke:#065c77;stroke-width:2;stroke-linecap:round;stroke-linejoin:round;stroke-miterlimit:4;stroke-dasharray:none;stroke-opacity:1"
       d="M 13.671008,1.0043638 H 174.11598 c 6.72993,0 12.14789,5.417959 12.14789,12.1478912 V 173.59723 c 0,6.72993 -5.41796,12.14789 -12.14789,12.14789 H 13.671008 c -6.7299312,0 -12.1478912,-5.41796 -12.1478912,-12.14789 V 13.152255 c 0,-6.7299322 5.41796,-12.1478912 12.1478912,-12.1478912 z" />
    <path
       id="path876"
       style="fill:#ffffff;fill-opacity:1;stroke-width:6.39905"
       d="M 133.3717,7.7514646 V 33.246548 c 0,2.332022 -7.58787,4.209563 -17.01291,4.209563 H 70.459782 c -9.425041,0 -17.012399,-1.877541 -17.012399,-4.209563 V 7.776786 C 40.739102,9.1921946 31.081308,16.905842 31.081308,26.268679 V 159.26313 c 0,10.37425 11.8551,18.72599 26.581321,18.72599 h 71.715521 c 14.72622,0 26.58132,-8.35174 26.58132,-18.72599 V 26.268679 c 0,-9.417483 -9.76972,-17.1676744 -22.58777,-18.5172144 z M 69.69652,13.783654 c -5.680313,0 -10.25312,2.667135 -10.25312,5.980513 v 4.679302 c 0,3.313377 4.572807,5.981028 10.25312,5.981028 h 46.60336 c 5.68031,0 10.25363,-2.667651 10.25363,-5.981028 v -4.679302 c 0,-3.313378 -4.57332,-5.980513 -10.25363,-5.980513 z M 128.7508,59.51006 c 3.53162,-0.0177 4.41624,1.641719 -0.60462,6.023407 -5.30277,4.6277 -6.14789,18.915998 -14.95878,26.130704 -8.81091,7.214148 -12.48939,5.440805 -16.948315,-0.0047 -4.458919,-5.445435 -0.931269,-15.708442 7.879625,-22.923148 v 5.29e-4 c 5.50682,-4.50919 18.74604,-9.197335 24.63209,-9.226828 z M 48.199643,71.641103 c 7.566199,0.03791 24.58394,6.064446 31.662666,11.860776 v -5.29e-4 c 11.325957,9.27413 15.861331,22.46658 10.129612,29.46641 -5.731732,6.99984 -10.460297,9.28014 -21.786265,0.006 -11.32596,-9.27394 -12.412379,-27.64152 -19.2288,-33.590189 -6.454063,-5.632429 -5.316937,-7.765426 -0.777213,-7.742679 z m 78.298577,24.197489 c 2.87399,-0.01439 3.59395,1.336271 -0.49196,4.902018 -4.31532,3.76596 -5.00271,15.39414 -12.1729,21.26537 -7.1702,5.87076 -10.16382,4.4277 -13.79244,-0.004 -3.628604,-4.43141 -0.757658,-12.78344 6.41253,-18.65467 v 5.3e-4 c 4.48138,-3.669517 15.25479,-7.485096 20.04477,-7.509096 z M 57.222347,134.74112 h 73.266843 c 5.55332,0 10.0242,5.9753 10.0242,13.39711 v 2.94143 c 0,0.48973 -0.021,0.97265 -0.0589,1.44849 -4.72688,-0.24135 -9.46261,-0.33632 -14.19965,-0.0806 -3.41565,0.13024 -6.83165,0.30157 -10.25002,0.37517 -0.55995,-0.57517 -0.62637,-0.6444 -1.81746,-1.91564 -1.3772,-1.58451 -2.70908,-3.19987 -3.64112,-4.97438 -0.22331,-0.44615 -0.54424,-0.7783 -0.91829,-1.01285 -0.22559,-1.92607 -3.94172,-2.74524 -5.22294,-0.47543 -1.20957,2.1435 -2.37134,4.30232 -3.47472,6.47971 -0.14914,0.29249 -0.29412,0.58827 -0.44028,0.88315 -0.10348,-0.31352 -0.0744,-0.2265 -0.22376,-0.67954 -1.260672,-3.74092 -2.5813,-7.48012 -3.447334,-11.33265 -0.118981,-0.70914 -0.412483,-1.24904 -0.803053,-1.63452 -0.378986,-0.83244 -1.449427,-1.35706 -2.544548,-1.36994 -1.013195,-0.0119 -2.047348,0.41402 -2.572451,1.43815 -0.378778,0.74863 -0.693576,1.51566 -1.090374,2.25929 -1.75803,3.42702 -3.640027,6.8145 -5.523693,10.20145 -0.718767,1.33277 -1.377397,2.53398 -2.06034,3.8747 -0.08007,0.15718 -0.159388,0.31561 -0.239263,0.47335 -0.952547,-1.74989 -1.81493,-3.52803 -2.539378,-5.34334 -0.436676,-1.12517 -0.857268,-2.25054 -1.200959,-3.39514 -0.167048,-0.55628 -0.245899,-0.92311 -0.381373,-1.48673 -0.06541,-0.22161 -0.15716,-0.43825 -0.235646,-0.65733 -1.16594,-2.3417 -5.00738,-1.59816 -5.253424,0.37672 -1.548273,2.08219 -0.883902,1.18423 -2.835487,3.83078 -1.937271,2.62675 -3.831304,5.27488 -5.833753,7.8729 -0.993507,-1.05401 -1.91717,-2.14537 -2.921785,-3.19567 -0.478589,-0.45267 -1.027571,-0.70924 -1.580783,-0.81597 -0.408728,-0.64585 -1.269645,-1.13843 -2.583304,-1.13843 h -8.142139 c -0.487794,0 -0.912352,0.0686 -1.275374,0.18707 -7.93e-4,-0.0644 -0.0036,-0.1281 -0.0036,-0.19275 v -2.94143 c 0,-7.42181 4.470877,-13.39711 10.024195,-13.39711 z m 35.620563,11.02981 c 0.712361,2.35579 1.516554,4.68741 2.301668,7.01766 1.264584,3.83579 0.651322,1.95785 1.841233,5.63222 0.821875,2.53779 3.660759,2.45649 4.814179,0.91416 0.0949,-0.0817 0.18825,-0.16863 0.27647,-0.26562 1.70368,-2.04539 2.72796,-4.37826 3.87521,-6.62802 0.4003,-0.7898 0.81049,-1.57663 1.22577,-2.36161 0.77714,1.07203 1.63917,2.10866 2.52336,3.13159 1.70353,1.82447 0.83963,0.91742 2.5895,2.72128 0.62834,0.64749 1.41132,0.92708 2.16835,0.94516 0.29869,0.0708 0.63277,0.11111 1.00355,0.11111 3.68899,-0.0617 7.37387,-0.25386 11.05928,-0.39429 4.36702,-0.23898 8.73262,-0.16064 13.09067,0.0527 -1.5762,4.62649 -5.05827,7.8295 -9.12296,7.8295 H 57.222347 c -4.486013,0 -8.264215,-3.89995 -9.551355,-9.31106 0.247322,0.045 0.514104,0.0718 0.806151,0.0718 h 7.751982 c 0.100208,0.14156 0.222824,0.28305 0.371038,0.42323 1.327854,1.45452 2.591364,2.93769 4.037994,4.32584 0.489554,0.46781 1.054212,0.72753 1.623158,0.83044 1.026256,0.88879 3.001529,1.12295 4.30103,-0.22841 2.69658,-3.2731 5.097563,-6.68685 7.580931,-10.05779 0.04464,0.11619 0.08801,0.23274 0.132811,0.34882 1.159526,2.91642 2.650627,5.74464 4.307747,8.51214 l 0.52193,0.84129 c 0.565841,0.912 1.513152,1.2983 2.445846,1.30432 1.49181,0.65752 3.764962,0.19767 4.07262,-1.65365 0.0402,-0.17314 0.06531,-0.34865 0.120406,-0.51935 0.364459,-1.13033 0.970426,-2.24558 1.521354,-3.32383 0.673328,-1.31781 1.291588,-2.44594 1.999877,-3.75894 1.20563,-2.16595 2.405761,-4.33385 3.577043,-6.51072 z" />
  </g>
</svg>
