<?xml version="1.0" encoding="UTF-8" standalone="no"?>
<svg
   xmlns:dc="http://purl.org/dc/elements/1.1/"
   xmlns:cc="http://creativecommons.org/ns#"
   xmlns:rdf="http://www.w3.org/1999/02/22-rdf-syntax-ns#"
   xmlns:svg="http://www.w3.org/2000/svg"
   xmlns="http://www.w3.org/2000/svg"
   xmlns:sodipodi="http://sodipodi.sourceforge.net/DTD/sodipodi-0.dtd"
   xmlns:inkscape="http://www.inkscape.org/namespaces/inkscape"
   width="700"
   height="700"
   viewBox="0 0 185.20833 185.20834"
   version="1.1"
   id="svg978"
   sodipodi:docname="ic_map.svg"
   inkscape:version="1.0.1 (3bc2e813f5, 2020-09-07)"
   inkscape:export-filename="D:\_Personal(Clark)\Downloads\_cert_talline\jpg\App Abaca\UI\vector\icons\newVectors\ic_map_clicked.png"
   inkscape:export-xdpi="96"
   inkscape:export-ydpi="96">
  <defs
     id="defs972">
    <inkscape:perspective
       sodipodi:type="inkscape:persp3d"
       inkscape:vp_x="0 : 92.60417 : 1"
       inkscape:vp_y="0 : 1000 : 0"
       inkscape:vp_z="185.20833 : 92.60417 : 1"
       inkscape:persp3d-origin="92.604165 : 61.736113 : 1"
       id="perspective855" />
    <clipPath
       clipPathUnits="userSpaceOnUse"
       id="clipPath2051">
      <path
         id="path2053"
         style="fill:#ff0000;fill-opacity:1;fill-rule:nonzero;stroke:none;stroke-width:0.264583"
         d="M 1.2433349,-39.192441 V -154.02264 H 43.325005 c -1.274498,1.42214 -2.4555,2.92509 -3.603398,4.45296 -1.161843,1.08337 -2.330516,2.16011 -3.401343,3.33675 -0.865846,1.11888 -1.524611,1.73551 -2.009179,2.98483 -0.06091,0.15704 -0.0408,0.33383 -0.06253,0.50126 -0.0363,0.0285 -0.07419,0.056 -0.104902,0.0801 -0.0236,0.0256 -0.09224,0.0491 -0.0708,0.0765 1.730365,2.21452 2.051627,3.28647 2.50734,3.00808 0.0013,0.007 0.0038,0.0129 0.0052,0.0196 0.305022,-0.24036 0.645787,-0.47633 0.925007,-0.74001 0.06242,-0.0589 0.120684,-0.12102 0.181385,-0.18138 0.708964,0.2541 1.705576,0.13763 2.827734,-0.6041 0.354217,-0.23413 0.707488,-0.47032 1.061435,-0.70487 0.158096,0.0936 0.369223,-0.0357 0.749823,-0.31419 -0.0038,0.0158 -0.02183,0.0386 -0.01138,0.032 0.08525,-0.0534 0.165841,-0.11366 0.248047,-0.17157 0.09721,0.0548 0.194141,0.10995 0.294037,0.1602 0.170048,0.0855 0.295182,-0.24179 0.429432,-0.37672 0.186325,-0.18728 0.40455,-0.49077 0.569992,-0.71727 0.02119,-0.0153 0.04234,-0.0307 0.06356,-0.046 0.0996,-0.0728 0.197395,-0.14793 0.296624,-0.22118 0.02971,-0.0201 0.06038,-0.0386 0.08992,-0.0589 0.0059,-0.004 0.01119,-0.009 0.01704,-0.0129 0.101756,0.10441 0.203917,0.2085 0.306443,0.31213 -0.340799,0.57135 -0.676217,1.14558 -0.991155,1.73219 -0.107829,0.20085 -0.21775,0.40038 -0.325044,0.60151 -0.03166,0.0594 -0.145864,0.13954 -0.09199,0.17984 0.155298,0.1161 0.314532,0.22669 0.471805,0.34003 -1.966293,1.9231 1.753344,-1.09793 -0.865063,0.98702 -0.95087,0.75714 -1.205357,1.59399 -1.020609,2.20245 -0.348528,0.24294 -0.711242,0.46944 -1.008208,0.77049 -1.217279,1.23402 -1.560158,1.85609 -2.346108,3.09542 -0.886092,1.39723 -0.264118,2.4647 0.649571,2.43189 0.246052,-0.009 0.513135,-0.0992 0.777732,-0.28267 -0.399873,0.47915 -0.799285,0.9632 -1.184426,1.45263 -0.0308,0.0335 -0.06282,0.0656 -0.09353,0.0992 -0.08917,0.0975 -0.313386,0.23245 -0.236162,0.32711 -0.05413,0.071 -0.111156,0.14178 -0.16433,0.21291 0.500806,0.30154 0.991579,0.62158 1.485697,0.93534 0.556442,0.44453 1.125444,0.87512 1.674317,1.32809 -0.33447,0.39716 0.453374,-0.53883 0.806667,-0.96481 0.05667,-0.0683 0.113848,-0.13636 0.170535,-0.20463 0.05985,-0.0487 0.121512,-0.0957 0.178281,-0.1478 0.313338,-0.28779 0.609076,-0.59436 0.913641,-0.89142 l 0.234611,-0.21445 c -0.209505,0.30405 -0.412324,0.61186 -0.602549,0.92759 -0.150481,0.20175 -0.300447,0.40371 -0.441833,0.61185 -0.2234,0.3289 -0.438052,0.66402 -0.651639,0.99942 -1.05932,1.01621 -2.133849,2.01641 -3.214791,3.01015 -0.38962,0.32821 -0.777388,0.65797 -1.163235,0.99064 -0.195858,0.16554 -0.397365,0.3246 -0.587563,0.49661 -0.160144,0.14483 -0.307028,0.30441 -0.463021,0.45372 -0.07169,0.0686 -0.31932,0.20299 -0.220141,0.19999 0.124558,-0.004 0.245192,-0.19221 0.3483,-0.22273 -0.117695,0.10842 -0.235929,0.21649 -0.353467,0.32505 -0.80081,0.92151 -0.816203,0.91185 0.224792,1.69653 -0.40328,1.11122 0.530582,2.09224 1.995228,1.63246 0.239345,0.21448 0.489625,0.44358 0.762744,0.70435 0.0071,0.007 0.01773,0.01 0.03101,0.01 0.199234,0.002 1.041911,-0.70445 1.098124,-0.74983 0.185624,-0.14993 0.364554,-0.30788 0.546735,-0.46198 0.968844,-0.76966 1.942701,-1.5328 2.918685,-2.29289 0.218835,-0.11194 0.434909,-0.22812 0.639239,-0.36432 0.340802,-0.22716 0.612569,-0.544 0.918805,-0.81597 0.84351,-0.55499 1.687084,-1.11002 2.530597,-1.66501 0.193315,-0.17173 0.387054,-0.3429 0.579808,-0.51522 -0.707938,1.19381 -1.414989,2.38833 -2.147671,3.56619 -1.120055,1.80059 -1.062429,1.38997 -1.968357,3.79874 -0.07514,0.1998 -0.04582,0.42442 -0.06873,0.63665 -0.04875,0.43618 -0.229775,2.03312 -0.211873,2.05931 0.03376,0.0495 0.0717,0.0962 0.106968,0.14469 -0.02019,0.11934 -0.03846,0.23962 -0.05064,0.36225 0.74087,0.98349 1.17911,2.29706 2.222603,2.95073 0.157491,0.0987 0.332187,0.11949 0.514181,0.10232 -0.01741,0.0739 -0.03528,0.14777 -0.05271,0.22169 -0.162841,0.70388 -0.318426,1.40942 -0.48886,2.1115 -0.328211,1.35202 -0.545431,2.2154 -0.916739,3.46232 -0.29318,0.98455 -0.596755,1.92075 -0.823206,2.92075 -0.489046,2.332399 -0.15638,1.57339 3.922241,1.971454 -0.579374,1.003477 -1.064691,2.052362 -1.259872,3.189986 -0.243554,1.773079 -0.469619,2.029733 0.859896,2.116667 -0.0471,0.156731 -0.09525,0.312952 -0.14056,0.470254 -0.204515,0.710121 -0.314388,1.444988 -0.517797,2.155426 -0.07262,0.25364 -0.174384,0.4982 -0.261483,0.747241 -0.103134,0.425538 -0.214365,0.849538 -0.309541,1.276924 -0.01318,0.05932 -0.07533,0.174086 -0.01497,0.181386 7.93e-4,1.03e-4 0.0016,5.29e-4 0.0026,5.29e-4 -0.215919,0.983297 0.107248,1.203528 1.146182,1.135848 -0.0072,0.01013 -0.01439,0.02037 -0.0217,0.03049 -0.117653,0.202155 -0.304951,0.377764 -0.352949,0.606682 -0.0792,0.37769 -0.148643,0.9214 -0.120925,1.470713 -0.05749,0.232404 -0.117489,0.464171 -0.169498,0.698148 -0.07412,0.54116 -0.249248,1.304239 -0.08062,1.853633 0.0096,0.268965 -0.004,0.538787 0.02585,0.806667 -0.0026,1.110644 0.186592,1.238978 1.242817,2.711464 0.06515,0.09082 0.156922,0.152738 0.255799,0.207221 0.004,0.0076 0.0072,0.01566 0.01138,0.02326 0.01302,0.02387 0.03096,0.0462 0.04651,0.06924 -1.158381,1.287391 -2.268482,2.620402 -3.399277,3.927409 -1.704785,2.0642 -2.183498,2.566781 -3.465936,4.279326 -0.580358,0.774994 -1.203693,1.523764 -1.701189,2.354379 -0.295709,0.493712 -1.101931,1.007234 -0.829408,1.51412 0.365567,0.679929 0.970659,1.169871 1.612824,1.630392 -0.02561,0.261556 -0.02884,0.467281 0.0067,0.51108 0.275426,0.338891 0.601091,0.641072 0.957564,0.906404 -1.00656,1.198647 -2.0111,2.403716 -3.080948,3.546552 -0.3794,0.31555 -0.75596,0.634246 -1.11673,0.969967 -0.277476,0.258215 -0.926587,0.429821 -0.815454,0.7922 0.387504,1.263547 1.159981,2.364846 1.864487,3.494876 -0.116004,0.08922 -0.232751,0.177295 -0.345199,0.27337 -1.988248,1.698765 -1.359895,3.613126 0.250629,3.575492 0.536845,-0.01254 1.18273,-0.241827 1.877407,-0.768429 0.255492,-0.193678 0.484298,-0.428946 0.76636,-0.581359 0.285266,-0.154149 0.610182,-0.219556 0.915707,-0.328147 1.018688,-0.362061 0.225724,-0.102518 1.640726,-0.413927 0.285346,-0.0628 0.774171,-0.19639 1.233517,-0.326078 -0.01646,0.109376 -0.0296,0.21935 -0.03462,0.330729 0.05895,-0.08868 0.135588,-0.230629 0.214974,-0.382407 0.130212,-0.0371 0.214365,-0.06129 0.31936,-0.09147 -0.202049,0.567778 -0.624269,1.118513 -0.644404,1.6676 -0.09816,-0.0074 -0.129423,-0.01267 -0.255283,-0.02016 -2.164852,-0.12877 -3.332014,0.874789 -3.445266,1.96474 -1.5528,0.0036 -2.076906,1.881344 -0.172601,2.606043 -0.800809,0.395695 -0.765456,1.577546 0.670245,2.16059 0.751387,0.305141 1.826231,0.764691 2.557465,0.916739 0.37029,0.077 0.756047,0.0131 1.133782,0.03204 0.462706,0.0232 0.923708,0.09577 1.386996,0.09457 0.287729,-7.93e-4 0.571878,-0.06448 0.857311,-0.100769 0.162054,-0.02061 0.323842,-0.04276 0.485759,-0.06408 0.07446,0.0439 0.164436,0.08096 0.274918,0.10542 1.539925,0.34098 3.112066,0.438299 4.683953,0.425297 0.523957,-0.0043 1.047776,-0.02103 1.570445,-0.04496 0.225883,-0.01035 0.449845,-0.05388 0.675928,-0.05788 0.679969,-0.01199 1.36012,0.0065 2.040187,0.0098 0.905793,2.4e-5 1.012978,-3.1e-5 1.270206,5.3e-4 v 6.083847 z M 43.503289,-58.35096 c 0.435372,-0.368847 0.82912,-0.701008 0.987018,-0.839742 0.0636,0.09829 0.12605,0.197958 0.191203,0.294555 -0.04983,0.04111 -0.09672,0.0848 -0.145211,0.127125 -0.238239,0.119044 -0.476549,0.2379 -0.725538,0.331245 -0.09987,0.03745 -0.203337,0.06325 -0.307472,0.08682 z m 1.178221,-0.545187 c 0.133967,-0.110532 0.269711,-0.219633 0.406178,-0.327628 0.01614,0.061 0.03245,0.121936 0.04857,0.182936 -0.09351,0.03876 -0.187775,0.07553 -0.28112,0.11472 -0.04865,0.02275 -0.0964,0.04771 -0.144692,0.07131 -0.0096,-0.01392 -0.01947,-0.02733 -0.02894,-0.04134 z m 4.090707,-21.62607 c -0.122637,-0.161227 -0.2444,-0.325652 -0.32246,-0.511596 -0.103886,-0.247454 -0.331428,-1.01283 -0.197406,-0.780315 0.231735,0.402035 0.33873,0.864685 0.519866,1.291911 z m -4.071585,-21.148063 c -0.0088,-0.007 0.02233,-0.14709 0.06253,-0.13694 0.0057,0.001 0.01035,0.003 0.01601,0.004 -0.03321,0.0579 -0.03506,0.0633 -0.07183,0.12712 -0.003,0.005 -0.0054,0.007 -0.0067,0.006 z m -3.958416,-30.50253 c 0.132951,-0.25888 0.252066,-0.5298 0.470771,-0.71365 0.105468,-0.0887 0.218054,-0.16716 0.333314,-0.24185 -0.2642,0.31465 -0.530333,0.62778 -0.79375,0.9431 -0.0034,0.004 -0.0069,0.008 -0.01034,0.0124 z" />
    </clipPath>
    <clipPath
       clipPathUnits="userSpaceOnUse"
       id="clipPath2068">
      <path
         id="path2070"
         style="fill:#ff0000;fill-opacity:1;fill-rule:nonzero;stroke:none;stroke-width:0.264583"
         d="m 126.32083,-39.76871 v -5.66787 c 0.19558,-0.02701 0.39045,-0.06153 0.58757,-0.07028 0.36152,-0.01603 0.72383,0.0028 1.08572,0.0041 1.44151,0.02082 2.88208,-0.03704 4.3217,-0.101804 0.30435,-0.01368 0.6088,-0.02098 0.9126,-0.04392 0.47334,-0.03575 0.94536,-0.08822 1.418,-0.132292 0.31701,-0.03663 0.63485,-0.06932 0.95137,-0.110072 0.46652,-0.06006 2.50197,-0.33741 3.11815,-0.43253 0.28465,-0.04394 1.81318,-0.291312 2.30942,-0.394293 0.34143,-0.07086 0.68013,-0.155472 1.02009,-0.233061 1.00711,-0.262509 0.24534,-0.05581 1.47278,-0.418062 0.19107,-0.05639 0.38646,-0.100005 0.57464,-0.165365 0.30885,-0.107262 0.60511,-0.248764 0.91519,-0.352433 1.38991,-0.464669 0.0121,0.111347 1.15859,-0.393256 0.34697,-0.0089 0.48483,-0.393729 0.11524,-0.573608 -0.0125,-0.0061 -0.0261,-0.0054 -0.0393,-0.0072 -0.001,-0.0036 -0.001,-0.0072 -0.004,-0.01085 -0.0405,-0.05687 -0.13676,0.02867 -0.20516,0.04289 -0.0357,0.0024 -0.0315,0.0016 -0.063,0.0036 -0.0693,-0.007 -0.13614,-0.03376 -0.20413,-0.05013 -0.11797,0.0043 -0.23549,0.0086 -0.35346,0.01291 -0.0748,-0.01199 -0.14999,-0.02365 -0.2248,-0.03565 -0.039,-0.0063 -0.046,0.03349 -0.006,0.03979 0.0745,0.01193 0.14975,0.02373 0.22427,0.03566 0.0252,0.01101 0.05,0.02151 0.0749,0.03307 -0.0215,0.01143 -0.0277,0.04219 -0.67076,0.174151 -0.0203,0.0042 -0.0411,0.0065 -0.0615,0.01034 0.0395,-0.06915 0.0764,-0.140229 0.11679,-0.208772 0.1056,-0.278559 0.0893,-0.132789 0.0398,-0.441833 -0.009,-0.05406 0.0112,-0.122425 -0.0264,-0.162266 -0.0914,-0.09695 -0.22152,-0.147955 -0.33383,-0.219623 -0.0495,-0.03157 -0.0928,-0.08652 -0.15142,-0.08992 -0.20621,-0.01193 -0.41205,0.02986 -0.61805,0.04496 -0.30466,-0.101409 -0.55558,-0.09874 -0.86041,-0.04237 -0.0378,0.0069 -0.03,0.04518 0.007,0.03773 0.28191,-0.05658 0.53008,0.179141 0.82011,0.143142 0.1141,0.08538 0.22666,0.17277 0.3421,0.256315 -0.007,0.0072 -0.0149,0.01529 -0.0233,0.02016 -0.0607,0.03535 -0.12158,0.07014 -0.18448,0.101288 -0.10871,0.0538 -0.55889,0.244835 -0.60669,0.264583 -0.10756,0.04447 -0.2163,0.08581 -0.32452,0.128673 -0.46929,0.183777 -0.93291,0.372353 -1.41697,0.515731 -0.84392,0.249967 -1.716,0.399616 -2.57711,0.574124 -1.04389,0.202901 -2.20757,0.479219 -3.27318,0.560692 -0.2595,0.01984 -0.52058,1.22e-4 -0.78083,0 -0.21187,-9.5e-5 -0.20991,-5.29e-4 -0.3452,-5.29e-4 0.63676,-0.209473 0.51174,-0.136649 1.02423,-0.409795 0.14895,-0.07939 0.29757,-0.1598 0.44648,-0.23926 0.0524,-0.02797 0.20661,-0.0496 0.15762,-0.0832 -0.0149,-0.01021 -0.0324,-0.01349 -0.0491,-0.0186 0.0683,0.01714 0.13319,0.03024 0.13384,-0.02119 1.1e-4,-0.0091 0.001,-0.01926 0.002,-0.02842 1.04912,0.129071 1.27755,-2.437488 0.6382,-3.680394 -0.017,-0.433592 -0.19151,-0.692986 -0.67385,-0.628386 -0.0612,-0.01587 -0.1245,-0.02705 -0.19121,-0.02739 -0.12001,-0.0029 -0.238,0.0036 -0.35502,0.0155 -0.17731,-0.03246 -0.32699,-0.0575 -0.47645,-0.06253 -0.20795,-0.710737 -0.60258,-1.785879 -0.75913,-2.21537 0.19448,-0.116474 0.37516,-0.251727 0.53123,-0.419613 0.53014,-0.570272 0.44664,-1.991418 0.45734,-2.814299 0.008,-0.621874 0.0686,-2.721208 0.0114,-3.442684 -0.0719,-0.907389 -0.21049,-1.808369 -0.31574,-2.712495 -0.1152,-0.588634 -0.18563,-1.187744 -0.34572,-1.765784 -0.41013,-1.480923 -0.60446,-2.154949 -0.6966,-2.428275 0.0326,-0.979908 0.0182,0.161637 0.0331,-1.6769 -0.0395,-0.956376 -0.13778,-1.904042 -0.26872,-2.846856 2.45734,-0.616256 2.5718,-1.904949 2.30011,-3.480924 -0.006,-0.04544 -0.0186,-0.09357 -0.0176,-0.136424 0.11358,-1.363729 0.12099,-2.736329 0.13539,-4.103627 0.006,-0.549624 0.0599,-1.102508 0.001,-1.648995 -0.35574,-3.299645 -0.7484,-4.984025 -1.36374,-8.096662 -0.003,-0.01725 -0.006,-0.03441 -0.009,-0.05168 0.0578,-0.03011 0.0952,-0.05033 0.15451,-0.08113 0.30861,-0.160364 -0.0417,-0.694623 -0.062,-1.041796 -0.0193,-0.330902 -0.0379,-0.661776 -0.0568,-0.992704 -0.006,-0.63038 -0.0152,-1.26044 -0.0171,-1.890839 -0.001,-0.489535 0.0284,-0.979649 0.006,-1.468647 -0.0302,-0.642898 -0.0722,-1.28479 -0.1204,-1.925979 0.21605,-0.04915 0.43139,-0.09707 0.71003,-0.152445 2.17722,-0.162057 2.65019,0.251069 2.67425,-0.397393 0.0635,-0.0205 0.0375,-0.111239 -0.004,-0.212389 -0.0103,-0.184701 -0.034,-0.421254 -0.062,-0.734322 -0.32675,-1.900323 -0.67547,-3.795353 -1.01493,-5.692153 0.0747,-0.13767 0.14288,-0.27841 0.20516,-0.4222 0.009,0.006 0.0175,0.0113 0.0264,0.0171 0.81243,0.51621 1.63759,1.01529 2.4939,1.4552 0.99127,-1.49176 2.25535,-2.83486 2.97347,-4.47569 0.1337,-0.3055 -0.4544,-0.48923 -0.70384,-0.71055 -0.92737,-0.82282 -1.8952,-1.60102 -2.87941,-2.35903 0.0392,-0.044 0.081,-0.0855 0.11938,-0.13023 0.12563,-0.14619 -0.8746,-0.83814 -1.11053,-1.00821 -0.0679,-0.0416 -0.13497,-0.0855 -0.20257,-0.12815 0.0387,-0.14195 -0.24369,-0.20768 -0.45062,-0.29197 -0.11112,-0.0741 -0.22149,-0.14966 -0.33176,-0.22583 2.21457,-1.78152 1.99915,-2.03718 0.7276,-2.94659 0.005,-0.0267 0.006,-0.0522 0.003,-0.076 0.11275,-0.0614 0.23882,-0.15711 0.38189,-0.28422 0.39184,0.31459 0.78596,0.6267 1.18495,0.93172 0.52443,0.40094 1.07136,0.77139 1.60713,1.15704 2.3674,1.53939 3.48389,1.83576 5.16455,-2.87425 0.18098,-0.50723 -1.52198,-1.78031 -2.02727,-2.23914 -0.43777,-0.39756 -0.8619,-0.81007 -1.29295,-1.21491 -1.85538,-1.83218 -3.70595,-3.66932 -5.5578,-5.50509 0.39682,0.26901 0.79672,0.53379 1.20251,0.79013 0.15411,0.13257 0.30782,0.26489 0.46199,0.39739 0.12587,0.10821 0.2527,0.21599 0.37827,0.32453 0.0208,0.018 0.0409,0.0735 0.0615,0.0553 2.9454,-2.60246 5.47875,-2.49202 3.93464,-4.02353 -7.9e-4,-7.9e-4 -0.001,-0.002 -0.002,-0.003 1.69219,-0.65583 1.34561,-0.19997 1.72961,-1.55856 0.0341,-0.43788 0.15901,-0.8786 0.10231,-1.31413 -0.0317,-0.24365 -0.23562,-0.43113 -0.3576,-0.6444 -0.16501,-0.28844 -0.30478,-0.59396 -0.50333,-0.86042 -0.0961,-0.12899 -0.24867,-0.20439 -0.36948,-0.31057 -0.8888,-0.78127 -0.26106,-0.27601 -1.01544,-0.86403 -1.11959,-0.89368 -2.22062,-1.81083 -3.26492,-2.79104 0.18279,-0.20614 0.32065,-0.46259 0.40463,-0.7581 0.60116,0.45017 1.20459,0.8975 1.81177,1.33997 0.79834,0.58178 1.59524,1.16715 2.42259,1.70687 1.32121,0.86188 2.68074,1.66446 4.02095,2.49649 2.1865,1.26376 3.29619,1.91763 5.49062,3.13624 0.44162,0.24524 0.90316,0.45486 1.3348,0.71727 0.3161,0.19217 0.59444,0.44108 0.90382,0.64389 0.30481,0.19982 0.71637,0.28856 1.0449,0.39223 0.33454,-1.1044 0.92245,-2.16241 1.00355,-3.3135 0.003,-0.0455 -1.4992,-1.20978 -1.5012,-1.21078 -1.77603,-1.39373 -3.58056,-2.74321 -5.37951,-4.10776 -2.77575,-1.98142 -2.01561,-1.4098 -4.6545,-3.64525 1.39028,0.11296 1.36485,-1.06756 1.68104,-3.48713 0.39762,0.16009 0.80159,0.2788 0.99735,0.20826 0.88823,-0.32006 1.60478,-0.99525 2.40709,-1.49293 -0.22432,-0.50663 -0.43219,-1.02155 -0.64027,-1.53634 1.2238,0.88671 2.43639,1.71794 3.80648,2.37246 0.99158,-1.07442 2.32621,-1.91286 2.97501,-3.22306 0.20078,-0.40545 -0.55248,-0.71825 -0.85782,-1.05213 -0.29091,-0.3181 -0.6191,-0.60018 -0.92811,-0.90072 -1.16847,-1.1365 -2.39397,-2.20266 -3.63027,-3.2644 -1.09244,-0.93707 -2.21024,-1.84498 -3.33003,-2.75073 h 34.80354 v 114.830182 z m 9.60768,-8.117332 c -0.0206,-8.5e-5 -0.0402,-0.0037 -0.0599,-0.0067 0.0187,-0.0021 0.0375,-0.0038 0.0558,-0.0067 0.038,0.0021 0.0802,0.0046 0.10335,0.0047 0.0116,1.6e-5 0.0292,0.0061 0.0434,0.0088 -0.0462,-0.0029 -0.0948,1.98e-4 -0.14263,0 z m 8.28322,-1.313098 c -0.0151,0.0011 -0.0571,-0.01757 -0.0713,-0.03101 -0.005,-0.0049 -0.002,-0.01267 5.3e-4,-0.02066 0.0274,0.0122 0.0603,0.01789 0.0749,0.04289 0.003,0.0057 0.001,0.0084 -0.004,0.0088 z m -10.54819,-8.496639 c -0.005,-0.01222 -0.01,-0.02447 -0.015,-0.03669 0.001,0.0016 0.002,0.003 0.004,0.0047 0.008,0.0088 0.0154,0.04256 0.0114,0.03204 z m 11.08976,-60.888271 c -0.0826,-0.042 -0.17006,-0.0795 -0.25166,-0.12247 0.0646,-0.0159 0.1615,0.0476 0.25166,0.12247 z m -5.35781,-6.08645 c 0.0225,0.0329 -0.11199,-0.11671 -0.10749,-0.12196 10e-4,-10e-4 0.002,-0.003 0.004,-0.004 0.006,0.007 0.012,0.0139 0.0181,0.0207 0.0531,0.0634 0.0776,0.0943 0.0853,0.10542 z m 2.15335,-6.05338 v -5.3e-4 c -0.0865,-0.006 -0.17858,-0.0285 -0.26561,-0.0357 -0.0302,-0.0284 -0.0608,-0.0564 -0.0909,-0.0847 0.0146,-0.0348 0.0335,-0.0673 0.061,-0.0951 0.23359,-0.23603 0.58852,-0.30061 0.89194,-0.44131 -0.13301,0.20628 -0.19766,0.47293 -0.39687,0.6134 -0.035,0.0246 -0.0739,0.0368 -0.11524,0.0419 -0.0272,0.003 -0.0554,0.003 -0.0842,0.002 z" />
    </clipPath>
  </defs>
  <sodipodi:namedview
     id="base"
     pagecolor="#ffffff"
     bordercolor="#666666"
     borderopacity="1.0"
     inkscape:pageopacity="0.0"
     inkscape:pageshadow="2"
     inkscape:zoom="0.63354137"
     inkscape:cx="334.24146"
     inkscape:cy="431.60331"
     inkscape:document-units="mm"
     inkscape:current-layer="layer1"
     inkscape:document-rotation="0"
     showgrid="false"
     inkscape:window-width="1920"
     inkscape:window-height="1001"
     inkscape:window-x="-9"
     inkscape:window-y="-9"
     inkscape:window-maximized="1"
     units="px"
     inkscape:snap-to-guides="false"
     inkscape:lockguides="true"
     showguides="true"
     inkscape:guide-bbox="true"
     inkscape:snap-bbox="true" />
  <metadata
     id="metadata975">
    <rdf:RDF>
      <cc:Work
         rdf:about="">
        <dc:format>image/svg+xml</dc:format>
        <dc:type
           rdf:resource="http://purl.org/dc/dcmitype/StillImage" />
        <dc:title />
      </cc:Work>
    </rdf:RDF>
  </metadata>
  <g
     inkscape:label="Layer 1"
     inkscape:groupmode="layer"
     id="layer1"
     style="display:inline">
    <path
       id="rect855"
       style="display:inline;fill:#0e9594;fill-opacity:1;stroke:#065c77;stroke-width:2;stroke-linecap:round;stroke-linejoin:round;stroke-miterlimit:4;stroke-dasharray:none;stroke-opacity:1"
       d="M 13.743354,0.95475833 H 174.18835 c 6.72992,0 12.14788,5.41795997 12.14788,12.14788967 V 173.54762 c 0,6.72992 -5.41796,12.14788 -12.14788,12.14788 H 13.743354 c -6.7299296,0 -12.1478896,-5.41796 -12.1478896,-12.14788 V 13.102648 c 0,-6.7299297 5.41796,-12.14788967 12.1478896,-12.14788967 z" />
    <path
       id="rect883"
       style="fill:#ffffff;fill-opacity:1;stroke:none;stroke-width:7.47019"
       d="m 63.263867,38.731886 c -1.153584,-0.03511 -2.545802,0.182374 -4.047862,0.678587 L 19.226931,52.621138 c -4.00551,1.323234 -7.230387,4.11316 -7.230387,6.255744 v 99.143688 c 0,2.14259 3.224877,2.80204 7.230387,1.47881 l 39.989074,-13.21066 c 4.00551,-1.32324 7.230378,-4.11315 7.230378,-6.25574 V 40.889288 c 0,-1.339119 -1.259889,-2.098894 -3.182516,-2.157402 z m 7.407964,0 c -1.922637,0.05851 -3.182525,0.818283 -3.182525,2.157402 v 99.143692 c 0,2.14258 3.224877,4.9325 7.230387,6.25574 l 39.989067,13.21066 c 4.00551,1.32323 7.23038,0.66377 7.23038,-1.47881 V 58.876882 c 0,-2.14258 -3.22487,-4.932506 -7.23038,-6.255744 L 74.719693,39.410473 c -1.50207,-0.496213 -2.894287,-0.713692 -4.047862,-0.678587 z m 103.893359,0 c -1.15358,-0.03511 -2.54579,0.182374 -4.04786,0.678587 l -39.98956,13.210665 c -4.00551,1.323232 -7.22991,4.113155 -7.22991,6.255744 v 99.143688 c 0,2.14258 3.2244,2.80204 7.22991,1.47881 l 39.98956,-13.21066 c 4.00551,-1.32324 7.2299,-4.11316 7.2299,-6.25574 V 40.889288 c 0,-1.339121 -1.25941,-2.098897 -3.18204,-2.157402 z M 95.359754,72.265692 a 16.491755,16.455488 0 0 1 16.491406,16.455149 16.491755,16.455488 0 0 1 -2.46452,8.653073 L 94.695989,129.83261 81.721137,97.971567 A 16.491755,16.455488 0 0 1 78.868343,88.720841 16.491755,16.455488 0 0 1 95.359754,72.265692 Z m 0.124787,8.56017 a 8.0987337,8.4776904 0 0 0 -8.007414,8.477786 8.0987337,8.4776904 0 0 0 8.098124,8.477323 8.0987337,8.4776904 0 0 0 8.099069,-8.477323 8.0987337,8.4776904 0 0 0 -8.099069,-8.477786 8.0987337,8.4776904 0 0 0 -0.09071,0 z" />
  </g>
</svg>
