<?xml version="1.0" encoding="UTF-8" standalone="no"?>
<svg
   xmlns:dc="http://purl.org/dc/elements/1.1/"
   xmlns:cc="http://creativecommons.org/ns#"
   xmlns:rdf="http://www.w3.org/1999/02/22-rdf-syntax-ns#"
   xmlns:svg="http://www.w3.org/2000/svg"
   xmlns="http://www.w3.org/2000/svg"
   xmlns:sodipodi="http://sodipodi.sourceforge.net/DTD/sodipodi-0.dtd"
   xmlns:inkscape="http://www.inkscape.org/namespaces/inkscape"
   width="700"
   height="700"
   viewBox="0 0 185.20834 185.20834"
   version="1.1"
   id="svg8"
   inkscape:version="1.0.1 (3bc2e813f5, 2020-09-07)"
   sodipodi:docname="catalogue.svg"
   inkscape:export-filename="D:\_Personal(Clark)\Downloads\_cert_talline\jpg\App Abaca\UI\vector\icons\catalogue.png"
   inkscape:export-xdpi="96"
   inkscape:export-ydpi="96">
  <defs
     id="defs2" />
  <sodipodi:namedview
     id="base"
     pagecolor="#ffffff"
     bordercolor="#666666"
     borderopacity="1.0"
     inkscape:pageopacity="0.0"
     inkscape:pageshadow="2"
     inkscape:zoom="0.71238679"
     inkscape:cx="145.31289"
     inkscape:cy="458.31001"
     inkscape:document-units="mm"
     inkscape:current-layer="layer1"
     inkscape:document-rotation="0"
     showgrid="false"
     units="px"
     inkscape:window-width="1920"
     inkscape:window-height="1001"
     inkscape:window-x="-9"
     inkscape:window-y="-9"
     inkscape:window-maximized="1"
     showguides="true"
     inkscape:snap-text-baseline="true" />
  <metadata
     id="metadata5">
    <rdf:RDF>
      <cc:Work
         rdf:about="">
        <dc:format>image/svg+xml</dc:format>
        <dc:type
           rdf:resource="http://purl.org/dc/dcmitype/StillImage" />
        <dc:title />
      </cc:Work>
    </rdf:RDF>
  </metadata>
  <g
     inkscape:label="Layer 1"
     inkscape:groupmode="layer"
     id="layer1">
    <path
       id="rect835"
       style="fill:#0e9594;fill-opacity:1;stroke-width:3.0338"
       d="M 61.076172 83.878906 C 37.246815 83.878906 18.0625 113.78946 18.0625 150.94141 L 18.0625 232.27539 C 17.992208 233.84994 17.943359 235.43376 17.943359 237.03711 L 17.943359 620.72656 C 17.943359 657.87852 37.127675 687.78711 60.957031 687.78711 L 646.73242 687.78711 C 670.56178 687.78711 689.74609 657.87852 689.74609 620.72656 L 689.74609 237.03711 C 689.74609 199.88517 670.56178 169.97656 646.73242 169.97656 L 353.85352 169.97656 L 353.85352 150.94141 C 353.85352 113.78946 334.6692 83.878906 310.83984 83.878906 L 61.076172 83.878906 z M 182.08203 236.9707 A 90.987428 90.987428 0 0 1 182.23047 236.9707 A 90.987428 90.987428 0 0 1 273.2168 327.95703 A 90.987428 90.987428 0 0 1 182.23047 418.94531 A 90.987428 90.987428 0 0 1 91.242188 327.95703 A 90.987428 90.987428 0 0 1 182.08203 236.9707 z M 342.69727 313.30273 L 602.27734 313.30273 C 614.99799 313.30273 625.23828 324.77663 625.23828 339.0293 C 625.23828 353.28197 614.99799 364.75586 602.27734 364.75586 L 342.69727 364.75586 C 329.9766 364.75586 319.73633 353.28197 319.73633 339.0293 C 319.73633 324.77663 329.9766 313.30273 342.69727 313.30273 z M 342.69727 420.14258 L 602.27734 420.14258 C 614.99799 420.14258 625.23828 431.61647 625.23828 445.86914 C 625.23828 460.12181 614.99799 471.5957 602.27734 471.5957 L 342.69727 471.5957 C 329.97659 471.5957 319.73633 460.12181 319.73633 445.86914 C 319.73633 431.61647 329.97659 420.14258 342.69727 420.14258 z M 137.05078 519.75977 L 585.56445 519.75977 C 607.5438 519.75977 625.23828 531.23365 625.23828 545.48633 C 625.23828 559.739 607.5438 571.21289 585.56445 571.21289 L 137.05078 571.21289 C 115.07135 571.21289 97.375 559.739 97.375 545.48633 C 97.375 531.23365 115.07135 519.75977 137.05078 519.75977 z "
       transform="scale(0.26458333)" />
  </g>
</svg>
