<?xml version="1.0" encoding="UTF-8" standalone="no"?>
<svg
   xmlns:dc="http://purl.org/dc/elements/1.1/"
   xmlns:cc="http://creativecommons.org/ns#"
   xmlns:rdf="http://www.w3.org/1999/02/22-rdf-syntax-ns#"
   xmlns:svg="http://www.w3.org/2000/svg"
   xmlns="http://www.w3.org/2000/svg"
   xmlns:sodipodi="http://sodipodi.sourceforge.net/DTD/sodipodi-0.dtd"
   xmlns:inkscape="http://www.inkscape.org/namespaces/inkscape"
   width="700"
   height="700"
   viewBox="0 0 185.20833 185.20834"
   version="1.1"
   id="svg8"
   sodipodi:docname="def_avatar.svg"
   inkscape:version="1.0.1 (3bc2e813f5, 2020-09-07)"
   inkscape:export-filename="D:\_Personal(Clark)\Downloads\_cert_talline\jpg\App Abaca\UI\vector\icons\def_avatar.png"
   inkscape:export-xdpi="96"
   inkscape:export-ydpi="96">
  <defs
     id="defs2" />
  <sodipodi:namedview
     id="base"
     pagecolor="#ffffff"
     bordercolor="#666666"
     borderopacity="1.0"
     inkscape:pageopacity="0.0"
     inkscape:pageshadow="2"
     inkscape:zoom="0.84997534"
     inkscape:cx="247.7916"
     inkscape:cy="406.70221"
     inkscape:document-units="mm"
     inkscape:current-layer="layer1"
     inkscape:document-rotation="0"
     showgrid="false"
     units="px"
     inkscape:window-width="1920"
     inkscape:window-height="1001"
     inkscape:window-x="-9"
     inkscape:window-y="-9"
     inkscape:window-maximized="1" />
  <metadata
     id="metadata5">
    <rdf:RDF>
      <cc:Work
         rdf:about="">
        <dc:format>image/svg+xml</dc:format>
        <dc:type
           rdf:resource="http://purl.org/dc/dcmitype/StillImage" />
        <dc:title />
      </cc:Work>
    </rdf:RDF>
  </metadata>
  <g
     inkscape:label="Layer 1"
     inkscape:groupmode="layer"
     id="layer1">
    <path
       id="path858"
       style="fill:#0e9594;fill-opacity:1;stroke:none;stroke-width:12.9164;stroke-opacity:1"
       d="M 141.52359,59.825562 A 47.45583,47.45583 0 0 1 94.067764,107.28139 47.45583,47.45583 0 0 1 46.611935,59.825562 47.45583,47.45583 0 0 1 94.067764,12.369732 47.45583,47.45583 0 0 1 141.52359,59.825562 Z M 56.865635,101.31189 c -30.444143,15.76288 -51.6207313,47.7699 -51.6207323,65.86786 0,24.66593 39.3358533,14.1527 87.8589573,14.1527 48.52309,0 87.85841,10.68892 87.85841,-13.97701 0,-17.64122 -20.12322,-48.58564 -49.3357,-64.78246 A 49.804987,49.804987 0 0 1 94.800889,118.84546 49.804987,49.804987 0 0 1 56.865635,101.31189 Z" />
  </g>
</svg>
