<?xml version="1.0" encoding="UTF-8" standalone="no"?>
<svg
   xmlns:dc="http://purl.org/dc/elements/1.1/"
   xmlns:cc="http://creativecommons.org/ns#"
   xmlns:rdf="http://www.w3.org/1999/02/22-rdf-syntax-ns#"
   xmlns:svg="http://www.w3.org/2000/svg"
   xmlns="http://www.w3.org/2000/svg"
   xmlns:sodipodi="http://sodipodi.sourceforge.net/DTD/sodipodi-0.dtd"
   xmlns:inkscape="http://www.inkscape.org/namespaces/inkscape"
   width="700"
   height="700"
   viewBox="0 0 185.20833 185.20834"
   version="1.1"
   id="svg8"
   inkscape:version="1.0.1 (3bc2e813f5, 2020-09-07)"
   sodipodi:docname="ic_diagnose_clicked.svg"
   inkscape:export-filename="D:\_Personal(Clark)\Downloads\_cert_talline\jpg\App Abaca\UI\vector\icons\newVectors\ic_diagnose_clicked.png"
   inkscape:export-xdpi="96"
   inkscape:export-ydpi="96">
  <defs
     id="defs2" />
  <sodipodi:namedview
     id="base"
     pagecolor="#ffffff"
     bordercolor="#666666"
     borderopacity="1.0"
     inkscape:pageopacity="0.0"
     inkscape:pageshadow="2"
     inkscape:zoom="0.34165563"
     inkscape:cx="342.85714"
     inkscape:cy="560"
     inkscape:document-units="mm"
     inkscape:current-layer="layer1"
     inkscape:document-rotation="0"
     showgrid="false"
     units="px"
     inkscape:window-width="1920"
     inkscape:window-height="1001"
     inkscape:window-x="-9"
     inkscape:window-y="-9"
     inkscape:window-maximized="1" />
  <metadata
     id="metadata5">
    <rdf:RDF>
      <cc:Work
         rdf:about="">
        <dc:format>image/svg+xml</dc:format>
        <dc:type
           rdf:resource="http://purl.org/dc/dcmitype/StillImage" />
        <dc:title></dc:title>
      </cc:Work>
    </rdf:RDF>
  </metadata>
  <g
     inkscape:label="Layer 1"
     inkscape:groupmode="layer"
     id="layer1">
    <path
       id="rect855"
       style="display:inline;fill:#065c77;fill-opacity:1;stroke:#065c77;stroke-width:2;stroke-linecap:round;stroke-linejoin:round;stroke-miterlimit:4;stroke-dasharray:none;stroke-opacity:1"
       d="M 14.256182,0.55945182 H 174.70115 c 6.72993,0 12.14789,5.41795898 12.14789,12.14789118 V 173.15232 c 0,6.72993 -5.41796,12.14789 -12.14789,12.14789 H 14.256182 c -6.7299405,0 -12.1478905,-5.41796 -12.1478905,-12.14789 V 12.707343 c 0,-6.7299322 5.41795,-12.14789118 12.1478905,-12.14789118 z" />
    <path
       id="circle1013"
       style="display:inline;fill:#ffffff;fill-opacity:1;stroke:none;stroke-width:3.94716;stroke-linecap:round;stroke-linejoin:round;stroke-miterlimit:4;stroke-dasharray:none;stroke-dashoffset:10.554;stroke-opacity:1"
       d="m 78.085882,56.470663 a 27.886372,27.383385 0 0 0 -27.88633,27.38334 27.886372,27.383385 0 0 0 27.88633,27.383347 27.886372,27.383385 0 0 0 27.886348,-27.383347 27.886372,27.383385 0 0 0 -27.886348,-27.38334 z m -8.22955,11.26683 a 8.6385236,8.4827107 0 0 1 0.0343,0 8.6385236,8.4827107 0 0 1 8.63885,8.48253 8.6385236,8.4827107 0 0 1 -8.63885,8.48253 8.6385236,8.4827107 0 0 1 -8.63835,-8.48253 8.6385236,8.4827107 0 0 1 8.60407,-8.48253 z m 14.93547,18.16128 a 3.6462928,3.5805245 0 0 1 3.64586,3.58061 3.6462928,3.5805245 0 0 1 -3.64586,3.58061 3.6462928,3.5805245 0 0 1 -3.64638,-3.58061 3.6462928,3.5805245 0 0 1 3.64638,-3.58061 z m -6.63912,-41.49181 a 40.53454,39.803419 0 0 0 -40.5343,39.80369 40.53454,39.803419 0 0 0 40.5343,39.803197 40.53454,39.803419 0 0 0 25.650528,-8.98293 c -0.0363,1.38701 0.38188,2.63681 1.29851,3.5369 l 17.60823,17.29062 c 2.31963,2.2778 6.91513,1.43239 10.30369,-1.89505 3.38856,-3.32745 4.24898,-7.83956 1.92936,-10.11734 l -17.60822,-17.29062 c -1.18792,-1.1665 -2.97319,-1.51239 -4.88708,-1.12688 A 40.53454,39.803419 0 0 0 118.68752,84.210653 40.53454,39.803419 0 0 0 78.152682,44.406963 Z M 117.08784,9.5703188 c 28.31019,0.24354 54.8226,10.5216142 61.40006,24.8035142 10.26717,22.29352 -42.14646,-17.999778 -46.79254,24.53976 -9.54812,87.422527 -45.193378,89.843647 -77.178198,74.377897 -0.18399,0.28385 -0.44197,0.53721 -0.79047,0.74506 -12.96672,7.73356 -21.6818,39.01592 -21.6818,39.01592 -1.45602,2.62012 -4.91792,3.88228 -7.76243,2.83003 l -8.23927,-3.04757 c -1.12075,-0.41459 -3.96368,-4.00547 -2.50647,-6.62917 0,0 19.13285,-20.42298 21.68129,-39.01542 0.22176,-1.61782 1.67297,-2.62601 3.40693,-3.03651 -1.78301,-1.17076 -3.53588,-2.36363 -5.25033,-3.56604 C -5.1091085,93.597473 32.517192,39.854853 70.948122,19.698213 l 5.3e-4,5e-4 C 84.759742,12.454924 101.20651,9.4336978 117.08784,9.5703188 Z" />
  </g>
</svg>
