<?xml version="1.0" encoding="UTF-8" standalone="no"?>
<svg
   xmlns:dc="http://purl.org/dc/elements/1.1/"
   xmlns:cc="http://creativecommons.org/ns#"
   xmlns:rdf="http://www.w3.org/1999/02/22-rdf-syntax-ns#"
   xmlns:svg="http://www.w3.org/2000/svg"
   xmlns="http://www.w3.org/2000/svg"
   xmlns:sodipodi="http://sodipodi.sourceforge.net/DTD/sodipodi-0.dtd"
   xmlns:inkscape="http://www.inkscape.org/namespaces/inkscape"
   width="700"
   height="700"
   viewBox="0 0 185.20833 185.20834"
   version="1.1"
   id="svg847"
   inkscape:version="1.0.1 (3bc2e813f5, 2020-09-07)"
   sodipodi:docname="ic_assessment_clicked.svg"
   inkscape:export-filename="D:\_Personal(Clark)\Downloads\_cert_talline\jpg\App Abaca\UI\vector\icons\newVectors\ic_assessment_clicked.png"
   inkscape:export-xdpi="96"
   inkscape:export-ydpi="96">
  <defs
     id="defs841" />
  <sodipodi:namedview
     id="base"
     pagecolor="#ffffff"
     bordercolor="#666666"
     borderopacity="1.0"
     inkscape:pageopacity="0.0"
     inkscape:pageshadow="2"
     inkscape:zoom="0.35"
     inkscape:cx="342.85714"
     inkscape:cy="560"
     inkscape:document-units="mm"
     inkscape:current-layer="layer1"
     inkscape:document-rotation="0"
     showgrid="false"
     units="px"
     inkscape:window-width="1431"
     inkscape:window-height="1019"
     inkscape:window-x="32"
     inkscape:window-y="0"
     inkscape:window-maximized="0" />
  <metadata
     id="metadata844">
    <rdf:RDF>
      <cc:Work
         rdf:about="">
        <dc:format>image/svg+xml</dc:format>
        <dc:type
           rdf:resource="http://purl.org/dc/dcmitype/StillImage" />
        <dc:title></dc:title>
      </cc:Work>
    </rdf:RDF>
  </metadata>
  <g
     inkscape:label="Layer 1"
     inkscape:groupmode="layer"
     id="layer1">
    <path
       id="rect855"
       style="display:inline;fill:#065c77;fill-opacity:1;stroke:#065c77;stroke-width:2;stroke-linecap:round;stroke-linejoin:round;stroke-miterlimit:4;stroke-dasharray:none;stroke-opacity:1"
       d="M 12.759659,0.61176524 H 173.20464 c 6.72992,0 12.14788,5.41795996 12.14788,12.14788876 V 173.20463 c 0,6.72993 -5.41796,12.14789 -12.14788,12.14789 H 12.759659 c -6.7299313,0 -12.14789129,-5.41796 -12.14789129,-12.14789 V 12.759654 c 0,-6.7299288 5.41795999,-12.14788876 12.14789129,-12.14788876 z" />
    <path
       id="path876"
       style="fill:#ffffff;fill-opacity:1;stroke-width:6.39905"
       d="M 132.46036,7.3588652 V 32.853947 c 0,2.332021 -7.58788,4.209563 -17.01292,4.209563 H 69.548435 c -9.425043,0 -17.012402,-1.877542 -17.012402,-4.209563 V 7.3841852 C 39.827755,8.7995952 30.16996,16.513241 30.16996,25.876078 V 158.87053 c 0,10.37425 11.855098,18.72599 26.58132,18.72599 h 71.71552 c 14.72622,0 26.58133,-8.35174 26.58133,-18.72599 V 25.876078 c 0,-9.417483 -9.76973,-17.1676728 -22.58777,-18.5172128 z M 68.785173,13.391053 c -5.680313,0 -10.25312,2.667135 -10.25312,5.980514 v 4.679302 c 0,3.313376 4.572807,5.981027 10.25312,5.981027 h 46.603357 c 5.68031,0 10.25363,-2.667651 10.25363,-5.981027 v -4.679302 c 0,-3.313379 -4.57332,-5.980514 -10.25363,-5.980514 z M 127.83946,59.11746 c 3.53161,-0.0177 4.41623,1.641718 -0.60463,6.023406 -5.30277,4.6277 -6.14789,18.915999 -14.95878,26.130705 -8.81091,7.214148 -12.489392,5.440804 -16.948314,-0.0047 -4.458917,-5.445434 -0.931267,-15.708442 7.879624,-22.923148 v 5.29e-4 c 5.50682,-4.50919 18.74604,-9.197337 24.6321,-9.226827 z M 47.288296,71.248502 c 7.566197,0.03791 24.58394,6.064446 31.662666,11.860776 v -5.29e-4 c 11.325955,9.27413 15.861329,22.466581 10.12961,29.466411 -5.73173,6.99984 -10.460297,9.28014 -21.786265,0.006 C 55.968349,103.30722 54.88193,84.939645 48.065506,78.990975 41.611446,73.358546 42.748569,71.22555 47.288296,71.248298 Z m 78.298574,24.19749 c 2.87399,-0.01439 3.59395,1.33627 -0.49196,4.902018 -4.31532,3.76596 -5.00271,15.39414 -12.1729,21.26537 -7.1702,5.87076 -10.16382,4.4277 -13.792439,-0.004 -3.628604,-4.43141 -0.757658,-12.78344 6.412529,-18.65467 v 5.3e-4 c 4.48139,-3.669511 15.2548,-7.485091 20.04477,-7.509092 z M 56.311,134.34852 h 73.26684 c 5.55333,0 10.0242,5.9753 10.0242,13.39711 v 2.94143 c 0,0.48973 -0.021,0.97265 -0.0589,1.44849 -4.72689,-0.24135 -9.46262,-0.33632 -14.19965,-0.0806 -3.41566,0.13024 -6.83166,0.30157 -10.25003,0.37517 -0.55995,-0.57517 -0.62637,-0.6444 -1.81746,-1.91564 -1.3772,-1.58451 -2.70908,-3.19987 -3.64112,-4.97438 -0.22331,-0.44615 -0.54424,-0.7783 -0.91829,-1.01285 -0.22559,-1.92607 -3.94172,-2.74524 -5.22294,-0.47543 -1.20957,2.1435 -2.37134,4.30232 -3.47472,6.47971 -0.149142,0.29249 -0.294122,0.58827 -0.440278,0.88315 -0.103479,-0.31352 -0.0744,-0.2265 -0.223761,-0.67954 -1.260671,-3.74092 -2.581299,-7.48012 -3.447333,-11.33265 -0.11898,-0.70914 -0.412483,-1.24904 -0.803053,-1.63452 -0.378986,-0.83244 -1.449427,-1.35706 -2.544548,-1.36994 -1.013195,-0.0119 -2.047348,0.41402 -2.572451,1.43815 -0.378778,0.74863 -0.693576,1.51566 -1.090374,2.25929 -1.75803,3.42702 -3.640027,6.8145 -5.523693,10.20145 -0.718768,1.33277 -1.377397,2.53398 -2.06034,3.8747 -0.08007,0.15718 -0.159388,0.31561 -0.239263,0.47335 -0.952547,-1.74989 -1.81493,-3.52803 -2.539378,-5.34334 -0.436676,-1.12517 -0.857268,-2.25054 -1.20096,-3.39514 -0.167047,-0.55628 -0.245898,-0.92311 -0.381373,-1.48673 -0.06541,-0.22161 -0.157159,-0.43825 -0.235645,-0.65733 -1.16594,-2.3417 -5.00738,-1.59816 -5.253424,0.37672 -1.548273,2.08219 -0.883902,1.18423 -2.835487,3.83078 -1.937271,2.62675 -3.831304,5.27488 -5.833753,7.8729 -0.993508,-1.05401 -1.917171,-2.14537 -2.921786,-3.19567 -0.478589,-0.45267 -1.02757,-0.70924 -1.580782,-0.81597 -0.408728,-0.64585 -1.269645,-1.13843 -2.583304,-1.13843 h -8.14214 c -0.487793,0 -0.912352,0.0686 -1.275373,0.18707 -7.94e-4,-0.0644 -0.0036,-0.1281 -0.0036,-0.19275 v -2.94143 c 0,-7.42181 4.470879,-13.39711 10.024198,-13.39711 z m 35.620563,11.02981 c 0.712359,2.35579 1.516552,4.68741 2.301666,7.01766 1.264584,3.83579 0.651322,1.95785 1.841236,5.63222 0.821872,2.53779 3.660753,2.45649 4.814175,0.91416 0.0949,-0.0817 0.18825,-0.16863 0.27647,-0.26562 1.70368,-2.04539 2.72796,-4.37826 3.87522,-6.62802 0.40029,-0.7898 0.81049,-1.57663 1.22576,-2.36161 0.77714,1.07203 1.63918,2.10866 2.52337,3.13159 1.70353,1.82447 0.83962,0.91742 2.58949,2.72128 0.62834,0.64749 1.41133,0.92708 2.16835,0.94516 0.29869,0.0708 0.63277,0.11111 1.00356,0.11111 3.68899,-0.0617 7.37386,-0.25386 11.05927,-0.39429 4.36702,-0.23898 8.73262,-0.16064 13.09067,0.0527 -1.57619,4.62649 -5.05827,7.8295 -9.12296,7.8295 H 56.311 c -4.486013,0 -8.264215,-3.89995 -9.551355,-9.31106 0.247322,0.045 0.514104,0.0718 0.806151,0.0718 h 7.751982 c 0.100206,0.14156 0.222821,0.28305 0.371036,0.42323 1.327854,1.45452 2.591366,2.93769 4.037994,4.32584 0.489556,0.46781 1.054214,0.72753 1.623158,0.83044 1.026258,0.88879 3.001531,1.12295 4.301032,-0.22841 2.696578,-3.2731 5.097563,-6.68685 7.580929,-10.05779 0.04464,0.11619 0.08801,0.23274 0.132813,0.34882 1.159526,2.91642 2.650625,5.74464 4.307747,8.51214 l 0.521928,0.84129 c 0.565843,0.912 1.513152,1.2983 2.445848,1.30432 1.491808,0.65752 3.76496,0.19767 4.07262,-1.65365 0.0402,-0.17314 0.06531,-0.34865 0.120404,-0.51935 0.364461,-1.13033 0.970428,-2.24558 1.521354,-3.32383 0.67333,-1.31781 1.29159,-2.44594 1.999877,-3.75894 1.205632,-2.16595 2.405761,-4.33385 3.577045,-6.51072 z" />
  </g>
</svg>
