<?xml version="1.0" encoding="UTF-8" standalone="no"?>
<svg
   xmlns:dc="http://purl.org/dc/elements/1.1/"
   xmlns:cc="http://creativecommons.org/ns#"
   xmlns:rdf="http://www.w3.org/1999/02/22-rdf-syntax-ns#"
   xmlns:svg="http://www.w3.org/2000/svg"
   xmlns="http://www.w3.org/2000/svg"
   xmlns:sodipodi="http://sodipodi.sourceforge.net/DTD/sodipodi-0.dtd"
   xmlns:inkscape="http://www.inkscape.org/namespaces/inkscape"
   width="700"
   height="700"
   viewBox="0 0 185.20833 185.20834"
   version="1.1"
   id="svg1441"
   inkscape:version="1.0.1 (3bc2e813f5, 2020-09-07)"
   sodipodi:docname="ic_map_clicked.svg"
   inkscape:export-filename="D:\_Personal(Clark)\Downloads\_cert_talline\jpg\App Abaca\UI\vector\icons\newVectors\ic_map_clicked.png"
   inkscape:export-xdpi="96"
   inkscape:export-ydpi="96">
  <defs
     id="defs1435" />
  <sodipodi:namedview
     id="base"
     pagecolor="#ffffff"
     bordercolor="#666666"
     borderopacity="1.0"
     inkscape:pageopacity="0.0"
     inkscape:pageshadow="2"
     inkscape:zoom="0.35"
     inkscape:cx="342.85714"
     inkscape:cy="560"
     inkscape:document-units="mm"
     inkscape:current-layer="layer1"
     inkscape:document-rotation="0"
     showgrid="false"
     units="px"
     inkscape:window-width="1431"
     inkscape:window-height="1019"
     inkscape:window-x="114"
     inkscape:window-y="69"
     inkscape:window-maximized="0" />
  <metadata
     id="metadata1438">
    <rdf:RDF>
      <cc:Work
         rdf:about="">
        <dc:format>image/svg+xml</dc:format>
        <dc:type
           rdf:resource="http://purl.org/dc/dcmitype/StillImage" />
        <dc:title></dc:title>
      </cc:Work>
    </rdf:RDF>
  </metadata>
  <g
     inkscape:label="Layer 1"
     inkscape:groupmode="layer"
     id="layer1">
    <path
       id="rect855"
       style="display:inline;fill:#065c77;fill-opacity:1;stroke:#065c77;stroke-width:2;stroke-linecap:round;stroke-linejoin:round;stroke-miterlimit:4;stroke-dasharray:none;stroke-opacity:1"
       d="M 14.033965,-0.06449799 H 174.47896 c 6.72992,0 12.14788,5.41796009 12.14788,12.14789099 V 172.52837 c 0,6.72992 -5.41796,12.14788 -12.14788,12.14788 H 14.033965 c -6.7299292,0 -12.1478892,-5.41796 -12.1478892,-12.14788 V 12.083393 c 0,-6.7299309 5.41796,-12.14789099 12.1478892,-12.14789099 z" />
    <path
       id="rect883"
       style="display:inline;fill:#ffffff;fill-opacity:1;stroke:none;stroke-width:7.47019"
       d="m 63.554485,38.898658 c -1.15359,-0.03511 -2.54581,0.182375 -4.04787,0.678587 l -39.98907,13.210667 c -4.00551,1.323232 -7.23039,4.11316 -7.23039,6.255743 v 99.143695 c 0,2.14259 3.22488,2.80204 7.23039,1.47881 l 39.98907,-13.21066 c 4.00551,-1.32324 7.23038,-4.11315 7.23038,-6.25574 v -99.1437 c 0,-1.339117 -1.25989,-2.098892 -3.18251,-2.157402 z m 7.40796,0 c -1.92264,0.05851 -3.18253,0.818285 -3.18253,2.157402 v 99.1437 c 0,2.14258 3.22488,4.9325 7.23039,6.25574 l 39.989065,13.21066 c 4.00551,1.32323 7.23038,0.66377 7.23038,-1.47881 V 59.043655 c 0,-2.14258 -3.22487,-4.932506 -7.23038,-6.255743 L 75.010305,39.577245 c -1.50207,-0.496212 -2.89429,-0.713692 -4.04786,-0.678587 z m 103.893355,0 c -1.15358,-0.03511 -2.54579,0.182375 -4.04786,0.678587 l -39.98956,13.210667 c -4.00551,1.323232 -7.22991,4.113155 -7.22991,6.255743 v 99.143695 c 0,2.14258 3.2244,2.80204 7.22991,1.47881 l 39.98956,-13.21066 c 4.00551,-1.32324 7.2299,-4.11316 7.2299,-6.25574 v -99.1437 c 0,-1.33912 -1.25941,-2.098895 -3.18204,-2.157402 z M 95.650365,72.432466 a 16.491755,16.455488 0 0 1 16.491405,16.455149 16.491755,16.455488 0 0 1 -2.46452,8.653073 L 94.986605,129.99939 82.011755,98.13834 a 16.491755,16.455488 0 0 1 -2.8528,-9.250725 16.491755,16.455488 0 0 1 16.49141,-16.455149 z m 0.12479,8.56017 a 8.0987339,8.4776905 0 0 0 -8.00742,8.477784 8.0987339,8.4776905 0 0 0 8.09813,8.477325 8.0987339,8.4776905 0 0 0 8.099065,-8.477325 8.0987339,8.4776905 0 0 0 -8.099065,-8.477784 8.0987339,8.4776905 0 0 0 -0.0907,0 z" />
  </g>
</svg>
