<?xml version="1.0" encoding="UTF-8" standalone="no"?>
<svg
   xmlns:dc="http://purl.org/dc/elements/1.1/"
   xmlns:cc="http://creativecommons.org/ns#"
   xmlns:rdf="http://www.w3.org/1999/02/22-rdf-syntax-ns#"
   xmlns:svg="http://www.w3.org/2000/svg"
   xmlns="http://www.w3.org/2000/svg"
   xmlns:sodipodi="http://sodipodi.sourceforge.net/DTD/sodipodi-0.dtd"
   xmlns:inkscape="http://www.inkscape.org/namespaces/inkscape"
   width="700"
   height="700"
   viewBox="0 0 185.20833 185.20834"
   version="1.1"
   id="svg1505"
   inkscape:version="1.0.1 (3bc2e813f5, 2020-09-07)"
   sodipodi:docname="community.svg"
   inkscape:export-filename="D:\_Personal(Clark)\Downloads\_cert_talline\jpg\App Abaca\UI\vector\icons\community.png"
   inkscape:export-xdpi="96"
   inkscape:export-ydpi="96">
  <defs
     id="defs1499">
    <clipPath
       clipPathUnits="userSpaceOnUse"
       id="clipPath2194">
      <path
         id="path2196"
         style="fill:#ff0000;fill-opacity:1;fill-rule:nonzero;stroke:none;stroke-width:0.264583"
         d="m 40.018229,26.242326 v 35.659839 h 35.096567 c -0.403585,-0.60892 -0.215586,-1.395383 0.563271,-1.868619 v -33.79122 z" />
    </clipPath>
    <clipPath
       clipPathUnits="userSpaceOnUse"
       id="clipPath2214">
      <path
         id="path2216"
         style="fill:#ff0000;fill-opacity:1;fill-rule:nonzero;stroke:none;stroke-width:0.264583"
         d="m 87.393116,26.131221 v 33.378325 c 0.316103,0.03636 0.631306,0.08429 0.948777,0.105421 0.162565,0.0093 0.32502,0.02553 0.487828,0.02842 0.465262,0.0083 0.931993,-0.0592 1.395781,-0.02119 1.273249,0.104344 2.478664,0.398248 3.731553,0.6134 1.177076,0.19322 2.363695,0.291216 3.530018,0.546737 0.6588,0.144328 0.857891,0.23843 1.551326,0.475422 0.983101,0.323414 0.39237,0.06793 0.875917,0.533302 H 123.05295 V 26.131221 Z" />
    </clipPath>
    <clipPath
       clipPathUnits="userSpaceOnUse"
       id="clipPath2272">
      <path
         id="path2274"
         style="fill:#ff0000;fill-opacity:1;fill-rule:nonzero;stroke:none;stroke-width:0.264583"
         d="m 32.043005,50.831522 v 45.99771 h 23.512777 c -0.0057,-1.025978 -0.02453,-1.71671 0.175699,-2.631882 -0.06242,-0.303713 -0.158689,-0.602054 -0.226859,-0.904854 -0.893016,-3.966625 1.457997,-5.901007 3.540353,-5.018296 0.408196,-0.336521 0.630616,-0.518375 0.785482,-0.521417 0.141845,-0.0028 0.232669,0.150807 0.364836,0.455271 0.700987,0.145587 2.163691,0.678592 5.161442,1.029393 0.157239,0.01839 0.06789,0.310055 0.08268,0.467672 0.0075,0.07973 0.0064,0.16007 0.0083,0.240295 0.05926,0.0016 0.118478,0.0037 0.177766,0.0052 0.09365,-0.158295 0.258402,-0.125606 0.45992,0.0181 0.765825,0.04523 1.524476,0.151235 2.277898,0.295589 0.02745,-0.02858 0.05499,-0.05803 0.0894,-0.07338 0.154149,-0.06878 0.32108,-0.103923 0.481624,-0.156065 0.393914,-0.105169 0.790175,-0.197112 1.187524,-0.283186 0.02916,-0.13871 0.06643,-0.278736 0.124542,-0.421679 0.75275,-1.851742 2.318012,-2.169621 4.04523,-2.139921 0.953974,-0.01238 1.898142,0.06959 2.83032,0.223758 -0.04888,-0.31491 -0.09515,-0.630251 -0.135393,-0.946711 -0.06174,-0.446133 -0.123767,-0.892159 -0.18552,-1.338421 -0.248981,-0.457224 -0.477769,-0.924431 -0.630968,-1.408698 -0.179827,-0.568444 -0.323363,-1.150265 -0.421164,-1.738397 -0.14084,-0.846976 0.161676,-1.736566 -0.07286,-2.575036 -0.03023,-1.262462 -0.07024,-2.209498 -0.01241,-3.51038 0.0011,-0.0259 0.0043,-0.05163 0.0057,-0.07752 -0.02853,-0.554914 -0.01492,-1.110925 0.01394,-1.671215 -0.267727,-1.038836 -0.485596,-2.089224 -0.641824,-3.15433 -0.110064,-0.696754 -0.06701,-1.373579 0.112657,-2.053104 0.02726,-0.10315 -0.04599,0.208741 -0.0584,0.314709 -0.01529,0.130326 -0.01651,0.262303 -0.02479,0.393258 0.01397,0.0019 0.02789,0.0043 0.04186,0.0062 0.04194,-0.621279 0.185262,-0.910426 0.476459,-0.990122 -0.0035,-0.4211 -0.04233,-0.845949 0.01291,-1.262972 0.01751,-0.132247 0.05463,-0.527463 0.06873,-0.394809 0.0034,0.03241 0.0029,0.06519 0.0041,0.09767 0.144897,-1.485878 0.748136,-2.063546 1.489832,-2.159039 -0.302726,-0.677138 -0.292857,-1.451306 0.06408,-2.177645 -3.100945,-0.0087 -3.094947,-3.035864 0.01291,-3.145544 0.428641,-0.01514 0.855917,-0.02122 1.282092,-0.0186 1.477758,0.009 2.940396,0.126093 4.386812,0.356053 0.217705,-0.04704 0.434925,-0.09596 0.653191,-0.140044 V 50.83152 Z m 44.813286,16.314767 c -0.06954,-0.04307 -0.202917,1.102871 -0.29714,1.517219 0.02117,0.04361 0.04231,0.08718 0.06356,0.130744 0.02851,0.0076 0.05735,0.01468 0.08682,0.02273 0.0868,-0.525833 0.233614,-1.049382 0.172599,-1.574064 -0.007,-0.0603 -0.0159,-0.09048 -0.02582,-0.09663 z" />
    </clipPath>
    <clipPath
       clipPathUnits="userSpaceOnUse"
       id="clipPath2302">
      <path
         id="path2304"
         style="fill:#ff0000;fill-opacity:1;fill-rule:nonzero;stroke:none;stroke-width:0.264582"
         d="m 79.417467,50.720456 v 8.904429 c 1.173203,0.04202 2.336941,0.150487 3.49004,0.333676 1.19003,-0.258638 2.387497,-0.490963 3.603397,-0.496704 0.123949,-4.68e-4 0.248363,0.0011 0.372683,0.0055 0.488416,0.01669 0.970801,0.115341 1.458423,0.147791 0.162563,0.0093 0.324754,0.02545 0.487561,0.02834 0.465262,0.0083 0.932167,-0.05934 1.395956,-0.02133 1.273249,0.104345 2.478494,0.398263 3.731382,0.613415 1.177077,0.19322 2.363942,0.291161 3.530265,0.546681 0.658799,0.144328 0.85793,0.238688 1.551364,0.47568 1.198452,0.394255 0.03044,-0.09019 1.360612,0.946177 0.15447,0.120349 0.41211,0.09689 0.52961,0.253533 0.17723,0.236281 0.13739,0.584129 0.28888,0.837694 0.0885,0.148085 0.38688,0.151437 0.40468,0.323011 0.0684,0.657937 -0.11037,1.317887 -0.16547,1.97707 -0.0731,0.21828 -0.004,0.574119 -0.21971,0.655468 -0.46719,0.176513 -0.9996,-0.03774 -1.498033,-0.0064 -0.1659,0.01042 -0.316266,0.151666 -0.481164,0.130728 -0.26415,-0.03355 -0.44414,-0.06231 -0.595741,-0.08868 -0.0232,0.22698 -0.04066,0.454114 -0.03565,0.681979 0.0016,0.06884 0.191118,0.04825 0.171561,0.114272 -0.287654,0.971034 -0.225315,0.287285 -0.589037,0.311126 -1.21891,0.07989 0.01463,0.379964 -1.081172,0.01737 -0.477201,-0.127603 -0.982878,-0.296237 -1.472746,-0.378775 -0.240376,-0.0405 -0.482371,-0.07336 -0.724641,-0.103303 -0.05121,0.07573 -0.107318,0.14418 -0.189541,0.177352 -0.112027,0.04519 -0.20993,-0.133688 -0.329714,-0.149316 -1.796785,-0.234504 0.15766,0.326634 -1.613225,-0.266638 -0.411382,-0.07966 -0.827967,-0.138683 -1.234754,-0.23921 -0.114795,-0.02837 -0.226287,-0.06751 -0.337333,-0.108482 -0.201293,-0.05169 -0.800434,-0.215187 -0.842266,-0.218795 -0.256281,-0.02209 -0.514344,0.01616 -0.771569,0.01767 -1.163596,0.0067 -0.916063,0.0094 -1.842683,-0.04815 -0.346356,-0.0343 -0.694818,-0.05386 -1.039425,-0.102692 -0.05727,-0.0081 0.229322,-0.0076 0.17278,-0.01981 -0.13382,-0.02888 -0.273311,-0.04119 -0.409857,-0.03139 -0.693989,0.04997 -1.382685,0.173454 -2.067573,0.31722 0.365749,0.267232 0.767348,0.560949 0.909915,0.662478 -0.313866,-0.21413 -0.634379,-0.398847 0.431493,0.52413 0.02487,0.02154 0.04362,-0.06548 0.02864,-0.09477 -0.02569,-0.05026 -0.182347,-0.13053 -0.131338,-0.10635 0.654159,0.310055 0.691378,0.356635 1.20611,0.701787 0.0432,0.03339 0.0594,0.04794 0.09904,0.07862 0.259386,0.06532 0.430812,0.163754 0.398583,0.314479 0.587195,0.483786 0.365879,0.491046 -0.297718,0.94953 -0.75633,2.373338 -1.155119,3.211759 -1.569954,3.255095 0.03754,0.125595 0.07567,0.250958 0.102388,0.379079 0.04373,0.209766 0.04985,0.42587 0.08532,0.637185 0.06655,0.39645 0.160193,0.788266 0.220624,1.185694 0.110411,0.726207 0.14674,1.461471 0.218489,2.192511 0.0045,0.151606 0.0119,0.30307 0.01706,0.454654 0.790932,0.0019 1.58235,0.0069 2.372604,-0.0061 0.08712,0.208058 0.04903,0.50933 0.04997,0.7219 0.0028,0.634842 0.0053,1.269964 0.0079,1.904848 0.05556,2.328169 0.115617,4.663062 -0.03474,6.98861 0.862355,-0.02844 1.725787,5e-5 2.588657,0.0125 1.145521,4.68e-4 2.290885,-0.0017 3.436407,-0.0012 0.371701,-0.01593 0.743679,-0.01385 1.115606,-0.01279 0.110264,-0.03873 0.219731,-0.07202 0.329105,-0.104825 0.435824,-1.327185 1.406707,-2.065248 2.463109,-2.126995 1.510821,-0.08831 3.193623,1.202034 3.725903,4.113207 0.0667,0.36455 0.1195,0.731911 0.1999,1.093664 0.0863,0.387957 0.27167,0.929151 0.34587,1.362131 0.14305,0.834628 0.22789,1.676739 0.34129,2.515522 0.15191,0.951588 0.25609,1.908866 0.35623,2.866569 h 27.49643 V 50.720456 Z M 98.98003,64.793057 c -0.1567,0.03181 -0.202442,0.502591 -0.219097,0.587819 -0.0084,0.09943 -0.02195,0.198987 -0.03321,0.298328 0.06776,-0.05246 0.154185,-0.113399 0.29467,-0.194721 0.112157,-0.06493 0.425003,0.02393 0.376643,-0.09629 -0.191255,-0.475476 -0.324983,-0.614215 -0.419001,-0.595131 z" />
    </clipPath>
    <clipPath
       clipPathUnits="userSpaceOnUse"
       id="clipPath2312">
      <path
         id="path2314"
         style="fill:#ff0000;fill-opacity:1;fill-rule:nonzero;stroke:none;stroke-width:0.264583"
         d="m 44.815353,104.08098 v 78.00455 h 87.370377 v -78.00455 z m 69.193707,12.96562 c 1.85568,-0.06 3.5301,1.92575 2.76107,5.46478 -0.0747,0.34392 -0.11412,0.6972 -0.22428,1.03146 -0.3324,1.0087 -0.65666,1.79454 -1.36219,2.58331 -0.68973,0.77111 -0.76316,0.7292 -1.07383,0.90382 -0.0525,0.057 -0.1042,0.10923 -0.11576,0.12144 -0.1312,0.0775 -0.51298,0.32748 -0.39377,0.23254 0.24052,-0.19155 0.39011,-0.28686 0.50953,-0.35398 0.17635,-0.19135 0.40226,-0.48603 -0.50488,0.077 -0.092,0.0571 -0.0257,0.26 -0.12661,0.29921 -0.49023,0.19059 -1.0744,0.10154 -1.53892,0.34829 -0.20332,0.10798 -0.19614,0.41698 -0.29404,0.62529 -0.4255,0.0989 -0.85092,0.19772 -1.27641,0.29662 0.39171,0.14145 -0.21995,0.60208 -0.40049,0.64131 7.9e-4,0.0563 -0.0194,0.12188 -0.0755,0.0858 -0.46897,-0.30211 -0.58133,-0.45475 -0.33279,-1.00201 -0.23999,-0.44684 -0.47987,-0.89365 -0.71986,-1.34048 0.0945,-0.20096 0.34179,-0.38889 0.28319,-0.60307 -0.13152,-0.48101 -0.63562,-0.79452 -0.79478,-1.2671 -0.0554,-0.16437 0.18562,-0.3054 0.20722,-0.4775 0.20724,-1.65006 -0.43149,-0.34945 0.4811,-1.74924 0.36702,-0.35782 0.72696,-0.7231 1.10123,-1.07332 0.0209,-0.0195 0.1324,-0.0633 0.0956,0.0403 -0.0498,0.13999 -0.17362,0.25577 -0.18862,0.40359 -0.008,0.0793 0.11027,-0.115 0.16537,-0.1726 0.0747,-0.34391 0.14906,-0.68807 0.22376,-1.03198 0.59814,-2.75258 2.1513,-4.03678 3.59461,-4.08347 z" />
    </clipPath>
    <clipPath
       clipPathUnits="userSpaceOnUse"
       id="clipPath2322">
      <path
         id="path2324"
         style="fill:#ff0000;fill-opacity:1;fill-rule:nonzero;stroke:none;stroke-width:0.264583"
         d="M 58.340109,62.382239 V 122.85503 H 109.1277 c 0.32886,-0.32283 0.65417,-0.64943 0.99064,-0.96428 0.0209,-0.0195 0.1324,-0.0633 0.0956,0.0403 -0.0498,0.13999 -0.17362,0.25577 -0.18862,0.40359 -0.008,0.0793 0.11027,-0.115 0.16537,-0.1726 0.0747,-0.34391 0.14906,-0.68807 0.22376,-1.03198 0.59814,-2.75258 2.1513,-4.03678 3.59461,-4.08347 1.85568,-0.06 3.5301,1.92575 2.76107,5.46478 -0.0247,0.11377 -0.0443,0.22886 -0.0651,0.34365 h 2.1084 V 62.382239 Z" />
    </clipPath>
  </defs>
  <sodipodi:namedview
     id="base"
     pagecolor="#ffffff"
     bordercolor="#666666"
     borderopacity="1.0"
     inkscape:pageopacity="0.0"
     inkscape:pageshadow="2"
     inkscape:zoom="0.93566975"
     inkscape:cx="400"
     inkscape:cy="372.91834"
     inkscape:document-units="mm"
     inkscape:current-layer="layer1"
     inkscape:document-rotation="0"
     showgrid="false"
     units="px"
     inkscape:window-width="1920"
     inkscape:window-height="1001"
     inkscape:window-x="-9"
     inkscape:window-y="-9"
     inkscape:window-maximized="1" />
  <metadata
     id="metadata1502">
    <rdf:RDF>
      <cc:Work
         rdf:about="">
        <dc:format>image/svg+xml</dc:format>
        <dc:type
           rdf:resource="http://purl.org/dc/dcmitype/StillImage" />
        <dc:title></dc:title>
      </cc:Work>
    </rdf:RDF>
  </metadata>
  <g
     inkscape:label="Layer 1"
     inkscape:groupmode="layer"
     id="layer1">
    <path
       id="path889-8"
       style="fill:none;fill-opacity:1;fill-rule:nonzero;stroke:#147475;stroke-width:4.14635;stroke-miterlimit:4;stroke-dasharray:none;stroke-opacity:1"
       d="M 70.805216,53.277416 A 15.779589,15.779589 0 0 1 57.847825,60.05157 15.779589,15.779589 0 0 1 44.90246,53.29511 37.497557,33.03967 0 0 0 34.116071,58.73571 v 36.020599 h 47.37457 V 58.624607 A 37.497557,33.03967 0 0 0 70.805216,53.277416 Z"
       clip-path="url(#clipPath2272)"
       transform="matrix(1.6958266,0,0,1.6958266,-44.982953,-34.821906)" />
    <circle
       style="fill:none;fill-opacity:1;fill-rule:nonzero;stroke:#147475;stroke-width:4.10073;stroke-miterlimit:4;stroke-dasharray:none;stroke-opacity:1"
       id="path889-7"
       cx="57.848274"
       cy="44.07235"
       r="15.779588"
       clip-path="url(#clipPath2194)"
       transform="matrix(1.6958266,0,0,1.6958266,-44.982953,-34.821906)" />
    <path
       id="path889-8-1"
       style="fill:none;fill-opacity:1;fill-rule:nonzero;stroke:#147475;stroke-width:4.14634;stroke-miterlimit:4;stroke-dasharray:none;stroke-opacity:1"
       d="M 118.17979,53.166314 A 15.779589,15.779589 0 0 1 105.2224,59.940468 15.779589,15.779589 0 0 1 92.27703,53.184009 37.497557,33.039669 0 0 0 81.490641,58.624607 V 94.645203 H 128.86522 V 58.513506 a 37.497557,33.039669 0 0 0 -10.68543,-5.347192 z"
       clip-path="url(#clipPath2302)"
       transform="matrix(1.6958266,0,0,1.6958266,-44.982953,-34.821906)" />
    <circle
       style="fill:none;fill-opacity:1;fill-rule:nonzero;stroke:#147475;stroke-width:4.10072;stroke-miterlimit:4;stroke-dasharray:none;stroke-opacity:1"
       id="path889-7-6"
       cx="105.22284"
       cy="43.961246"
       r="15.779589"
       clip-path="url(#clipPath2214)"
       transform="matrix(1.6958266,0,0,1.6958266,-44.982953,-34.821906)" />
    <path
       id="path889-8-1-9"
       style="fill:none;fill-opacity:1;fill-rule:nonzero;stroke:#147475;stroke-width:7.03148;stroke-miterlimit:4;stroke-dasharray:none;stroke-opacity:1"
       d="m 110.54958,108.22886 a 26.759447,26.759447 0 0 1 -21.973482,11.48779 26.759447,26.759447 0 0 1 -21.953104,-11.45779 63.589357,56.029553 0 0 0 -18.291846,9.22632 v 61.08467 h 80.339092 v -61.27309 a 63.589357,56.029553 0 0 0 -18.12066,-9.0679 z"
       clip-path="url(#clipPath2312)" />
    <circle
       style="fill:none;fill-opacity:1;fill-rule:nonzero;stroke:#147475;stroke-width:6.9541;stroke-miterlimit:4;stroke-dasharray:none;stroke-opacity:1"
       id="path889-7-6-9"
       cx="88.576836"
       cy="92.618645"
       r="26.759449"
       clip-path="url(#clipPath2322)" />
  </g>
</svg>
