<?xml version="1.0" encoding="UTF-8" standalone="no"?>
<svg
   xmlns:dc="http://purl.org/dc/elements/1.1/"
   xmlns:cc="http://creativecommons.org/ns#"
   xmlns:rdf="http://www.w3.org/1999/02/22-rdf-syntax-ns#"
   xmlns:svg="http://www.w3.org/2000/svg"
   xmlns="http://www.w3.org/2000/svg"
   xmlns:xlink="http://www.w3.org/1999/xlink"
   xmlns:sodipodi="http://sodipodi.sourceforge.net/DTD/sodipodi-0.dtd"
   xmlns:inkscape="http://www.inkscape.org/namespaces/inkscape"
   width="450"
   height="200"
   viewBox="0 0 119.0625 52.916668"
   version="1.1"
   id="svg985"
   inkscape:version="1.0.1 (3bc2e813f5, 2020-09-07)"
   sodipodi:docname="_card.svg">
  <defs
     id="defs979">
    <linearGradient
       inkscape:collect="always"
       xlink:href="#linearGradient1591"
       id="linearGradient1593"
       x1="64.931725"
       y1="66.139992"
       x2="26.575043"
       y2="16.044476"
       gradientUnits="userSpaceOnUse"
       gradientTransform="translate(-0.21762885,-0.08477442)" />
    <linearGradient
       inkscape:collect="always"
       id="linearGradient1591">
      <stop
         style="stop-color:#065c77;stop-opacity:1"
         offset="0"
         id="stop1587" />
      <stop
         style="stop-color:#0e9594;stop-opacity:1"
         offset="1"
         id="stop1589" />
    </linearGradient>
  </defs>
  <sodipodi:namedview
     id="base"
     pagecolor="#ffffff"
     bordercolor="#666666"
     borderopacity="1.0"
     inkscape:pageopacity="0.0"
     inkscape:pageshadow="2"
     inkscape:zoom="1.8220149"
     inkscape:cx="287.69433"
     inkscape:cy="140.46437"
     inkscape:document-units="mm"
     inkscape:current-layer="layer2"
     inkscape:document-rotation="0"
     showgrid="false"
     units="px"
     inkscape:window-width="1920"
     inkscape:window-height="1001"
     inkscape:window-x="-9"
     inkscape:window-y="-9"
     inkscape:window-maximized="1" />
  <metadata
     id="metadata982">
    <rdf:RDF>
      <cc:Work
         rdf:about="">
        <dc:format>image/svg+xml</dc:format>
        <dc:type
           rdf:resource="http://purl.org/dc/dcmitype/StillImage" />
        <dc:title></dc:title>
      </cc:Work>
    </rdf:RDF>
  </metadata>
  <g
     inkscape:label="Layer 1"
     inkscape:groupmode="layer"
     id="layer1" />
  <g
     inkscape:groupmode="layer"
     id="layer2"
     inkscape:label="Layer 2">
    <rect
       style="fill:url(#linearGradient1593);fill-opacity:1;stroke-width:0.454446;stroke-linecap:round;stroke-linejoin:round"
       id="rect1548"
       width="119.0625"
       height="52.916668"
       x="-0.021629941"
       y="0.077875242"
       rx="0.23668672"
       ry="0.23668672" />
    <path
       id="path1580"
       style="fill:#4fb2b2;fill-opacity:1;fill-rule:evenodd;stroke:none;stroke-width:0.138067;stroke-opacity:1"
       d="m 40.664576,47.380879 c -0.145459,0.0068 -0.215097,-0.163055 -0.188885,-0.284382 0.04691,-0.217128 0.296636,-0.308652 0.492998,-0.245328 0.288227,0.09295 0.404341,0.431801 0.301771,0.701616 -0.136724,0.359661 -0.567496,0.500898 -0.910233,0.358214 -0.431329,-0.179567 -0.597897,-0.703438 -0.414656,-1.11885 0.22194,-0.503145 0.839515,-0.695151 1.327467,-0.4711 0.575055,0.264047 0.792564,0.975679 0.527542,1.536085 -0.305987,0.647029 -1.111898,0.890083 -1.744702,0.583985 -0.719047,-0.347817 -0.987677,-1.248158 -0.640427,-1.953319 0.389569,-0.791099 1.384446,-1.085326 2.161936,-0.69687 0.863174,0.431265 1.183014,1.520756 0.753313,2.370553 -0.47292,0.935267 -1.657085,1.280733 -2.57917,0.809755 -1.007376,-0.514542 -1.378478,-1.793425 -0.866199,-2.787787 0.556139,-1.079496 1.929778,-1.476242 2.996405,-0.922641 1.151625,0.597716 1.574021,2.066138 0.979084,3.205021 -0.639277,1.223763 -2.202507,1.671815 -3.413639,1.035527 -1.295906,-0.680824 -1.769618,-2.33888 -1.09197,-3.622256 0.72236,-1.368054 2.47526,-1.86743 3.830874,-1.148412 1.440207,0.763887 1.96525,2.611643 1.204855,4.03949 -0.09221,0.173142 -0.201122,0.337345 -0.324681,0.489701 M 37.013037,14.804737 c 1.257768,-0.869092 2.451694,-1.82636 3.672899,-2.745359 1.339614,-0.996163 2.699233,-1.965141 4.070285,-2.9174699 0.179151,-0.123505 0.35795,-0.247565 0.539214,-0.367966 0.180608,-0.121032 0.0094,-0.376451 -0.171166,-0.25542 v 0 c -0.181868,0.122921 -0.361747,0.248752 -0.541869,0.374209 -1.370105,0.959828 -2.731289,1.9325799 -4.074369,2.9299629 -1.216143,0.913044 -2.405164,1.864653 -3.660506,2.723926 -0.182516,0.117035 -0.01701,0.375152 0.165512,0.258117 z m 2.217503,3.153836 c 1.257769,-0.869092 2.451695,-1.82636 3.6729,-2.745359 1.339614,-0.996163 2.699233,-1.965141 4.070285,-2.91747 0.179151,-0.123505 0.35795,-0.247565 0.539214,-0.367966 0.180608,-0.121032 0.0094,-0.376451 -0.171166,-0.25542 v 0 c -0.181868,0.122921 -0.361747,0.248752 -0.541868,0.374209 -1.370106,0.959828 -2.73129,1.93258 -4.07437,2.929963 -1.216143,0.913044 -2.405165,1.864653 -3.660506,2.723926 -0.182517,0.117035 -0.01701,0.375152 0.165511,0.258117 z m 0.110951,-2.401547 c 1.827868,-1.263018 3.562957,-2.654179 5.337688,-3.989726 1.94681,-1.447688 3.922693,-2.8558659 5.915191,-4.2398499 0.260355,-0.179485 0.520196,-0.359778 0.783621,-0.534751 0.26247,-0.175892 0.01373,-0.547083 -0.248749,-0.371193 v 0 c -0.264301,0.178636 -0.525713,0.361502 -0.787478,0.543823 -1.991123,1.394883 -3.96928,2.808547 -5.921128,4.2580059 -1.767375,1.326892 -3.495336,2.709831 -5.319677,3.95858 -0.265244,0.170082 -0.02471,0.545194 0.240532,0.375111 z m 0,0 c 1.827868,-1.263018 3.562957,-2.654179 5.337688,-3.989726 1.94681,-1.447688 3.922693,-2.8558659 5.915191,-4.2398499 0.260355,-0.179485 0.520196,-0.359778 0.783621,-0.534751 0.26247,-0.175892 0.01373,-0.547083 -0.248749,-0.371193 v 0 c -0.264301,0.178636 -0.525713,0.361502 -0.787478,0.543823 -1.991123,1.394883 -3.96928,2.808547 -5.921128,4.2580059 -1.767375,1.326892 -3.495336,2.709831 -5.319677,3.95858 -0.265244,0.170082 -0.02471,0.545194 0.240532,0.375111 z m 18.603031,26.096177 c -0.569469,0.182774 -1.025927,-0.421282 -1.050892,-0.934201 -0.04468,-0.917927 0.848109,-1.551086 1.693825,-1.508288 1.24137,0.06282 2.061628,1.292619 1.941615,2.480695 -0.159976,1.583694 -1.717684,2.609378 -3.227979,2.406175 -1.900687,-0.255728 -3.117501,-2.170887 -2.832339,-4.027188 0.345387,-2.248341 2.589721,-3.676935 4.762134,-3.304064 2.560207,0.439433 4.178416,3.050381 3.723062,5.573683 -0.525738,2.913332 -3.462476,4.747597 -6.296288,4.20195 -3.220028,-0.620012 -5.241354,-3.930348 -4.613785,-7.120175 0.70405,-3.578568 4.335559,-5.819673 7.830442,-5.099838 3.880039,0.799164 6.305306,4.810557 5.504509,8.666669 -0.881341,4.243954 -5.208824,6.89251 -9.364597,5.997725 -4.540168,-0.977549 -7.369836,-5.690907 -6.395232,-10.213162 1.058047,-4.909436 6.0822,-7.965804 10.898751,-6.895613 5.200375,1.155473 8.434728,6.571348 7.285955,11.759656 -1.234387,5.574982 -6.955648,9.039393 -12.432904,7.7935 -5.860636,-1.333098 -9.499861,-7.45185 -8.17668,-13.306149 1.410486,-6.240574 7.829149,-10.113184 13.967059,-8.691388 6.520935,1.51052 10.565161,8.332395 9.067403,14.852643 -0.181619,0.790648 -0.438977,1.563471 -0.766969,2.304626 m -61.5672926,0.81282 c 1.6145551,-1.115624 3.1471596,-2.344437 4.7147796,-3.524125 1.719617,-1.278742 3.464915,-2.522586 5.224888,-3.745059 0.229971,-0.158539 0.459489,-0.317791 0.692171,-0.472346 0.231841,-0.155365 0.01212,-0.483238 -0.219719,-0.327874 v 0 c -0.233458,0.157789 -0.464363,0.319314 -0.695579,0.480359 -1.758759,1.2321 -3.506065,2.480789 -5.230132,3.761096 -1.561122,1.172044 -3.0874306,2.393593 -4.6988706,3.496613 -0.23429,0.150234 -0.02183,0.48157 0.212462,0.331336 z m 2.8465366,4.048474 c 1.614555,-1.115624 3.147159,-2.344437 4.714779,-3.524125 1.719617,-1.278742 3.464915,-2.522586 5.224888,-3.745059 0.229971,-0.158539 0.459489,-0.317791 0.692171,-0.472346 0.231841,-0.155365 0.01212,-0.483238 -0.219719,-0.327874 v 0 c -0.233458,0.157789 -0.464363,0.319314 -0.695579,0.480359 -1.758759,1.2321 -3.506065,2.480789 -5.230132,3.761096 -1.561122,1.172044 -3.08743,2.393593 -4.69887,3.496613 -0.23429,0.150234 -0.02183,0.48157 0.212462,0.331336 z m 0.142424,-3.082785 c 2.346373,-1.621295 4.573648,-3.407082 6.851811,-5.121479 2.499056,-1.858348 5.035431,-3.665979 7.593134,-5.442553 0.334209,-0.230399 0.667758,-0.461835 1.005907,-0.686443 0.336925,-0.225786 0.01762,-0.702272 -0.31931,-0.476487 v 0 c -0.339275,0.229309 -0.674841,0.464047 -1.010859,0.698087 -2.555939,1.790565 -5.095232,3.605238 -7.600754,5.46586 -2.268721,1.703287 -4.486847,3.478519 -6.828692,5.081497 -0.340485,0.218329 -0.03172,0.699847 0.308763,0.481518 z m 0,0 c 2.346373,-1.621295 4.573648,-3.407082 6.851811,-5.121479 2.499056,-1.858348 5.035431,-3.665979 7.593134,-5.442553 0.334209,-0.230399 0.667758,-0.461835 1.005907,-0.686443 0.336925,-0.225786 0.01762,-0.702272 -0.31931,-0.476487 v 0 c -0.339275,0.229309 -0.674841,0.464047 -1.010859,0.698087 -2.555939,1.790565 -5.095232,3.605238 -7.600754,5.46586 -2.268721,1.703287 -4.486847,3.478519 -6.828692,5.081497 -0.340485,0.218329 -0.03172,0.699847 0.308763,0.481518 z m 23.921216,-15.68025 c -0.278748,0.01296 -0.4122,-0.312468 -0.361969,-0.544972 0.08989,-0.416091 0.568457,-0.591483 0.944753,-0.470132 0.552341,0.178124 0.774853,0.827478 0.578296,1.344534 -0.262011,0.689232 -1.087517,0.959891 -1.744316,0.686459 -0.826573,-0.34411 -1.145773,-1.348025 -0.794622,-2.144096 0.425312,-0.964197 1.608797,-1.332145 2.543878,-0.902786 1.102,0.506003 1.518821,1.869731 1.010949,2.943659 -0.586375,1.239927 -2.130774,1.705702 -3.34344,1.119113 -1.377939,-0.666535 -1.892725,-2.391893 -1.227276,-3.743222 0.746546,-1.516013 2.653068,-2.079851 4.143002,-1.335439 1.654134,0.82645 2.267056,2.914285 1.443603,4.542783 -0.906274,1.79229 -3.175536,2.454321 -4.942565,1.551767 -1.930474,-0.986037 -2.641631,-3.436812 -1.65993,-5.342346 1.065752,-2.06868 3.698108,-2.82898 5.742128,-1.768094 2.206904,1.145427 3.016358,3.959422 1.876257,6.141909 -1.225072,2.345143 -4.220749,3.203763 -6.54169,1.98442 -2.483395,-1.304689 -3.391188,-4.482088 -2.092584,-6.941471 1.384287,-2.621656 4.743437,-3.578629 7.341252,-2.200747 2.759927,1.463866 3.766087,5.004794 2.308911,7.741033 -0.176698,0.331798 -0.385418,0.646468 -0.622198,0.938432 M 16.021392,17.893035 c -0.708085,0.227263 -1.275651,-0.523827 -1.306692,-1.161598 -0.05555,-1.141363 1.05455,-1.928641 2.106124,-1.875426 1.543536,0.07811 2.563457,1.607261 2.414231,3.084529 -0.198917,1.969187 -2.135792,3.244537 -4.013713,2.991872 -2.36334,-0.317976 -3.876343,-2.699311 -3.521768,-5.007461 0.429459,-2.795617 3.220093,-4.57195 5.921301,-4.108317 3.183395,0.546397 5.195499,3.792885 4.629305,6.930392 -0.65371,3.622477 -4.305289,5.903226 -7.828888,5.224762 -4.003827,-0.770931 -6.5171725,-4.887048 -5.7368447,-8.853322 0.8754262,-4.44964 5.3908937,-7.23626 9.7364777,-6.341208 4.824493,0.9936921 7.840103,5.981512 6.844381,10.776253 -1.095871,5.27699 -6.476722,8.57024 -11.644065,7.457653 C 7.9759332,25.795666 4.4574861,19.935013 5.6693219,14.31198 6.9849113,8.2075214 13.232012,4.4071922 19.220976,5.737882 25.687193,7.1746128 29.70883,13.908785 28.280431,20.359997 26.745577,27.292004 19.631685,31.5997 12.82119,30.05054 5.5339958,28.392947 1.0089355,20.784809 2.6541964,13.505495 4.4080138,5.7458816 12.389066,0.93062556 20.021026,2.6985058 28.129244,4.5767069 33.157889,13.059118 31.295557,21.166482 c -0.225827,0.983102 -0.54583,1.944041 -0.95366,2.865603 M -0.02162994,0.07787524 H 118.56749 c 0.13112,0 0.23668,0.10556227 0.23668,0.23668672 V 52.757857 c 0,0.131124 -0.10556,0.236686 -0.23668,0.236686 H -0.02162994 c -0.13112444,0 -0.23668672,-0.105562 -0.23668672,-0.236686 V 0.31456196 c 0,-0.13112445 0.10556228,-0.23668672 0.23668672,-0.23668672 z m 0,0 H 118.56749 c 0.13112,0 0.23668,0.10556227 0.23668,0.23668672 V 52.757857 c 0,0.131124 -0.10556,0.236686 -0.23668,0.236686 H -0.02162994 c -0.13112444,0 -0.23668672,-0.105562 -0.23668672,-0.236686 V 0.31456196 c 0,-0.13112445 0.10556228,-0.23668672 0.23668672,-0.23668672 z" />
  </g>
</svg>
