<?xml version="1.0" encoding="UTF-8" standalone="no"?>
<svg
   xmlns:dc="http://purl.org/dc/elements/1.1/"
   xmlns:cc="http://creativecommons.org/ns#"
   xmlns:rdf="http://www.w3.org/1999/02/22-rdf-syntax-ns#"
   xmlns:svg="http://www.w3.org/2000/svg"
   xmlns="http://www.w3.org/2000/svg"
   xmlns:sodipodi="http://sodipodi.sourceforge.net/DTD/sodipodi-0.dtd"
   xmlns:inkscape="http://www.inkscape.org/namespaces/inkscape"
   width="700"
   height="700"
   viewBox="0 0 185.20833 185.20834"
   version="1.1"
   id="svg1443"
   inkscape:version="1.0.1 (3bc2e813f5, 2020-09-07)"
   sodipodi:docname="ic_diseaseIndex_clicked.svg"
   inkscape:export-filename="D:\_Personal(Clark)\Downloads\_cert_talline\jpg\App Abaca\UI\vector\icons\newVectors\ic_diseaseIndex_clicked.png"
   inkscape:export-xdpi="96"
   inkscape:export-ydpi="96">
  <defs
     id="defs1437" />
  <sodipodi:namedview
     id="base"
     pagecolor="#ffffff"
     bordercolor="#666666"
     borderopacity="1.0"
     inkscape:pageopacity="0.0"
     inkscape:pageshadow="2"
     inkscape:zoom="0.35"
     inkscape:cx="342.85714"
     inkscape:cy="560"
     inkscape:document-units="mm"
     inkscape:current-layer="layer1"
     inkscape:document-rotation="0"
     showgrid="false"
     units="px"
     inkscape:window-width="1431"
     inkscape:window-height="1019"
     inkscape:window-x="64"
     inkscape:window-y="0"
     inkscape:window-maximized="0" />
  <metadata
     id="metadata1440">
    <rdf:RDF>
      <cc:Work
         rdf:about="">
        <dc:format>image/svg+xml</dc:format>
        <dc:type
           rdf:resource="http://purl.org/dc/dcmitype/StillImage" />
        <dc:title></dc:title>
      </cc:Work>
    </rdf:RDF>
  </metadata>
  <g
     inkscape:label="Layer 1"
     inkscape:groupmode="layer"
     id="layer1">
    <path
       id="rect855"
       style="display:inline;fill:#065c77;fill-opacity:1;stroke:#065c77;stroke-width:2;stroke-linecap:round;stroke-linejoin:round;stroke-miterlimit:4;stroke-dasharray:none;stroke-opacity:1"
       d="M 14.271566,1.8212871 H 174.71655 c 6.72992,0 12.14788,5.41796 12.14788,12.1478889 V 174.41416 c 0,6.72992 -5.41796,12.14788 -12.14788,12.14788 H 14.271566 c -6.7299303,0 -12.1478903,-5.41796 -12.1478903,-12.14788 V 13.969176 c 0,-6.7299289 5.41796,-12.1478889 12.1478903,-12.1478889 z" />
    <path
       id="rect835"
       style="fill:#ffffff;fill-opacity:1;stroke-width:0.735796"
       d="m 25.617706,23.019566 c -5.7794,0 -10.43222,7.25428 -10.43222,16.26484 v 19.72614 c -0.017,0.38189 -0.0289,0.76601 -0.0289,1.15488 v 93.057184 c 0,9.01056 4.65282,16.26436 10.43222,16.26436 H 167.65843 c 5.7794,0 10.43222,-7.2538 10.43222,-16.26436 V 60.165426 c 0,-9.01056 -4.65282,-16.26437 -10.43222,-16.26437 H 96.625736 v -4.61665 c 0,-9.01056 -4.65282,-16.26484 -10.43221,-16.26484 z m 29.34786,37.12975 a 22.067416,22.067416 0 0 1 0.036,0 22.067416,22.067416 0 0 1 22.06715,22.06715 22.067416,22.067416 0 0 1 -22.06715,22.067614 22.067416,22.067416 0 0 1 -22.06762,-22.067614 22.067416,22.067416 0 0 1 22.03162,-22.06715 z m 38.95443,18.51301 h 62.956644 c 3.08517,0 5.56878,2.78279 5.56878,6.23953 0,3.45674 -2.48361,6.23953 -5.56878,6.23953 H 93.919996 c -3.08517,0 -5.56877,-2.78279 -5.56877,-6.23953 0,-3.45674 2.4836,-6.23953 5.56877,-6.23953 z m 0,25.912124 h 62.956644 c 3.08517,0 5.56878,2.7828 5.56878,6.23954 0,3.45672 -2.48361,6.23952 -5.56878,6.23952 H 93.919996 c -3.08518,0 -5.56877,-2.7828 -5.56877,-6.23952 0,-3.45674 2.48359,-6.23954 5.56877,-6.23954 z m -49.87598,24.16042 H 152.82322 c 5.33071,0 9.6222,2.7828 9.6222,6.23952 0,3.45675 -4.29149,6.23953 -9.6222,6.23953 H 44.044016 c -5.33072,0 -9.62266,-2.78278 -9.62266,-6.23953 0,-3.45672 4.29194,-6.23952 9.62266,-6.23952 z" />
  </g>
</svg>
