<?xml version="1.0" encoding="UTF-8" standalone="no"?>
<svg
   xmlns:dc="http://purl.org/dc/elements/1.1/"
   xmlns:cc="http://creativecommons.org/ns#"
   xmlns:rdf="http://www.w3.org/1999/02/22-rdf-syntax-ns#"
   xmlns:svg="http://www.w3.org/2000/svg"
   xmlns="http://www.w3.org/2000/svg"
   xmlns:sodipodi="http://sodipodi.sourceforge.net/DTD/sodipodi-0.dtd"
   xmlns:inkscape="http://www.inkscape.org/namespaces/inkscape"
   width="700"
   height="700"
   viewBox="0 0 185.20833 185.20834"
   version="1.1"
   id="svg8"
   inkscape:version="1.0.1 (3bc2e813f5, 2020-09-07)"
   sodipodi:docname="ic_m_logo.svg"
   inkscape:export-filename="D:\_Personal(Clark)\Downloads\_cert_talline\jpg\App Abaca\UI\vector\icons\newVectors\logo.png"
   inkscape:export-xdpi="96"
   inkscape:export-ydpi="96">
  <defs
     id="defs2" />
  <sodipodi:namedview
     id="base"
     pagecolor="#ffffff"
     bordercolor="#666666"
     borderopacity="1.0"
     inkscape:pageopacity="0.0"
     inkscape:pageshadow="2"
     inkscape:zoom="0.6309176"
     inkscape:cx="374.58476"
     inkscape:cy="562.46526"
     inkscape:document-units="mm"
     inkscape:current-layer="layer1"
     inkscape:document-rotation="0"
     showgrid="false"
     units="px"
     inkscape:window-width="1920"
     inkscape:window-height="1001"
     inkscape:window-x="-9"
     inkscape:window-y="-9"
     inkscape:window-maximized="1"
     inkscape:snap-nodes="false"
     inkscape:snap-others="false" />
  <metadata
     id="metadata5">
    <rdf:RDF>
      <cc:Work
         rdf:about="">
        <dc:format>image/svg+xml</dc:format>
        <dc:type
           rdf:resource="http://purl.org/dc/dcmitype/StillImage" />
        <dc:title />
      </cc:Work>
    </rdf:RDF>
  </metadata>
  <g
     inkscape:label="Layer 1"
     inkscape:groupmode="layer"
     id="layer1">
    <circle
       style="fill:#ffffff;stroke:none;stroke-width:4.929;stroke-linecap:round;stroke-linejoin:round"
       id="path835"
       cx="92.309914"
       cy="92.277367"
       r="87.996468" />
    <circle
       style="fill:none;fill-opacity:1;stroke:none;stroke-width:1.34972;stroke-linecap:round;stroke-linejoin:round;stroke-miterlimit:4;stroke-dasharray:none;stroke-dashoffset:0;stroke-opacity:1"
       id="circle2451"
       cx="93.324348"
       cy="90.073097"
       r="80.480247" />
    <path
       id="path2559"
       style="fill:#065c77;fill-opacity:1;stroke:#ffffff;stroke-width:0.106269;stroke-linecap:round;stroke-linejoin:round;stroke-miterlimit:4;stroke-dasharray:none;stroke-dashoffset:0;stroke-opacity:1"
       d="M 172.265,91.301796 A 80.002693,80.002693 0 0 1 92.262306,171.30449 80.002693,80.002693 0 0 1 12.259613,91.301796 80.002693,80.002693 0 0 1 92.262306,11.299103 80.002693,80.002693 0 0 1 172.265,91.301796 Z" />
    <path
       id="circle2561"
       style="fill:#4fb2b2;fill-opacity:1;stroke:#ffffff;stroke-width:0.1062693;stroke-linecap:round;stroke-linejoin:round;stroke-miterlimit:4;stroke-dasharray:none;stroke-dashoffset:0;stroke-opacity:1"
       d="m 92.231526,12.390025 a 79.448642,79.448642 0 0 0 -79.423862,79.448235 79.448642,79.448642 0 0 0 79.448703,79.44868 79.448642,79.448642 0 0 0 1.098617,-0.008 V 12.397385 a 79.448642,79.448642 0 0 0 -1.098617,-0.0074 79.448642,79.448642 0 0 0 -0.02484,0 z" />
    <path
       id="rect2439"
       style="fill:#4fb2b2;fill-opacity:1;stroke:none;stroke-width:0.90664;stroke-linecap:round;stroke-linejoin:round;stroke-miterlimit:4;stroke-dasharray:none;stroke-dashoffset:0;stroke-opacity:1"
       d="m 93.488652,22.706315 v 8.760817 c 0.331173,-0.839529 0.638723,-1.6883 0.91078,-2.550277 0.286768,-0.913595 0.399471,-1.230097 0.631894,-2.118051 0.08741,-0.33402 0.194641,-0.783973 0.259429,-1.16604 -0.615613,-1.124651 -1.171689,-2.047715 -1.645983,-2.726782 -0.05072,-0.07265 -0.103242,-0.13754 -0.15612,-0.199667 z m 2.016132,3.320225 c -0.197134,1.00491 -0.537007,2.012782 -0.838511,2.973703 -0.343429,1.088373 -0.742736,2.156208 -1.177621,3.209503 v 11.86053 c 1.446561,-3.192671 2.678102,-6.489344 3.35636,-9.938904 0.260747,-1.826988 0.502523,-3.620714 0.02223,-5.430399 -0.476056,-0.974436 -0.934489,-1.877589 -1.362464,-2.674433 z m 2.224138,4.480242 c 0.04823,1.227813 -0.115778,2.453704 -0.29371,3.708443 -0.766906,3.930008 -2.245824,7.663636 -3.94656,11.272181 v 12.202417 c 0.754605,-0.855789 1.464391,-1.751335 2.135654,-2.673507 0.383916,-0.571834 0.786277,-1.132074 1.151678,-1.715934 1.790606,-2.861395 3.198782,-5.972037 3.885406,-9.288013 0.26685,-1.476682 0.56004,-2.968895 0.4364,-4.477 -0.008,-0.197353 0.27155,-0.208518 0.27935,-0.01112 0.12485,1.528466 -0.17043,3.040945 -0.44057,4.537686 -0.69234,3.348209 -2.111998,6.49012 -3.919224,9.37974 -0.368252,0.588846 -0.773936,1.153574 -1.160943,1.7303 -0.73919,1.016187 -1.527386,1.997767 -2.367751,2.932471 v 10.688465 c 0.902627,-0.806334 1.78418,-1.639393 2.599383,-2.553059 0.487046,-0.552046 0.988552,-1.089864 1.461603,-1.656174 2.338389,-2.799338 4.392712,-5.911103 5.854752,-9.357502 0.71864,-1.864804 1.43975,-3.773916 1.6256,-5.810743 0.009,-0.08626 0.041,-0.149004 0.0848,-0.191791 -2.43063,-7.230819 -5.0904,-13.792858 -7.385844,-18.716864 z m 7.714758,19.702228 c -0.27379,1.819104 -0.92312,3.544328 -1.57324,5.233975 -1.48186,3.499608 -3.56447,6.659917 -5.937217,9.502505 -0.478762,0.57356 -0.986237,1.118381 -1.479208,1.677485 -0.925819,1.038078 -1.935001,1.975127 -2.965363,2.884756 V 79.94974 c 0.475933,-0.334472 1.070142,-0.750826 1.256839,-0.887618 1.605106,-1.176055 3.156079,-2.420767 4.609494,-3.768203 1.518055,-1.476456 2.143775,-2.015888 3.519435,-3.637098 1.86648,-2.199666 3.43811,-4.622899 4.70446,-7.182936 0.19567,-0.425273 0.4004,-0.846825 0.58696,-1.275832 0.23658,-0.544073 0.4474,-1.099236 0.63467,-1.661271 -1.00313,-3.847386 -2.14662,-7.665318 -3.35683,-11.327772 z m 3.47033,11.767874 c -0.15692,0.440905 -0.32896,0.876954 -0.51561,1.306409 -0.18806,0.432657 -0.39481,0.857589 -0.59206,1.286489 -1.27417,2.576987 -2.85548,5.016657 -4.73365,7.231115 -1.38557,1.633645 -2.01242,2.17333 -3.541201,3.660724 -1.460904,1.354799 -3.02005,2.606637 -4.633584,3.789051 -0.212374,0.155604 -0.906745,0.642432 -1.409253,0.995558 v 9.444596 c 0.02705,-0.01494 0.05522,-0.02766 0.08153,-0.04401 0.287596,-0.17885 0.960129,-0.664263 1.188738,-0.826468 0.860606,-0.642778 1.189888,-0.874377 2.066631,-1.596413 2.195793,-1.808376 4.268019,-3.792883 6.164679,-5.968252 0.52036,-0.628663 1.05778,-1.241074 1.56074,-1.886417 1.95058,-2.502779 3.62655,-5.267311 4.94536,-8.224356 0.34928,-0.868987 0.72058,-1.745495 0.94182,-2.667949 -0.45335,-2.160057 -0.96571,-4.333503 -1.52415,-6.500079 z m 1.77431,7.718006 c -0.2035,0.581671 -0.44297,1.150201 -0.66618,1.706207 -1.33807,3.006333 -3.03951,5.817102 -5.02087,8.361482 -0.51021,0.655186 -1.05561,1.276855 -1.58345,1.91514 -1.91874,2.202161 -4.015167,4.210889 -6.236942,6.041448 -0.888566,0.732067 -1.221956,0.967207 -2.094424,1.619115 -0.232684,0.16515 -0.918823,0.660524 -1.210975,0.842217 -0.117481,0.07311 -0.241779,0.1326 -0.362738,0.198741 -0.0082,0.0045 -0.01601,0.0065 -0.02409,0.01019 v 7.565589 c 0.04303,-0.02663 0.0862,-0.05316 0.129251,-0.0797 0.77692,-0.523756 1.103886,-0.735879 1.905411,-1.319378 2.232112,-1.625055 4.35559,-3.396443 6.395377,-5.261309 0.59809,-0.56672 1.20459,-1.124946 1.7947,-1.700182 2.39839,-2.33791 4.64883,-4.826789 6.69557,-7.485912 0.61145,-0.79809 1.21389,-1.603037 1.80304,-2.417787 -0.31757,-3.226539 -0.84235,-6.587323 -1.52369,-9.995884 z m 46.39235,6.441246 c -1.49443,2.693189 -3.11158,5.3152 -4.73411,7.932499 1.3028,-0.825816 2.56096,-1.719434 3.74319,-2.712422 0.59053,-0.4976 0.80428,-0.664219 1.34671,-1.167893 0.23407,-0.217344 0.55708,-0.529354 0.77319,-0.782919 0.0575,-0.06742 0.18137,-0.244083 0.25479,-0.347911 -0.0922,-1.337607 -0.38217,-2.270895 -0.89734,-2.692037 -0.14409,-0.11779 -0.30667,-0.193726 -0.48643,-0.229317 z m -0.55777,0.0139 c -0.10219,0.02196 -0.20799,0.05212 -0.31873,0.09451 -0.62384,0.238831 -1.41234,0.60376 -2.33207,1.076166 -0.12958,0.284396 -0.26168,0.632949 -0.35441,0.895492 -0.24648,0.697979 -0.31466,0.960505 -0.53646,1.700186 -0.35043,1.175338 -0.6245,2.369702 -0.84268,3.575022 1.50137,-2.422995 2.99398,-4.852648 4.38435,-7.341373 z m -4.38435,7.341373 c -0.10598,0.171032 -0.21175,0.341851 -0.3178,0.512835 -0.0342,0.205001 -0.0668,0.410632 -0.0982,0.616142 -0.0239,0.157511 0.19889,0.191312 0.22283,0.03382 0.0591,-0.38859 0.12325,-0.776187 0.19318,-1.162796 z m -0.3178,0.512835 c 0.2339,-1.401455 0.53858,-2.789667 0.94506,-4.152715 0.23338,-0.777952 0.46229,-1.604869 0.78524,-2.36497 -0.6462,0.338411 -1.3608,0.734052 -2.11944,1.169283 -1.1393,0.990969 -1.78952,2.297956 -2.44188,3.635708 -1.25915,2.967113 -1.95201,6.125645 -2.4414,9.299133 -0.0235,0.194708 -0.0468,0.389483 -0.0705,0.584177 1.62459,-2.406809 3.22692,-4.828706 4.78924,-7.276977 0.18447,-0.297814 0.36898,-0.595879 0.5536,-0.893639 z m -5.34284,8.170616 c -0.16626,0.246284 -0.33125,0.493428 -0.49801,0.739373 0.0104,0.01261 0.0218,0.024 0.0342,0.03382 0.13051,-0.05725 0.26094,-0.114613 0.39146,-0.171872 6e-5,-7.18e-4 3.7e-4,-0.0016 4.6e-4,-0.0023 0.0239,-0.19962 0.0475,-0.399431 0.0718,-0.599002 z m -0.49801,0.739373 -9e-4,-4.62e-4 c -0.039,-0.0475 -0.0601,-0.113905 -0.0505,-0.197816 0.0482,-0.399612 0.0959,-0.799304 0.14407,-1.198933 0.49795,-3.220885 1.20257,-6.426324 2.48496,-9.436257 0.44878,-0.918228 0.89349,-1.811145 1.48106,-2.609113 -3.75993,2.24919 -8.50397,5.427336 -13.39764,9.15552 0.01,0.04833 0.004,0.104903 -0.0301,0.166312 -0.79728,1.443971 -1.17893,3.044941 -1.54268,4.615052 -0.58284,2.962363 -0.61878,5.969301 -0.32382,8.896094 0.0597,0.59208 0.15105,1.17752 0.22654,1.76643 0.16192,1.21003 0.44468,2.38471 0.75141,3.55093 0.21242,-0.29977 0.11986,-0.16883 0.35903,-0.50635 1.48927,-2.10738 2.97783,-4.21575 4.4594,-6.32914 0.0259,0.128 0.0534,0.25548 0.0788,0.38359 0.0229,0.1161 0.15035,0.1214 0.20199,0.0528 8.9e-4,8.9e-4 0.003,-0.002 0.004,-0.004 0.0161,-0.0235 0.023,-0.0547 0.0158,-0.0927 -0.0395,-0.19958 -0.0836,-0.39823 -0.11906,-0.59854 -0.0601,0.0858 -0.12006,0.17178 -0.18021,0.25757 h -4.7e-4 c 0,0 0,-4.6e-4 0,-4.6e-4 -0.0192,-0.0944 -0.0379,-0.189 -0.0537,-0.28398 -0.20384,-1.228198 -0.31373,-2.471114 -0.35532,-3.714926 0.002,-0.560119 -0.0136,-1.120547 0.007,-1.680266 0.10051,-2.746773 0.57422,-5.486721 1.62653,-8.035345 0.49668,-1.121506 0.98381,-2.264939 1.75856,-3.228961 0.0945,-0.128221 0.27577,0.0057 0.18113,0.133885 -0.76474,0.950965 -1.24373,2.079724 -1.73354,3.186341 -1.04157,2.524508 -1.5087,5.238483 -1.60753,7.958905 -0.0193,0.555103 -0.004,1.11093 -0.006,1.666364 0.0416,1.232723 0.15077,2.46481 0.35301,3.682033 0.004,0.0197 0.007,0.039 0.0111,0.0588 1.70386,-2.432169 3.39707,-4.871939 5.06536,-7.328395 3e-4,-0.08242 0.0436,-0.165328 0.145,-0.214955 0.0161,-0.0236 0.0321,-0.04724 0.0481,-0.07088 z m 12.504,-13.494465 c -0.0308,0.04175 -0.0615,0.08224 -0.0936,0.119986 -0.62339,0.733469 -1.42248,1.3718 -2.15511,1.989263 -1.24838,1.048714 -2.58064,1.987567 -3.96093,2.85279 -0.0467,0.02919 -0.0911,0.02408 -0.12415,0.0032 -0.15836,0.255402 -0.31615,0.511261 -0.47439,0.766708 -1.60413,2.513978 -3.25045,5.000116 -4.91987,7.470621 0.0931,-0.04083 0.18626,-0.08193 0.27935,-0.122766 2.89585,-1.38726 5.71899,-2.964281 8.1947,-5.028286 1.11464,-1.032879 2.20042,-2.053163 2.81295,-3.475881 0.0341,-0.09988 0.1016,-0.153343 0.17512,-0.170481 0.21991,-1.712333 0.31503,-3.204652 0.26591,-4.405196 z m -46.23253,0.664785 c -0.53571,0.73582 -1.0818,1.46361 -1.63532,2.186152 -2.05375,2.668189 -4.31182,5.166312 -6.71828,7.512317 -0.59184,0.577015 -1.1999,1.136812 -1.79979,1.705281 -2.04728,1.87194 -4.178675,3.650003 -6.419009,5.281226 -0.805921,0.586787 -1.134821,0.799592 -1.916065,1.326333 -0.09151,0.05648 -0.182757,0.11309 -0.274254,0.169559 v 11.307389 c 0.382098,-0.15094 0.765071,-0.29986 1.139632,-0.46605 2.976983,-1.32153 5.761116,-2.99524 8.301726,-4.94119 0.68946,-0.5806 1.40495,-1.1368 2.06848,-1.74235 2.63195,-2.40198 4.73599,-5.233415 6.55058,-8.188677 0.13907,-0.250086 0.28036,-0.499399 0.41925,-0.749565 0.70892,-3.937205 0.74037,-8.507782 0.28305,-13.400425 z m 45.79752,4.93934 c -0.65129,1.074009 -1.55332,1.928285 -2.49236,2.799978 -2.50998,2.098634 -5.37437,3.700559 -8.31331,5.109358 -0.32967,0.144675 -0.65942,0.289403 -0.98907,0.434078 -1.61995,2.386717 -3.26382,4.757529 -4.91803,7.120853 0.1352,-0.0105 0.27073,-0.0216 0.40536,-0.0376 1.22527,-0.14557 2.43851,-0.38473 3.63385,-0.688873 0.53273,-0.157295 1.0704,-0.297763 1.59781,-0.472065 2.58469,-0.854277 5.06063,-2.06059 7.19405,-3.765424 0.7134,-0.600407 1.43995,-1.199627 2.05644,-1.899854 0.81752,-3.155439 1.4399,-6.079418 1.82526,-8.600528 z m -22.07322,4.112408 c -2.46471,1.897819 -4.9549,3.92927 -7.365,6.04423 -0.12924,0.459939 -0.23987,0.926028 -0.32799,1.396283 -0.0696,0.370826 -0.12263,0.745005 -0.18483,1.117392 -0.31259,2.282063 -0.35957,4.611064 -0.10842,6.923964 0.1851,1.70473 0.35898,2.34776 0.70463,4.02023 0.36087,1.55706 0.83346,3.0899 1.37312,4.60115 0.0836,0.23392 0.42435,1.13051 0.58186,1.54545 0.85786,-1.21338 2.21874,-3.13479 4.75404,-6.71226 0.0717,0.13157 0.2354,0.12164 0.32752,0.0282 -0.11655,-0.0948 -0.11977,-0.29316 0.0167,-0.38358 -0.008,-0.0319 -0.0165,-0.0636 -0.0246,-0.0954 -0.18869,0.26631 -0.15021,0.21122 -0.31965,0.4503 -0.009,-0.0168 -0.0169,-0.0349 -0.0231,-0.0566 -0.33617,-1.26592 -0.65129,-2.53974 -0.82693,-3.85437 -0.0762,-0.59628 -0.16869,-1.18917 -0.22885,-1.78867 -0.29834,-2.97121 -0.25923,-6.023613 0.33448,-9.030437 0.33024,-1.422192 0.67699,-2.867609 1.31706,-4.205991 z M 130.64904,114.785 c -0.0251,0.0355 -0.11005,0.15584 -0.13619,0.19272 -0.13247,-0.34923 -0.54154,-1.42336 -0.63376,-1.68166 -0.54241,-1.51933 -1.01706,-3.06033 -1.3796,-4.6257 -0.34786,-1.68462 -0.52222,-2.32868 -0.70833,-4.04616 -0.25224,-2.32809 -0.20426,-4.672001 0.11072,-6.968901 0.0624,-0.375578 0.11659,-0.753182 0.1867,-1.127128 0.0696,-0.371142 0.15225,-0.740004 0.24691,-1.105353 -1.35291,1.193916 -2.67835,2.413443 -3.95814,3.650532 -0.26954,0.715969 -0.41822,1.46882 -0.57815,2.207 -0.45706,2.57086 -0.58899,5.17486 -0.4188,7.7282 0.0439,0.65837 0.12599,1.31053 0.18902,1.96563 0.28228,2.31035 0.76818,4.5723 1.4162,6.77295 0.25874,0.87867 0.37357,1.1824 0.65738,2.00085 0.0792,0.21169 0.30905,0.84008 0.42018,1.0896 0.0386,0.0869 0.0874,0.1682 0.13157,0.25202 0.2664,-0.37776 0.53226,-0.75558 0.79959,-1.13269 2.34541,-3.31913 2.84862,-4.03108 3.51851,-4.97872 8.9e-4,0.002 0.003,0.007 0.004,0.009 0.0499,0.13178 0.23561,0.0697 0.18577,-0.062 -0.0107,-0.0282 -0.0385,-0.10263 -0.0528,-0.14037 z m 25.45599,-20.69824 c -0.55645,0.57798 -1.17841,1.094229 -1.79191,1.610773 -2.15357,1.721894 -4.65217,2.941538 -7.26169,3.804807 -0.53176,0.175915 -1.07456,0.317486 -1.6117,0.476233 -1.20599,0.307297 -2.43004,0.548717 -3.66628,0.695827 -0.20063,0.0238 -0.40273,0.0369 -0.6041,0.0537 -0.11481,0.16392 -0.22932,0.32814 -0.34421,0.49198 -9e-4,-8.9e-4 -0.003,0.002 -0.004,0.004 l 4.7e-4,4.7e-4 c -1.44457,2.05976 -2.89563,4.11463 -4.34729,6.16885 -0.10239,0.14456 -0.0564,0.0794 -0.1538,0.2168 1.31154,-0.18324 2.61867,-0.3953 3.90116,-0.73566 0.64819,-0.1759 1.30157,-0.33434 1.94478,-0.52766 3.17949,-0.95567 6.26811,-2.28236 9.02442,-4.14623 1.20706,-0.87965 2.42922,-1.78263 3.42725,-2.900965 0.54483,-1.782073 1.04287,-3.528637 1.48615,-5.212668 z m -44.61063,1.565838 c -1.68357,2.603455 -3.6179,5.079772 -5.96177,7.222782 -0.67722,0.61918 -1.40822,1.18756 -2.11203,1.78125 -2.5888,1.98672 -5.426585,3.6943 -8.461543,5.04357 -0.482583,0.2148 -0.979541,0.40178 -1.470405,0.59993 v 7.7407 c 0.05097,-0.006 0.0987,-0.0143 0.150098,-0.0199 7.31844,-0.8082 9.30108,5.24941 13.55886,-7.06943 -1.80177,1.20979 -3.76361,2.17083 -5.76534,3.00705 -0.64353,0.26883 -1.29912,0.50864 -1.948497,0.76301 -1.505161,0.51682 -2.001021,0.7144 -3.496267,1.12805 -0.459405,0.12702 -0.924992,0.23028 -1.387481,0.34559 -0.191021,0.0477 -0.258221,-0.22202 -0.06717,-0.26962 0.458297,-0.11415 0.919743,-0.21698 1.374974,-0.34282 1.485662,-0.41076 1.978943,-0.60682 3.474491,-1.12018 0.64555,-0.25279 1.29716,-0.49123 1.93692,-0.75836 2.09992,-0.87686 4.15631,-1.89196 6.02662,-3.19144 1.16149,-3.43325 2.49519,-8.22253 4.14854,-14.860164 z m 12.1649,4.120746 c -1.99676,1.967546 -3.86725,3.973906 -5.53881,5.984466 0.0247,0.81046 0.0631,1.6204 0.11025,2.42982 0.16367,2.7012 0.54032,5.38118 1.08405,8.02701 0.13378,0.65097 0.28603,1.29772 0.42898,1.94664 0.51829,2.16779 1.13492,4.3109 1.89012,6.40558 0.27118,0.75215 0.39364,1.04171 0.67544,1.7428 0.0317,0.0707 0.0637,0.14163 0.0954,0.21219 1.16584,-1.68588 2.33624,-3.36845 3.51619,-5.0445 -0.0584,-0.0132 -0.11283,-0.0517 -0.15057,-0.12462 -0.0508,-0.0989 -0.10705,-0.19499 -0.15241,-0.29696 -0.11285,-0.25347 -0.347,-0.89445 -0.4276,-1.10998 -0.2876,-0.82992 -0.40362,-1.13794 -0.66571,-2.02864 -0.65533,-2.2272 -1.14659,-4.51625 -1.43149,-6.85448 -0.0636,-0.66491 -0.14658,-1.32706 -0.19087,-1.99528 -0.17192,-2.59505 -0.0367,-5.24129 0.42992,-7.85375 0.10252,-0.47219 0.19976,-0.95989 0.32707,-1.440296 z m -1.25453,26.748496 c -0.0471,0.068 -0.0951,0.13572 -0.14223,0.20383 -0.0501,-0.11157 -0.1,-0.2229 -0.15009,-0.33447 -0.28332,-0.70508 -0.40651,-0.99575 -0.67915,-1.75207 -0.7579,-2.10254 -1.37697,-4.25378 -1.89708,-6.42966 -0.14336,-0.65093 -0.29577,-1.29971 -0.4299,-1.95268 -0.54546,-2.65487 -0.92304,-5.34391 -1.08729,-8.05433 -0.0428,-0.7328 -0.0784,-1.46597 -0.10331,-2.19958 -2.51851,3.05972 -4.56467,6.12558 -5.87235,9.07491 -0.0204,0.22985 -0.039,0.45992 -0.0593,0.68981 -0.12528,2.79393 -8.9e-4,5.63624 0.66942,8.43051 0.16908,0.70442 0.39529,1.39906 0.59298,2.09859 0.81601,2.44848 1.91747,4.82563 3.30725,7.05461 0.18177,0.29155 0.37806,0.57478 0.57213,0.85935 1.70698,-2.49856 3.41625,-4.99524 5.1367,-7.48451 0.0249,0.0552 0.0497,0.11015 0.0746,0.16538 0.0615,0.13673 0.25513,0.0478 0.19363,-0.0889 -0.042,-0.0936 -0.084,-0.18717 -0.126,-0.28074 z m 31.89955,-26.20786 c -0.87318,0.83667 -1.85579,1.56334 -2.83009,2.27417 -2.79658,1.89399 -5.93065,3.24305 -9.15783,4.21433 -0.65115,0.19598 -1.31267,0.35678 -1.96888,0.53506 -1.44826,0.3847 -2.92741,0.61029 -4.40937,0.81118 -2.80915,3.96394 -4.08356,5.76366 -5.01254,7.07777 0.55628,-0.0529 1.34591,-0.12842 1.58669,-0.15612 1.8044,-0.20822 3.60038,-0.49715 5.36925,-0.91402 1.88056,-0.49127 2.62218,-0.63784 4.46171,-1.31197 2.49584,-0.91463 4.87007,-2.14616 7.0736,-3.62968 0.3547,-0.25324 0.71472,-0.49927 1.06413,-0.75976 0.50978,-0.38002 1.00216,-0.78602 1.47179,-1.21561 0.84926,-2.32297 1.63796,-4.64894 2.35154,-6.92535 z m -2.51739,7.37518 c -0.37678,0.32871 -0.76578,0.64335 -1.16604,0.94182 -0.35231,0.26274 -0.71529,0.51082 -1.07292,0.76625 -2.21768,1.49359 -4.60796,2.73395 -7.11994,3.65516 -1.85312,0.67959 -2.59587,0.82653 -4.48997,1.3217 -1.77821,0.41937 -3.58308,0.70967 -5.39704,0.91912 -0.27363,0.0316 -1.25902,0.1251 -1.78681,0.17512 -0.66682,0.94338 -1.12249,1.58858 -3.36748,4.76561 -0.22342,0.31517 -0.44573,0.6308 -0.66849,0.94645 0.005,6.9e-4 0.01,-3.8e-4 0.0153,0 0.10813,0.009 0.21627,0.0219 0.32475,0.0246 0.30462,0.005 1.04634,-0.0324 1.29715,-0.0426 0.95803,-0.0629 1.31868,-0.077 2.32374,-0.18948 2.51721,-0.28178 5.01233,-0.74764 7.45209,-1.43241 0.68312,-0.21079 1.37288,-0.40148 2.04949,-0.63236 2.62404,-0.89536 5.1444,-2.1071 7.46599,-3.62273 0.55042,-0.391 1.1153,-0.77874 1.62374,-1.2272 0.88332,-2.08966 1.72554,-4.2255 2.51647,-6.36851 z m -2.95563,7.39696 c -0.29302,0.21516 -0.59061,0.42169 -0.87974,0.62727 -2.35814,1.54213 -4.91913,2.77518 -7.58551,3.6862 -0.6866,0.23456 -1.3864,0.42829 -2.07961,0.64255 -2.46879,0.69381 -4.99413,1.16622 -7.5415,1.45187 -1.01875,0.11423 -1.3839,0.12881 -2.35525,0.19273 -0.25528,0.0108 -1.01135,0.0489 -1.32076,0.0436 -0.12444,-0.002 -0.24827,-0.0174 -0.37247,-0.0255 -0.12496,-0.009 -0.20251,-0.0748 -0.23766,-0.15658 -1.19049,1.68949 -2.37131,3.38606 -3.54722,5.08573 0.18443,0.0135 0.36914,0.0264 0.5536,0.0393 0.80228,0.0246 1.13567,0.0415 1.98463,0.0361 2.36431,-0.0132 4.72478,-0.1815 7.07268,-0.45632 0.69826,-0.0944 1.39802,-0.17882 2.09489,-0.28305 2.83225,-0.42356 5.63555,-1.02576 8.38001,-1.84658 0.58347,-0.17593 1.16518,-0.35646 1.74512,-0.54295 1.42373,-2.63543 2.79695,-5.50716 4.08879,-8.49397 z m -37.45179,1.65386 c -1.89868,5.17952 -3.17456,8.98036 -3.95212,11.79799 0.66088,1.71365 1.57454,3.32153 2.57993,4.85688 0.30629,0.46774 0.63349,0.92161 0.95015,1.38239 0.76632,1.01924 1.00664,1.37376 1.81276,2.32002 0.247,0.28995 0.50908,0.56707 0.76347,0.85056 0.10599,0.11828 -0.0612,0.26789 -0.16724,0.14964 -0.25663,-0.28615 -0.52072,-0.5658 -0.76996,-0.85844 -0.81121,-0.95254 -1.05321,-1.30846 -1.82433,-2.33438 -0.31848,-0.46358 -0.64721,-0.9206 -0.95525,-1.39119 -0.95821,-1.46378 -1.83343,-2.99278 -2.48913,-4.61551 -2.72971,10.15068 1.33415,7.00327 5.85475,10.85336 1.63323,1.39099 2.7052,2.78537 3.68991,3.84928 2.78309,0.25399 5.58295,0.30706 8.35824,-0.0626 1.97037,-1.20769 4.48226,-3.04634 7.77128,-5.68103 -3.37141,1.23229 -6.94091,1.93111 -10.52864,2.07822 -0.70515,0.0287 -1.41183,0.004 -2.11758,0.006 -1.54845,-0.12326 -1.98361,-0.0997 -3.43975,-0.41926 -0.40505,-0.0888 -0.79908,-0.22293 -1.19848,-0.33448 -0.10968,-0.0307 -0.0661,-0.18585 0.0436,-0.15519 0.39409,0.11033 0.78254,0.24337 1.18226,0.33123 1.44397,0.31756 1.87587,0.29431 3.41241,0.41694 0.70181,-0.002 1.40386,0.0223 2.10508,-0.006 3.70852,-0.15153 7.39829,-0.8935 10.86729,-2.2093 0.023,-0.01 0.0459,-0.0183 0.069,-0.0278 0.8622,-0.69413 1.76371,-1.42832 2.73466,-2.23201 1.19842,-0.99197 2.40337,-2.2908 3.59864,-3.83121 -0.11328,0.0639 -0.22689,0.12737 -0.33957,0.19226 -2.06997,1.09979 -4.27299,1.88759 -6.51305,2.497 -0.65378,0.17787 -1.3102,0.34533 -1.97073,0.49013 -0.67031,0.14696 -1.34695,0.25663 -2.0203,0.38498 -2.69887,0.39375 -5.42851,0.65639 -8.14051,0.56564 -0.32111,-0.0108 -0.64124,-0.0367 -0.96173,-0.0551 -0.85027,-0.0767 -1.71578,-0.18457 -2.48172,-0.56287 -0.077,-0.0373 -0.12566,-0.0713 -0.16493,-0.11396 -0.10697,0.0224 -0.23369,-0.0154 -0.32335,-0.14964 -0.2499,-0.37436 -0.51207,-0.7416 -0.74956,-1.12296 -1.41597,-2.27371 -2.53821,-4.69796 -3.36795,-7.19544 -0.20132,-0.71473 -0.43205,-1.42469 -0.6041,-2.14445 -0.59517,-2.49101 -0.76704,-5.01948 -0.71343,-7.51926 z m 14.8157,4.35006 c -0.0911,0.12924 -0.1827,0.25844 -0.2738,0.38776 0.17785,0.0402 0.39192,-0.15979 0.27704,-0.38173 -8.2e-4,-0.003 -0.003,-0.004 -0.004,-0.006 z m -32.706558,1.82898 v 30.30313 h 2.152333 c 1.708893,0 4.153688,-2.61736 3.084884,-4.61042 -3.542161,-6.60531 -2.995665,-12.97254 0,-19.1968 0.997954,-2.07351 -1.823547,-2.88708 -3.084884,-4.61042 -0.954791,-1.3045 -1.629277,-1.81132 -2.152333,-1.88549 z m 51.098208,0.94784 c -0.50671,0.16139 -1.01484,0.31847 -1.52415,0.47207 -2.75383,0.82363 -5.56685,1.42791 -8.40874,1.85306 -0.69898,0.10458 -1.40052,0.18931 -2.1009,0.28399 -2.35662,0.27602 -4.72599,0.44481 -7.09909,0.45817 -0.85366,0.005 -1.18898,-0.0108 -1.99575,-0.0352 -0.19383,-0.0144 -0.38755,-0.0271 -0.58139,-0.0412 -0.0418,-0.003 -0.0707,-0.0213 -0.0889,-0.0454 -1.76693,2.55522 -3.52229,5.11854 -5.27475,7.68372 0.009,0.007 0.0185,0.0141 0.032,0.0204 0.70226,0.35441 1.509,0.43274 2.28807,0.51145 0.31315,0.0178 0.62573,0.0438 0.9395,0.0542 2.67742,0.0905 5.37259,-0.16932 8.0372,-0.55639 0.66394,-0.12625 1.33111,-0.2338 1.99204,-0.37848 0.65309,-0.14299 1.30207,-0.30852 1.94849,-0.48411 2.20011,-0.59759 4.36436,-1.36922 6.39816,-2.44744 0.34282,-0.19722 0.69105,-0.38509 1.02846,-0.59205 0.12132,-0.0744 0.24128,-0.15152 0.36041,-0.22978 1.37568,-1.90313 2.73303,-4.11258 4.04941,-6.52695 z m -27.19556,20.26231 c 1.58475,1.53126 3.16247,2.02387 6.80908,0.0107 -2.26429,0.21496 -4.54128,0.1734 -6.80908,-0.0107 z" />
    <path
       id="path2568"
       style="fill:#065c77;fill-opacity:1;stroke:none;stroke-width:0.90664;stroke-linecap:round;stroke-linejoin:round;stroke-miterlimit:4;stroke-dasharray:none;stroke-dashoffset:0;stroke-opacity:1"
       d="m 92.331876,22.0772 c -0.05618,-0.0018 -0.113024,-8e-5 -0.170481,0.0051 -0.821774,0.07403 -1.768493,0.829913 -2.793492,2.138898 0.003,0.157572 0.0078,0.42541 0.01992,0.534608 0.04544,0.410614 0.159609,0.955714 0.248774,1.341618 0.206571,0.894315 0.310184,1.214111 0.570281,2.135654 0.522933,1.841627 1.193344,3.63392 1.956373,5.38778 0.154755,-3.815299 0.317832,-7.631623 0.65691,-11.435713 -0.156986,-0.06636 -0.319735,-0.10264 -0.488284,-0.107941 z m 1.027061,0.812104 c -0.287007,3.421872 -0.441063,6.852803 -0.580936,10.283573 0.201919,-0.456585 0.394005,-0.917293 0.580936,-1.380069 z m -0.580936,10.283573 c -0.197045,0.445551 -0.400527,0.888166 -0.610119,1.328183 -0.08494,0.178344 0.167559,0.298788 0.252479,0.120448 0.110819,-0.232725 0.219616,-0.46669 0.327066,-0.700921 0.01014,-0.249267 0.02045,-0.498435 0.03058,-0.74771 z m -0.03058,0.74771 c -0.01768,0.434082 -0.03543,0.868232 -0.05328,1.302241 -0.09901,3.599916 -0.138306,7.200852 -0.14454,10.801503 0.11138,-0.216175 0.222626,-0.432859 0.334016,-0.649036 0.161189,-0.340309 0.318452,-0.682589 0.47531,-1.025206 v -11.82393 c -0.197209,0.467654 -0.399802,0.93294 -0.61151,1.394428 z m -0.197815,12.103744 h -8.97e-4 c -2e-6,6.17e-4 0,0.0013 0,0.0019 3.16e-4,-6.14e-4 6.1e-4,-0.0013 8.97e-4,-0.0019 z m -8.97e-4,0.0019 c -0.113864,0.220997 -0.228029,0.441936 -0.341891,0.662932 -4.38e-4,8.3e-4 -2.11e-4,0.0013 -0.0023,0.0023 0.09421,0.149535 0.188443,0.299357 0.282594,0.448906 0.01969,-0.0014 0.03902,-0.0049 0.05837,-0.01066 1.03e-4,-0.367846 0.0024,-0.735658 0.0032,-1.1035 z m -3.453645,-21.44644 c -0.885383,1.198292 -1.825069,2.796474 -2.790248,4.707244 0.06339,0.06872 0.09508,0.170703 0.06069,0.296953 -0.360755,1.886521 0.04434,3.689339 0.470214,5.524907 1.105911,3.840707 2.906895,7.423055 4.914785,10.861263 0.06715,0.106661 0.134376,0.213459 0.201521,0.320116 0.0045,-3.697218 0.04415,-7.394594 0.14593,-11.091042 0.01522,-0.372268 0.03079,-0.74461 0.04586,-1.116935 -0.04854,-0.0017 -0.09748,-0.02686 -0.12508,-0.0894 -0.815156,-1.848189 -1.529784,-3.738966 -2.081915,-5.683807 -0.32262,-1.143411 -0.698965,-2.354218 -0.828782,-3.54074 -0.006,-0.06107 -0.01003,-0.124373 -0.01297,-0.188549 z m -3.450866,6.055347 c -1.358267,2.855918 -2.752828,6.291354 -4.10824,10.099191 0.145842,1.147589 0.474638,2.267914 0.789404,3.380452 1.004204,3.233995 2.706904,6.194093 4.766077,8.868756 0.420174,0.545756 0.874973,1.063959 1.312433,1.595952 1.015564,1.14361 2.094641,2.233352 3.251199,3.234983 0.127066,0.110061 0.258107,0.21486 0.389607,0.319654 -0.05441,-3.576625 -0.0925,-7.153357 -0.09543,-10.730158 -0.237807,-0.377785 -0.475663,-0.755358 -0.713434,-1.13315 -2.03714,-3.490292 -3.863578,-7.127488 -4.98057,-11.027577 -0.357699,-1.547963 -0.689412,-3.052581 -0.611046,-4.608103 z m -4.307446,10.655575 c -0.716199,2.037064 -1.419364,4.176397 -2.099519,6.384728 0.246725,1.842175 0.872739,3.619313 1.500054,5.361837 1.533148,3.830428 3.781783,7.340839 6.381021,10.53327 0.525836,0.645827 1.085773,1.262436 1.628843,1.89383 1.079797,1.24141 2.274595,2.36863 3.493488,3.468933 -0.0045,-0.208816 -0.0024,-0.109794 -0.007,-0.329381 -0.06105,-3.118412 -0.122182,-6.237406 -0.172799,-9.356577 h 4.66e-4 c -1.22e-4,-0.0021 -6.01e-4,-0.004 -4.66e-4,-0.006 -0.0038,-0.248114 -0.0074,-0.496355 -0.01112,-0.744468 -0.194931,-0.157076 -0.392975,-0.311266 -0.582325,-0.475308 -1.16676,-1.010842 -2.255644,-2.110397 -3.27992,-3.264633 -0.441004,-0.536556 -0.899539,-1.05941 -1.323088,-1.609848 -2.0784,-2.701143 -3.795554,-5.690834 -4.808699,-8.956317 C 81.785173,43.233796 81.50594,42.27109 81.336711,41.29073 Z m 12.022209,4.4631 c -0.207391,0.402645 -0.414821,0.805077 -0.622167,1.207735 -0.04793,0.09309 -0.116665,0.146666 -0.189939,0.168165 h -4.62e-4 c -2.94e-4,0.03538 6.05e-4,0.07069 4.62e-4,0.106089 0.06946,0.121461 0.05588,0.236703 -8.96e-4,0.321506 0.0033,3.682012 0.04581,7.364312 0.103306,11.046105 0.0171,-0.01773 0.03534,-0.03486 0.05235,-0.05281 0.223692,-0.235296 0.441213,-0.475862 0.657373,-0.718063 z m -14.505776,3.182173 c -0.850745,2.833145 -1.658645,5.769711 -2.402496,8.745065 0.183354,0.76761 0.406269,1.526243 0.66525,2.270929 0.177498,0.510414 0.376237,1.013342 0.564259,1.519974 1.230241,3.055494 2.810926,5.971547 4.73689,8.646392 1.419502,1.971448 2.079327,2.637865 3.66814,4.450131 1.525887,1.658238 3.168372,3.20379 4.875871,4.672495 0.227851,0.195989 0.985718,0.822122 1.519974,1.263328 -0.03997,-1.995124 -0.0961,-4.728435 -0.22283,-10.751472 -1.381563,-1.236954 -2.743164,-2.497575 -3.962312,-3.899771 -0.549643,-0.639442 -1.116605,-1.264309 -1.648762,-1.918384 -2.637325,-3.241625 -4.916422,-6.806514 -6.46997,-10.695876 -0.505764,-1.407356 -1.009092,-2.836613 -1.323551,-4.302811 z m 14.505776,9.310249 c -0.149839,0.164646 -0.297847,0.331065 -0.45122,0.492451 -0.08237,0.08667 -0.167099,0.170633 -0.252481,0.254334 0.05128,3.200205 0.113022,6.400378 0.175578,9.599792 0.01081,0.512843 0.0067,0.313565 0.01622,0.76902 0.171632,-0.149968 0.341428,-0.302074 0.511908,-0.453538 z m -17.050957,0.01205 c -0.678562,2.750031 -1.299495,5.528308 -1.846113,8.287824 0.209973,0.814007 0.519896,1.605294 0.81303,2.389525 1.329122,3.170563 3.073565,6.167172 5.144567,8.911377 0.533983,0.707597 1.10985,1.382984 1.664512,2.074504 2.028281,2.399861 4.265343,4.613855 6.653423,6.653886 0.953508,0.814553 1.314118,1.079957 2.253788,1.810905 0.250116,0.185286 0.986184,0.738656 1.302238,0.945525 0.112571,0.07364 0.233065,0.134142 0.349766,0.201058 0.005,0.003 0.01022,0.0073 0.01575,0.01066 -0.0092,-0.478965 -0.01745,-0.957623 -0.02733,-1.436587 -0.09502,-4.822804 -0.114763,-5.802132 -0.14315,-7.234358 -0.506958,-0.418585 -1.452834,-1.199936 -1.71177,-1.42269 -1.716464,-1.476649 -3.367595,-3.030247 -4.901351,-4.697512 -1.600016,-1.825668 -2.260698,-2.492794 -3.690373,-4.479317 -1.937961,-2.692782 -3.528758,-5.628605 -4.766542,-8.7043 -0.189495,-0.510943 -0.38948,-1.017742 -0.568427,-1.532481 -0.203261,-0.584809 -0.383845,-1.178537 -0.542021,-1.778016 z m 16.339844,0.345133 c -0.17567,0.181016 -0.359391,0.353988 -0.538778,0.531368 -0.03407,0.03375 -0.04772,0.07099 -0.04772,0.106086 1.04e-4,0.0021 5.97e-4,0.004 4.63e-4,0.006 0.006,0.1064 0.139865,0.189319 0.244141,0.08617 0.115351,-0.114173 0.232,-0.22641 0.347911,-0.340036 -0.0025,-0.129886 -0.0035,-0.259744 -0.006,-0.389607 z m -18.450484,9.304228 c -0.751263,3.964622 -1.338915,7.867467 -1.710375,11.563112 0.465654,0.59479 0.937289,1.185115 1.413886,1.771527 2.246455,2.75145 4.705356,5.318873 7.318209,7.723566 0.642885,0.591683 1.302414,1.165384 1.953592,1.747902 2.219109,1.915114 4.52547,3.729402 6.943426,5.387318 0.86823,0.59531 1.221468,0.8105 2.061996,1.343472 0.19843,0.114892 0.397347,0.229739 0.595758,0.344667 -0.02506,-2.562657 -0.05726,-5.125032 -0.104235,-7.68743 -0.09296,0.05969 -0.218005,0.07356 -0.352545,-0.0047 -0.133404,-0.07763 -0.271143,-0.148501 -0.400262,-0.233025 -0.321051,-0.210213 -1.071311,-0.774944 -1.325866,-0.963592 -0.95261,-0.741296 -1.317565,-1.01007 -2.2839,-1.83592 -2.416318,-2.064964 -4.680396,-4.306106 -6.732176,-6.73542 -0.562625,-0.702086 -1.14601,-1.388097 -1.687676,-2.106469 -2.103571,-2.789698 -3.874667,-5.836397 -5.222857,-9.059625 -0.153746,-0.411989 -0.315842,-0.830946 -0.466975,-1.255451 z m 18.648761,1.454656 c -0.0305,0.02666 -0.06078,0.05399 -0.09126,0.08061 0.07684,0.187875 -0.06459,0.388643 -0.250164,0.404894 0.02966,0.160078 0.191087,0.284559 0.356251,0.199205 -0.0075,-0.363292 -0.006,-0.280083 -0.01483,-0.684707 z m 0.01483,0.684707 c 0.114483,5.435552 0.175451,8.353742 0.212175,10.196013 0,0 0,4.64e-4 0,4.64e-4 0.07697,-0.05408 0.184514,-0.130802 0.285836,-0.201985 V 69.621695 c -0.144982,0.127448 -0.288945,0.256046 -0.434544,0.382657 -0.02103,0.01827 -0.04227,0.03168 -0.06347,0.04262 z m 0.212175,10.196477 c -0.04089,0.02871 -0.121847,0.08597 -0.152414,0.107476 -0.142892,0.100388 0.0043,0.293623 0.147319,0.193182 0.0033,-0.0022 0.0083,-0.0068 0.01019,-0.0083 -7.55e-4,-0.05561 -0.0043,-0.237945 -0.0051,-0.29232 z M 25.478957,76.702282 c 1.511984,2.416757 3.122822,4.76923 4.742446,7.114834 -0.277683,-1.193015 -0.610472,-2.372628 -1.018717,-3.529157 -0.258194,-0.727779 -0.339065,-0.986098 -0.619849,-1.671001 -0.105641,-0.257624 -0.254904,-0.599799 -0.398411,-0.877424 -0.942033,-0.426238 -1.747658,-0.750876 -2.382577,-0.958497 -0.112686,-0.03685 -0.219752,-0.06186 -0.322892,-0.07876 z m 4.742446,7.114834 c 0.08902,0.382659 0.172329,0.766497 0.250627,1.151678 0.03174,0.156116 0.252725,0.111172 0.220981,-0.04493 -0.04151,-0.203706 -0.08445,-0.407076 -0.128788,-0.610122 -0.114354,-0.165523 -0.228493,-0.331054 -0.34282,-0.496621 z m 0.34282,0.49662 c 0.199143,0.288251 0.398151,0.576618 0.59715,0.864919 1.68174,2.367833 3.402217,4.707184 5.144102,7.030518 -0.03299,-0.193308 -0.06607,-0.386694 -0.09914,-0.580008 -0.646466,-3.145244 -1.494431,-6.265117 -2.899116,-9.166174 -0.717842,-1.303771 -1.432287,-2.577343 -2.619308,-3.510627 -0.77926,-0.397098 -1.512396,-0.756761 -2.174568,-1.062732 0.36023,0.74316 0.629872,1.557391 0.901521,2.322814 0.473544,1.341226 0.846289,2.713157 1.14936,4.10129 z m -5.6435,-7.59802 c -0.177789,0.04448 -0.336321,0.12862 -0.474387,0.253407 -0.49367,0.446163 -0.737179,1.392272 -0.762998,2.732803 0.07844,0.100076 0.211174,0.270454 0.271937,0.334941 0.228412,0.242546 0.566625,0.538533 0.811174,0.744006 0.566742,0.476167 0.788296,0.632076 1.402766,1.099793 1.229989,0.933177 2.531248,1.763178 3.873368,2.523407 -1.750258,-2.533661 -3.495809,-5.072546 -5.12186,-7.688357 z m 7.198676,2.982505 c 0.626402,0.767866 1.115205,1.637356 1.608929,2.53221 1.430001,2.942671 2.292176,6.109664 2.949147,9.301912 0.06786,0.396759 0.135924,0.793381 0.203841,1.19013 0.01434,0.08323 -0.0045,0.151206 -0.04124,0.200594 h -4.66e-4 c 0.01712,0.02283 0.03425,0.04534 0.05146,0.0681 0.10374,0.04454 0.151271,0.125707 0.155655,0.208005 1.78799,2.370749 3.600221,4.72332 5.422528,7.068048 0.0027,-0.0199 0.0063,-0.0394 0.0081,-0.0593 0.14166,-1.225749 0.189568,-2.461727 0.170016,-3.69501 -0.02994,-0.554648 -0.04222,-1.110634 -0.08987,-1.664049 -0.23354,-2.71218 -0.834509,-5.39971 -1.999916,-7.869496 -0.54407,-1.080979 -1.078736,-2.184572 -1.88966,-3.096466 -0.100835,-0.123338 0.07351,-0.265606 0.174185,-0.142223 0.821574,0.924442 1.364864,2.042191 1.916527,3.137697 1.17733,2.493339 1.78609,5.206128 2.022624,7.944543 0.04814,0.558018 0.0606,1.118648 0.09079,1.677949 0.02017,1.244333 -0.02779,2.491579 -0.170482,3.728365 -0.01103,0.0958 -0.02546,0.19096 -0.0398,0.2863 -0.06437,-0.0827 -0.128438,-0.16562 -0.192715,-0.24832 -0.02546,0.20182 -0.0598,0.40281 -0.08938,0.6041 -0.0054,0.0376 0.0036,0.0673 0.0199,0.0899 -0.122673,-0.15767 -0.245248,-0.31526 -0.367832,-0.473 -0.201957,-0.006 -0.404399,-0.0101 -0.605953,-0.0241 -1.24202,-0.0856 -2.476662,-0.26615 -3.696395,-0.513301 -0.544357,-0.131934 -1.093187,-0.246746 -1.633017,-0.396089 -2.649098,-0.732867 -5.205169,-1.8267 -7.441432,-3.439747 -0.638361,-0.485503 -1.285319,-0.970296 -1.869739,-1.519974 0.526203,1.659982 1.110309,3.379623 1.742799,5.132516 1.052227,1.067495 2.317519,1.908975 3.566683,2.727705 2.845301,1.72498 5.996039,2.89672 9.218988,3.69362 0.652005,0.16121 1.312303,0.28728 1.968414,0.43084 1.297772,0.2764 2.614127,0.42308 3.933136,0.5411 -0.104099,-0.13244 -0.05504,-0.0692 -0.164467,-0.20848 -1.551555,-1.97956 -3.102741,-3.96054 -4.647482,-5.94601 0.05495,0.0661 0.182029,0.0541 0.199205,-0.063 0.01901,-0.1292 0.04016,-0.25817 0.05979,-0.38729 1.584491,2.03735 3.176064,4.06931 4.767932,6.10028 0.255603,0.32524 0.156103,0.19895 0.383117,0.48782 0.248556,-1.18 0.473168,-2.3668 0.574918,-3.58336 0.04617,-0.59191 0.108276,-1.18139 0.138514,-1.7757 0.149541,-2.937814 -0.03541,-5.939386 -0.764387,-8.869217 -0.441119,-1.55015 -0.901817,-3.129912 -1.769676,-4.532593 -0.0364,-0.05971 -0.0459,-0.116179 -0.03846,-0.164922 C 40.88179,84.697176 35.986057,81.758203 32.119261,79.69813 Z m 4.720222,13.224846 c -0.178739,-0.23738 -0.3559,-0.475684 -0.534146,-0.713429 0.0338,0.198025 0.06759,0.396344 0.101454,0.594368 1.25e-4,7.47e-4 8.33e-4,0.0016 8.96e-4,0.0023 0.133198,0.05072 0.266145,0.101246 0.399334,0.151952 0.01201,-0.01047 0.02268,-0.0221 0.03245,-0.0352 z M 72.447613,79.873335 c -0.327906,3.394043 -0.471212,6.605913 -0.382657,9.516404 0.06787,0.163166 0.137519,0.325666 0.210323,0.48643 0.202399,0.447122 0.429199,0.882188 0.643939,1.323086 1.337919,2.521368 3.022794,4.81919 4.865679,6.962887 0.541476,0.629818 1.093057,1.251101 1.664052,1.852128 0.57783,0.60822 1.187497,1.18245 1.781257,1.77385 2.466138,2.25061 5.052,4.39213 7.863471,6.16143 0.329469,0.20733 0.667954,0.39801 1.002044,0.59715 0.854458,0.46114 1.737609,0.94225 2.705008,1.0669 0.01885,0.003 0.03268,3.2e-4 0.04725,0.002 -0.01492,-3.85216 -0.03472,-7.70414 -0.07134,-11.556154 -0.03519,0.01264 -0.07755,0.01058 -0.122301,-0.01524 -0.208516,-0.120845 -0.417356,-0.241448 -0.625872,-0.362274 -0.845209,-0.536208 -1.200127,-0.75268 -2.073115,-1.351347 -2.426856,-1.664215 -4.741671,-3.485786 -6.968906,-5.408163 -0.653124,-0.584629 -1.314363,-1.159957 -1.959149,-1.753461 -2.621662,-2.413018 -5.089111,-4.989143 -7.343226,-7.749973 -0.416051,-0.511957 -0.828512,-1.02684 -1.236456,-1.54499 z m -48.765664,0.191329 c 0.01049,1.201496 0.179572,2.687336 0.484114,4.386663 0.07414,0.01354 0.144448,0.06361 0.183445,0.161679 0.682288,1.390615 1.817565,2.355907 2.982048,3.33227 2.57496,1.938763 5.472695,3.374413 8.433748,4.616443 0.09499,0.03618 0.189918,0.07225 0.284909,0.108404 -1.78981,-2.384724 -3.557244,-4.786288 -5.284005,-7.21768 -0.170689,-0.247285 -0.341091,-0.494909 -0.511914,-0.74215 -0.03209,0.02249 -0.07602,0.02972 -0.124152,0.0028 -1.421458,-0.795737 -2.798299,-1.667569 -4.097119,-2.653124 -0.762325,-0.580394 -1.592505,-1.177803 -2.251476,-1.879469 -0.03398,-0.0361 -0.06688,-0.07564 -0.0996,-0.115815 z m 69.677015,0.273325 c -0.08996,0.06321 -0.222665,0.157584 -0.281203,0.198744 0.02832,1.438861 0.05029,2.519793 0.149172,7.558641 0.0119,0.573061 0.0225,1.145657 0.03289,1.718718 0.03303,-0.01768 0.06576,-0.03617 0.09914,-0.05328 z m -68.964516,5.30254 c 0.509511,2.498985 1.276247,5.388498 2.249154,8.499537 0.650428,0.66881 1.405878,1.231769 2.148167,1.79608 2.215294,1.597003 4.747618,2.678966 7.37148,3.404079 0.535392,0.147963 1.079713,0.261215 1.619579,0.391921 1.208948,0.244531 2.432985,0.423524 3.663969,0.508204 0.135251,0.009 0.270726,0.0134 0.406282,0.0171 C 40.083771,97.979037 38.324325,95.692575 36.588061,93.389094 36.251641,93.260935 35.9155,93.1332 35.579071,93.005047 32.57392,91.743639 29.63345,90.285211 27.022551,88.313555 26.041459,87.489476 25.09818,86.680926 24.394448,85.640511 Z m 22.249728,3.013543 c 0.705614,1.305014 1.12381,2.731504 1.52414,4.135574 0.741993,2.973703 0.932234,6.01984 0.781528,9.002174 -0.03039,0.60175 -0.09333,1.19861 -0.139904,1.79794 -0.110275,1.32172 -0.36214,2.60994 -0.635134,3.89097 -0.0054,0.0221 -0.01156,0.0406 -0.0199,0.0579 2.709485,3.44739 4.163682,5.29875 5.080631,6.46811 0.136749,-0.42224 0.433141,-1.33457 0.504957,-1.57232 0.464105,-1.53616 0.860095,-3.09019 1.143345,-4.66323 0.262344,-1.68753 0.403655,-2.33854 0.504034,-4.05033 0.13621,-2.32252 -0.02591,-4.646333 -0.451223,-6.910073 -0.08006,-0.368945 -0.152167,-0.739825 -0.239968,-1.106742 -0.11136,-0.465324 -0.245167,-0.925232 -0.397021,-1.378217 -2.511965,-1.992906 -5.099735,-3.898431 -7.655465,-5.671762 z m 6.591342,25.352678 c -0.01246,0.0384 -0.03667,0.11451 -0.0459,0.14315 -0.0433,0.13405 0.145175,0.18733 0.188546,0.0532 7.27e-4,-0.002 0.0018,-0.008 0.0036,-0.01 0.716041,0.91327 1.253773,1.59923 3.760789,4.79804 0.285697,0.3634 0.569942,0.72782 0.854725,1.09192 0.03989,-0.0859 0.08472,-0.16982 0.119061,-0.25851 0.09862,-0.2547 0.296849,-0.89368 0.365519,-1.10905 0.242899,-0.83152 0.342426,-1.14053 0.557311,-2.03096 0.538135,-2.23004 0.911041,-4.51353 1.078476,-6.83502 0.03048,-0.65742 0.08006,-1.31239 0.09127,-1.97212 0.04339,-2.55864 -0.217037,-5.15304 -0.800991,-7.69809 -0.196283,-0.729349 -0.381835,-1.473781 -0.686555,-2.175496 -1.33952,-1.172131 -2.723775,-2.324551 -4.134188,-3.449936 0.112669,0.360206 0.213173,0.724202 0.301126,1.091453 0.08857,0.369994 0.161428,0.744443 0.24229,1.116472 0.428433,2.278469 0.592398,4.617277 0.455848,6.955007 -0.100746,1.72459 -0.242873,2.37649 -0.506813,4.07627 -0.284523,1.58142 -0.682001,3.14391 -1.148437,4.68825 -0.07934,0.26254 -0.434431,1.35593 -0.549431,1.7113 -0.02797,-0.0354 -0.118603,-0.1515 -0.145461,-0.18576 z m -5.080631,-6.46811 c -0.181088,-0.23041 -0.139743,-0.17744 -0.341431,-0.43408 -0.0072,0.0322 -0.01318,0.0642 -0.0199,0.0963 0.140773,0.0836 0.146851,0.28176 0.03523,0.38219 0.09673,0.0888 0.261134,0.0909 0.326137,-0.0445 z M 93.259362,89.814092 c -0.003,0.0013 -0.0046,0.0025 -0.007,0.0032 -0.272296,0.147934 -0.191974,0.50178 0.01853,0.584178 -0.0033,-0.195932 -0.0078,-0.391511 -0.01158,-0.58742 z m 0.01204,0.588345 c 0.0384,2.140653 0.06501,4.281415 0.08756,6.422256 v -6.406504 c -0.03091,-6.72e-4 -0.06054,-0.0054 -0.08756,-0.01575 z m -21.12862,0.655985 c 0.155633,2.412957 0.489016,4.585036 1.029375,6.437075 0.437745,1.500357 0.852221,2.880763 1.254523,4.193023 0.01701,0.0258 0.03479,0.0513 0.05189,0.0769 2.645976,3.76351 5.91764,7.09097 9.619249,9.82586 0.699909,0.51712 1.437898,0.98074 2.156965,1.47086 1.662652,0.94277 2.089586,1.26694 3.792755,1.94526 0.471484,0.18776 0.962684,0.32187 1.443999,0.48273 0.133857,0.0448 0.07115,0.23369 -0.063,0.189 -0.487579,-0.16328 -0.985376,-0.2992 -1.462993,-0.48966 -1.717069,-0.68474 -2.147622,-1.01185 -3.822869,-1.9624 -0.723007,-0.49303 -1.465251,-0.95908 -2.16901,-1.47921 -3.580665,-2.64635 -6.759207,-5.8463 -9.363062,-9.45617 1.543903,4.99221 2.843533,8.62676 4.026241,11.23696 2.591924,2.30966 5.503382,4.20253 8.537061,5.87746 1.687394,-0.39254 3.676515,-1.04052 6.18506,-1.34857 v -7.71291 c -0.163115,0.0484 -0.301284,0.004 -0.386827,-0.0838 -0.07005,0.016 -0.143862,0.0175 -0.248775,0.003 -1.049368,-0.14437 -2.012298,-0.63583 -2.938493,-1.14843 -0.341829,-0.20397 -0.688542,-0.40012 -1.025671,-0.61244 -2.847125,-1.79311 -5.466859,-3.96074 -7.963537,-6.24204 -0.601986,-0.60007 -1.220362,-1.18366 -1.806271,-1.80071 -0.577372,-0.608081 -1.134687,-1.23616 -1.68212,-1.873454 -1.87568,-2.183591 -3.589517,-4.524805 -4.949529,-7.093521 -0.07063,-0.14532 -0.142998,-0.289901 -0.214954,-0.434543 z m 21.216177,6.976322 c -0.103814,0.0641 -0.207496,0.128178 -0.311315,0.192249 -0.158209,0.09757 -0.02113,0.323699 0.137129,0.226073 0.05834,-0.03586 0.11606,-0.07145 0.174186,-0.107478 z m -33.886503,0.632821 c 0.150913,0.473509 0.272206,0.955668 0.397945,1.422215 0.595456,2.58613 0.862148,5.22281 0.819054,7.82317 -0.01103,0.66962 -0.06114,1.33451 -0.09173,2.00178 -0.168662,2.34947 -0.545925,4.66054 -1.090058,6.91747 -0.217637,0.90261 -0.318141,1.21561 -0.564259,2.05876 -0.06992,0.21926 -0.271837,0.87115 -0.372001,1.1299 -0.04034,0.1041 -0.09175,0.20262 -0.13759,0.30391 -0.03398,0.0747 -0.08687,0.11596 -0.144539,0.13203 -0.09718,-0.12448 -0.19501,-0.24853 -0.292322,-0.37293 -7.08e-4,0.002 -0.0018,0.004 -0.0027,0.006 -0.103749,0.22736 0.119517,0.41633 0.295101,0.36737 1.261356,1.61526 2.513972,3.23761 3.761712,4.86337 0.02815,-0.0721 0.05666,-0.14387 0.08481,-0.21589 0.24671,-0.71421 0.35478,-1.00963 0.588356,-1.7743 0.650456,-2.12954 1.160263,-4.30094 1.570468,-6.49174 0.110626,-0.65522 0.230346,-1.30884 0.331699,-1.96564 0.411929,-2.66952 0.655584,-5.365 0.685169,-8.07102 0.0067,-0.81076 0.0048,-1.62099 -0.01066,-2.43168 -1.769162,-1.92524 -3.736992,-3.83663 -5.828815,-5.702794 z m -30.580165,2.058755 c 0.825526,2.23823 1.728697,4.52224 2.692039,6.80027 0.490353,0.40577 1.00172,0.78674 1.529698,1.14102 0.361897,0.24286 0.733916,0.47068 1.100726,0.70602 2.274336,1.37248 4.7069,2.48548 7.245006,3.27529 1.870681,0.58213 2.618412,0.69121 4.521016,1.08868 1.787345,0.3287 3.595658,0.52818 5.408158,0.64671 0.24186,0.0158 1.034038,0.052 1.592245,0.0774 -0.992961,-1.26646 -2.355037,-3.00081 -5.357202,-6.82066 -1.490083,-0.1272 -2.97857,-0.27915 -4.444108,-0.5916 -0.664242,-0.14554 -1.332913,-0.27293 -1.992969,-0.43639 -3.271349,-0.81013 -6.468632,-2.00264 -9.355654,-3.7557 -1.008345,-0.66166 -2.025377,-1.33865 -2.938955,-2.13101 z m 36.625329,3.87846 c 0.01156,0.73394 0.01277,1.46787 0.006,2.2019 -0.02966,2.71524 -0.273829,5.4197 -0.687024,8.09834 -0.101617,0.65883 -0.221698,1.31444 -0.332624,1.97166 -0.411621,2.199 -0.923284,4.37831 -1.576027,6.51583 -0.234823,0.7689 -0.343099,1.06533 -0.591135,1.78357 -0.04456,0.11379 -0.08938,0.22719 -0.13388,0.34097 -0.0502,-0.0654 -0.101256,-0.13049 -0.151486,-0.19596 -0.03747,0.0955 -0.07468,0.19073 -0.112113,0.28629 -0.05459,0.13963 0.14366,0.21935 0.198282,0.0797 0.02214,-0.0565 0.04375,-0.11314 0.0658,-0.16956 1.841712,2.40096 3.672561,4.81004 5.501278,7.22093 0.179744,-0.29383 0.361967,-0.5865 0.52905,-0.8867 1.277616,-2.29511 2.260137,-4.72344 2.953781,-7.20934 0.162785,-0.70845 0.35432,-1.41351 0.488283,-2.12546 0.531377,-2.82408 0.514223,-5.6694 0.250627,-8.45368 -0.03167,-0.22859 -0.06176,-0.45752 -0.09358,-0.68609 -1.452251,-2.88091 -3.648156,-5.84125 -6.315238,-8.77239 z m -33.745667,3.36284 v 4.7e-4 c 0.896178,2.10118 1.843356,4.19269 2.829164,6.23601 0.530022,0.42271 1.112981,0.78195 1.682116,1.14519 2.393863,1.3987 4.97127,2.48422 7.636469,3.24842 0.687228,0.19707 1.38594,0.35329 2.078672,0.52998 2.4707,0.56299 4.98608,0.90467 7.514172,1.06134 1.009403,0.0626 1.370251,0.0588 2.330222,0.0741 0.251004,-0.003 0.993643,-0.002 1.29761,-0.0218 0.108241,-0.007 0.21536,-0.0264 0.322901,-0.0408 0.0054,-6.7e-4 0.01022,1.7e-4 0.01533,-9e-4 -0.238139,-0.30423 -0.476046,-0.60845 -0.714821,-0.91217 -2.399682,-3.06186 -2.886834,-3.68364 -3.599576,-4.59281 -0.529637,-0.0239 -1.517972,-0.0686 -1.79284,-0.0866 -1.822119,-0.11929 -3.639621,-0.3197 -5.436424,-0.65042 -1.916302,-0.40067 -2.665656,-0.5101 -4.550196,-1.09702 -2.554538,-0.79556 -5.002808,-1.91615 -7.291802,-3.29799 -0.369849,-0.2374 -0.74462,-0.46709 -1.10952,-0.71203 -0.414557,-0.27829 -0.818831,-0.57337 -1.211441,-0.88299 z m 47.503267,6.89571 c 2.343229,4.60297 4.305307,5.19458 6.997165,4.72484 -2.456029,-1.38836 -4.822224,-2.9293 -6.997165,-4.72484 z m -6.696971,0.14083 c 0.177465,2.49405 0.131412,5.02777 -0.339573,7.54521 -0.136172,0.72741 -0.331426,1.44795 -0.497083,2.17179 -0.70494,2.53552 -1.705992,5.01232 -3.007522,7.35341 -0.218302,0.39266 -0.461561,0.77282 -0.692582,1.1591 -0.08287,0.13849 -0.207986,0.18246 -0.315947,0.16538 -0.0372,0.0446 -0.08391,0.0813 -0.158899,0.12231 -0.746237,0.41578 -1.605266,0.56594 -2.450675,0.6847 -0.319201,0.0342 -0.637383,0.0762 -0.95757,0.10285 -2.70417,0.22505 -5.443516,0.0983 -8.158577,-0.16122 -0.678899,-0.0948 -1.36021,-0.1709 -2.036985,-0.28445 -0.666896,-0.11188 -1.330708,-0.24666 -1.992503,-0.39192 -2.267496,-0.49763 -4.507399,-1.17546 -6.629334,-2.17133 -0.115654,-0.0592 -0.232178,-0.11694 -0.34837,-0.17511 1.270232,1.47941 2.537765,2.71725 3.783953,3.64868 1.009591,0.75458 1.946128,1.44294 2.84167,2.0935 0.02358,0.008 0.04697,0.016 0.07037,0.0246 3.529964,1.14226 7.252186,1.70068 10.963651,1.66821 0.70179,-0.006 1.402194,-0.0659 2.103228,-0.0987 1.528581,-0.19862 1.960949,-0.19636 3.387398,-0.5851 0.39488,-0.10758 0.776038,-0.25941 1.164189,-0.38914 0.107993,-0.036 0.158973,0.11637 0.05095,0.15242 -0.393371,0.13119 -0.779797,0.28492 -1.179938,0.39376 -1.438515,0.39134 -1.874732,0.38951 -3.415195,0.58927 -0.70497,0.0332 -1.409082,0.0921 -2.114806,0.0982 -3.59061,0.0309 -7.190652,-0.49009 -10.618983,-1.55378 3.415565,2.46843 6.015429,4.18055 8.043217,5.2891 2.790194,0.23159 5.584214,0.0395 8.351299,-0.35209 0.930766,-1.1114 1.932126,-2.55693 3.494413,-4.02716 4.324236,-4.06942 8.538925,-1.12703 5.309489,-11.12995 -0.574481,1.65324 -1.372559,3.2237 -2.257032,4.73318 -0.284343,0.48527 -0.590188,0.9578 -0.8853,1.43659 -0.719335,1.0629 -0.943203,1.43038 -1.706207,2.42195 -0.234432,0.30463 -0.484268,0.59698 -0.726401,0.89549 -0.100003,0.12337 -0.274661,-0.0179 -0.174651,-0.14129 0.240019,-0.29575 0.488057,-0.58579 0.720377,-0.88762 0.758221,-0.98505 0.980685,-1.35068 1.695553,-2.40666 0.293429,-0.47592 0.597469,-0.94545 0.880206,-1.42779 0.928049,-1.58329 1.761106,-3.23442 2.336249,-4.97871 -0.916263,-2.77563 -2.379084,-6.50861 -4.532131,-11.58767 z m -37.48746,0.20476 v 4.7e-4 c 1.438266,2.91912 2.952195,5.71924 4.50479,8.28087 0.588481,0.15752 1.178208,0.30951 1.769675,0.45632 2.781767,0.68379 5.611325,1.14558 8.46109,1.42825 0.701177,0.0696 1.404389,0.11965 2.106463,0.17928 2.358631,0.15812 4.724533,0.20922 7.08658,0.10516 0.848163,-0.0373 1.180388,-0.0702 1.980464,-0.13434 0.183597,-0.0221 0.367312,-0.0444 0.55082,-0.0671 -1.258694,-1.63929 -2.521844,-3.27477 -3.794612,-4.90321 -0.03102,0.0835 -0.104969,0.15306 -0.229318,0.16817 -0.123642,0.0144 -0.246871,0.0358 -0.371069,0.044 -0.308808,0.0202 -1.066176,0.0198 -1.321698,0.0218 -0.973311,-0.0158 -1.33857,-0.0119 -2.361734,-0.0755 -2.558392,-0.15906 -5.103903,-0.50603 -7.604043,-1.07663 -0.702979,-0.17965 -1.411875,-0.33852 -2.109251,-0.53878 -2.708256,-0.77774 -5.326632,-1.88203 -7.758308,-3.3054 -0.298956,-0.191 -0.606537,-0.3829 -0.909849,-0.58325 z m 58.209799,7.69948 c -0.912435,0.0519 -1.34429,1.4728 -2.12639,1.89615 -1.60677,0.86973 -3.953287,2.4105 -3.084887,4.61042 2.231173,5.6522 4.785084,11.19662 0,19.19679 -1.138972,1.90425 1.376001,4.61042 3.084887,4.61042 h 2.184761 v -30.31285 c -0.01933,-1.3e-4 -0.03946,-0.002 -0.05837,-9e-4 z m -53.53545,0.86029 c 1.43442,2.34617 2.899806,4.48541 4.368131,6.31801 0.122862,0.0724 0.246226,0.14341 0.371077,0.21172 0.34725,0.18998 0.704073,0.36017 1.056244,0.54017 2.084741,0.97606 4.2851,1.63995 6.512129,2.12777 0.654328,0.14334 1.31043,0.27638 1.969804,0.38683 0.667282,0.11175 1.338866,0.18617 2.008254,0.27935 2.680529,0.25452 5.385163,0.38059 8.054808,0.15751 0.312874,-0.0259 0.623902,-0.0676 0.935795,-0.10099 0.774217,-0.11719 1.576443,-0.23524 2.260275,-0.62402 0.01307,-0.007 0.02169,-0.0147 0.03058,-0.0222 -1.877441,-2.47517 -3.757669,-4.94821 -5.649063,-7.41271 -0.01703,0.025 -0.04491,0.0448 -0.0866,0.0496 -0.192894,0.0237 -0.385725,0.046 -0.57862,0.0699 -0.804558,0.0645 -1.138253,0.0971 -1.991122,0.13435 -2.370841,0.10429 -4.746049,0.0533 -7.113439,-0.10563 -0.704216,-0.0598 -1.409194,-0.10994 -2.112496,-0.17975 -2.859464,-0.28378 -5.698543,-0.74767 -8.489804,-1.4338 -0.516306,-0.12817 -1.031842,-0.26002 -1.545916,-0.39609 z m 28.166095,18.88964 c -2.25589,0.29623 -4.52809,0.45037 -6.800282,0.34792 3.741933,1.83001 5.293387,1.26003 6.800282,-0.34792 z" />
  </g>
</svg>
