<?xml version="1.0" encoding="UTF-8" standalone="no"?>
<svg
   xmlns:dc="http://purl.org/dc/elements/1.1/"
   xmlns:cc="http://creativecommons.org/ns#"
   xmlns:rdf="http://www.w3.org/1999/02/22-rdf-syntax-ns#"
   xmlns:svg="http://www.w3.org/2000/svg"
   xmlns="http://www.w3.org/2000/svg"
   xmlns:sodipodi="http://sodipodi.sourceforge.net/DTD/sodipodi-0.dtd"
   xmlns:inkscape="http://www.inkscape.org/namespaces/inkscape"
   width="700"
   height="700"
   viewBox="0 0 185.20834 185.20834"
   version="1.1"
   id="svg8"
   inkscape:version="1.0.1 (3bc2e813f5, 2020-09-07)"
   sodipodi:docname="ic_catalogue.svg"
   inkscape:export-filename="D:\_Personal(Clark)\Downloads\_cert_talline\jpg\App Abaca\UI\vector\icons\newVectors\ic_diseaseIndex.png"
   inkscape:export-xdpi="96"
   inkscape:export-ydpi="96">
  <defs
     id="defs2" />
  <sodipodi:namedview
     id="base"
     pagecolor="#ffffff"
     bordercolor="#666666"
     borderopacity="1.0"
     inkscape:pageopacity="0.0"
     inkscape:pageshadow="2"
     inkscape:zoom="0.69540273"
     inkscape:cx="145.31289"
     inkscape:cy="458.31001"
     inkscape:document-units="mm"
     inkscape:current-layer="layer1"
     inkscape:document-rotation="0"
     showgrid="false"
     units="px"
     inkscape:window-width="1920"
     inkscape:window-height="1001"
     inkscape:window-x="-9"
     inkscape:window-y="-9"
     inkscape:window-maximized="1"
     showguides="true"
     inkscape:snap-text-baseline="true" />
  <metadata
     id="metadata5">
    <rdf:RDF>
      <cc:Work
         rdf:about="">
        <dc:format>image/svg+xml</dc:format>
        <dc:type
           rdf:resource="http://purl.org/dc/dcmitype/StillImage" />
        <dc:title />
      </cc:Work>
    </rdf:RDF>
  </metadata>
  <g
     inkscape:label="Layer 1"
     inkscape:groupmode="layer"
     id="layer1">
    <path
       id="rect855"
       style="display:inline;fill:#0e9594;fill-opacity:1;stroke:#065c77;stroke-width:2;stroke-linecap:round;stroke-linejoin:round;stroke-miterlimit:4;stroke-dasharray:none;stroke-opacity:1"
       d="M 12.993885,1.6069369 H 173.43886 c 6.72992,0 12.14788,5.417959 12.14788,12.1478911 V 174.19981 c 0,6.72993 -5.41796,12.14789 -12.14788,12.14789 H 12.993885 c -6.7299301,0 -12.14789014,-5.41796 -12.14789014,-12.14789 V 13.754828 c 0,-6.7299321 5.41796004,-12.1478911 12.14789014,-12.1478911 z" />
    <path
       id="rect835"
       style="fill:#ffffff;fill-opacity:1;stroke-width:0.735795"
       d="m 24.340027,22.805218 c -5.779397,0 -10.432218,7.254284 -10.432218,16.264843 v 19.726141 c -0.01705,0.38188 -0.02889,0.766008 -0.02889,1.154872 v 93.057186 c 0,9.01056 4.652822,16.26437 10.432218,16.26437 H 166.38075 c 5.7794,0 10.43222,-7.25381 10.43222,-16.26437 V 59.951074 c 0,-9.010556 -4.65282,-16.264369 -10.43222,-16.264369 H 95.348071 v -4.616644 c 0,-9.010559 -4.652819,-16.264843 -10.432215,-16.264843 z m 29.347863,37.12975 a 22.067416,22.067416 0 0 1 0.036,0 22.067416,22.067416 0 0 1 22.06715,22.06715 A 22.067416,22.067416 0 0 1 53.723891,104.06974 22.067416,22.067416 0 0 1 31.656268,82.002118 22.067416,22.067416 0 0 1 53.68789,59.934968 Z m 38.95443,18.513004 h 62.95663 c 3.08517,0 5.56878,2.782795 5.56878,6.239532 0,3.456737 -2.48361,6.239529 -5.56878,6.239529 H 92.64232 c -3.085177,0 -5.568776,-2.782792 -5.568776,-6.239529 0,-3.456737 2.483599,-6.239532 5.568776,-6.239532 z m 0,25.912138 h 62.95663 c 3.08517,0 5.56878,2.7828 5.56878,6.23953 0,3.45673 -2.48361,6.23952 -5.56878,6.23952 H 92.64232 c -3.08518,0 -5.568776,-2.78279 -5.568776,-6.23952 0,-3.45673 2.483596,-6.23953 5.568776,-6.23953 z M 42.766344,128.52052 H 151.54553 c 5.33071,0 9.6222,2.7828 9.6222,6.23953 0,3.45674 -4.29149,6.23953 -9.6222,6.23953 H 42.766344 c -5.330727,0 -9.62267,-2.78279 -9.62267,-6.23953 0,-3.45673 4.291943,-6.23953 9.62267,-6.23953 z" />
  </g>
</svg>
