<?xml version="1.0" encoding="UTF-8" standalone="no"?>
<svg
   xmlns:dc="http://purl.org/dc/elements/1.1/"
   xmlns:cc="http://creativecommons.org/ns#"
   xmlns:rdf="http://www.w3.org/1999/02/22-rdf-syntax-ns#"
   xmlns:svg="http://www.w3.org/2000/svg"
   xmlns="http://www.w3.org/2000/svg"
   xmlns:sodipodi="http://sodipodi.sourceforge.net/DTD/sodipodi-0.dtd"
   xmlns:inkscape="http://www.inkscape.org/namespaces/inkscape"
   width="700"
   height="700"
   viewBox="0 0 185.20833 185.20834"
   version="1.1"
   id="svg2596"
   inkscape:version="1.0.1 (3bc2e813f5, 2020-09-07)"
   sodipodi:docname="leaf.svg"
   inkscape:export-filename="D:\_Personal(Clark)\Downloads\_cert_talline\jpg\App Abaca\UI\vector\icons\newVectors\leaf.png"
   inkscape:export-xdpi="96"
   inkscape:export-ydpi="96">
  <defs
     id="defs2590" />
  <sodipodi:namedview
     id="base"
     pagecolor="#ffffff"
     bordercolor="#666666"
     borderopacity="1.0"
     inkscape:pageopacity="0.0"
     inkscape:pageshadow="2"
     inkscape:zoom="0.34165563"
     inkscape:cx="342.85714"
     inkscape:cy="560"
     inkscape:document-units="mm"
     inkscape:current-layer="layer1"
     inkscape:document-rotation="0"
     showgrid="false"
     inkscape:window-width="1920"
     inkscape:window-height="1001"
     inkscape:window-x="-9"
     inkscape:window-y="-9"
     inkscape:window-maximized="1"
     units="px" />
  <metadata
     id="metadata2593">
    <rdf:RDF>
      <cc:Work
         rdf:about="">
        <dc:format>image/svg+xml</dc:format>
        <dc:type
           rdf:resource="http://purl.org/dc/dcmitype/StillImage" />
        <dc:title></dc:title>
      </cc:Work>
    </rdf:RDF>
  </metadata>
  <g
     inkscape:label="Layer 1"
     inkscape:groupmode="layer"
     id="layer1">
    <path
       id="path2448"
       style="fill:#ffffff;fill-opacity:1;stroke:none;stroke-width:1.08206;stroke-linecap:round;stroke-linejoin:round;stroke-miterlimit:4;stroke-dasharray:none;stroke-dashoffset:0;stroke-opacity:1"
       d="m 89.174395,135.07656 c 1.49347,-0.80841 1.91757,-4.66428 5.33144,0 1.505395,2.05677 4.872495,3.02806 3.681455,5.50275 -3.575275,7.42853 -4.227515,15.02742 0,22.91073 1.2756,2.37868 -1.64192,5.50275 -3.681455,5.50275 h -5.33144 c -2.03952,0 -5.04079,-3.23007 -3.68145,-5.50275 5.71091,-9.54804 2.66286,-16.16493 0,-22.91073 -1.03642,-2.62556 1.7638,-4.46474 3.68145,-5.50275 z M 173.14257,76.192942 c 0.61485,0.50263 0.96086,1.61631 1.07094,3.21271 -0.0876,0.12393 -0.23573,0.33473 -0.30435,0.4152 -0.25792,0.30263 -0.64323,0.67526 -0.92259,0.93466 -0.64738,0.60112 -0.9026,0.8 -1.60739,1.39388 -1.41096,1.18511 -2.91269,2.25147 -4.46755,3.23706 1.93646,-3.12369 3.86686,-6.25289 5.65042,-9.46716 0.21455,0.0425 0.40855,0.13306 0.58051,0.27364 z m -1.24664,-0.25704 c -1.65938,2.97024 -3.44057,5.86977 -5.23243,8.76156 0.2604,-1.43852 0.5876,-2.86402 1.00583,-4.26676 0.26472,-0.8828 0.3459,-1.19592 0.64008,-2.02894 0.11067,-0.31334 0.26813,-0.72967 0.42278,-1.06909 1.0977,-0.5638 2.03901,-0.99886 2.78355,-1.2839 0.13216,-0.0506 0.25823,-0.0867 0.38019,-0.11287 z m -5.23243,8.76156 c -0.0835,0.46141 -0.16023,0.92407 -0.23075,1.38784 -0.0286,0.18797 -0.2946,0.14762 -0.266,-0.0404 0.0374,-0.24527 0.0766,-0.49045 0.11738,-0.73511 0.12657,-0.20407 0.25283,-0.40826 0.37932,-0.61238 z m -0.37931,0.61238 c -0.22034,0.35537 -0.44031,0.71104 -0.66046,1.06648 -1.8646,2.92196 -3.77723,5.812248 -5.71615,8.68473 0.0281,-0.23237 0.0559,-0.46489 0.0839,-0.69727 0.58408,-3.787492 1.41109,-7.55683 2.91387,-11.09802 0.77857,-1.59658 1.55455,-3.15649 2.91428,-4.3392 0.90542,-0.51943 1.75818,-0.99177 2.52941,-1.39566 -0.38544,0.90717 -0.65865,1.89385 -0.93718,2.82232 -0.48513,1.62677 -0.84847,3.28402 -1.12763,4.95663 z m -6.37661,9.75121 c -0.029,0.23818 -0.0572,0.47658 -0.0858,0.71482 -1e-4,8e-4 -5.3e-4,0.002 -5.3e-4,0.003 -0.15577,0.0683 -0.31146,0.13678 -0.46722,0.20511 -0.0149,-0.0117 -0.0285,-0.0252 -0.0409,-0.0402 0.19903,-0.29353 0.39615,-0.58832 0.59458,-0.88226 z m -0.59457,0.88226 c -0.0191,0.0282 -0.038,0.0564 -0.0572,0.0846 -0.12102,0.0592 -0.17271,0.15845 -0.17307,0.25682 -1.99107,2.93174 -4.01207,5.843488 -6.04559,8.746228 -0.004,-0.0236 -0.009,-0.0468 -0.0132,-0.0703 -0.24137,-1.45273 -0.3714,-2.9232 -0.42105,-4.39444 0.003,-0.662908 -0.0155,-1.326348 0.008,-1.988848 0.11795,-3.24677 0.67534,-6.485812 1.91843,-9.49877 0.58458,-1.32072 1.15666,-2.66796 2.06936,-3.80292 0.11295,-0.15298 -0.1036,-0.31258 -0.21636,-0.15955 -0.92464,1.15054 -1.50604,2.51517 -2.09882,3.85366 -1.25591,3.041728 -1.82113,6.31163 -1.94109,9.58985 -0.0245,0.66802 -0.006,1.33699 -0.009,2.005468 0.0496,1.48448 0.18064,2.96807 0.42392,4.43389 0.0189,0.11353 0.0413,0.22636 0.0642,0.33917 -1.76836,2.52247 -3.54512,5.03896 -5.32268,7.55429 -0.28544,0.40282 -0.17462,0.24648 -0.42814,0.60425 -0.36607,-1.39186 -0.70386,-2.79342 -0.89711,-4.23757 -0.0901,-0.70284 -0.19924,-1.40194 -0.27045,-2.10858 -0.35203,-3.49306 -0.30908,-7.08168 0.38653,-10.617198 0.43413,-1.8739 0.88991,-3.784682 1.84143,-5.508032 0.0398,-0.0733 0.0478,-0.14083 0.0359,-0.1985 5.8405,-4.449518 11.50251,-8.242328 15.98991,-10.926698 -0.70124,0.95236 -1.23238,2.01771 -1.76798,3.1136 -1.53052,3.59229 -2.37111,7.41825 -2.9654,11.26231 -0.0575,0.47695 -0.11469,0.95397 -0.17227,1.4309 -0.0115,0.10015 0.0141,0.17949 0.0607,0.23618 z m -12.24166,17.553548 c 0.01,0.038 0.0195,0.0759 0.0293,0.11391 -0.16286,0.10792 -0.15868,0.34448 -0.0196,0.45762 -0.11005,0.11153 -0.30556,0.12363 -0.39104,-0.0338 0.20235,-0.28553 0.15556,-0.21942 0.3813,-0.538 z m -0.38131,0.53799 c -3.02583,4.26963 -4.64997,6.56262 -5.67381,8.01076 -0.18798,-0.49523 -0.59508,-1.56523 -0.69476,-1.84441 -0.64409,-1.80365 -1.20795,-3.63305 -1.63863,-5.49137 -0.41253,-1.99605 -0.61992,-2.76345 -0.84082,-4.798 -0.29975,-2.76041 -0.24396,-5.5399 0.12909,-8.26349 0.0742,-0.44444 0.13801,-0.89094 0.22098,-1.33351 0.10522,-0.561238 0.23709,-1.117558 0.39134,-1.666488 2.87641,-2.52416 5.84854,-4.948832 8.79012,-7.213842 -0.76391,1.59733 -1.17787,3.322622 -1.57201,5.019982 -0.70857,3.588588 -0.75531,7.231218 -0.39925,10.777278 0.0718,0.71549 0.18227,1.42319 0.27324,2.13484 0.20962,1.56898 0.58578,3.08933 0.98699,4.60018 0.007,0.026 0.0165,0.048 0.0275,0.0682 z m -5.67381,8.01076 c 0.0171,0.045 0.0504,0.1341 0.0631,0.1677 0.0595,0.15721 -0.16202,0.23163 -0.22165,0.0744 -5.3e-4,-0.002 -0.003,-0.01 -0.004,-0.0113 0.031,-0.0438 0.13263,-0.18799 0.16266,-0.23048 z m -0.16267,0.23048 c -0.79957,1.13109 -1.39999,1.98072 -4.19936,5.94229 -0.31905,0.45007 -0.6363,0.90127 -0.95425,1.35211 -0.0527,-0.1 -0.11084,-0.19718 -0.15699,-0.30086 -0.13262,-0.29779 -0.40666,-1.04786 -0.50129,-1.30052 -0.33872,-0.9768 -0.47597,-1.33927 -0.78477,-2.38795 -0.7734,-2.62641 -1.35305,-5.32635 -1.68995,-8.0837 -0.0752,-0.78186 -0.17314,-1.55993 -0.22551,-2.34568 -0.20312,-3.04736 -0.0458,-6.15511 0.4997,-9.22337 0.19087,-0.881 0.3682,-1.77962 0.6899,-2.63411 1.5274,-1.47644 3.10908,-2.93197 4.72375,-4.356878 -0.11297,0.43603 -0.21121,0.87632 -0.29438,1.319268 -0.0837,0.44629 -0.1486,0.89683 -0.22308,1.34507 -0.37591,2.74132 -0.43281,5.53884 -0.13177,8.31736 0.22212,2.04978 0.43002,2.81828 0.84519,4.82884 0.43268,1.86823 0.99927,3.7075 1.64662,5.52079 0.11006,0.30827 0.598,1.59052 0.7561,2.00732 z m -5.15361,7.2944 c 5.3e-4,0.002 0.003,0.004 0.004,0.007 0.13712,0.26488 -0.1179,0.50358 -0.33014,0.45559 0.10871,-0.15434 0.2178,-0.30831 0.32657,-0.46255 z m -0.32658,0.46255 c -1.40824,2.00034 -2.80545,4.00837 -4.19685,6.02043 -0.038,-0.0842 -0.0757,-0.16856 -0.11364,-0.2529 -0.33632,-0.83675 -0.4827,-1.18237 -0.80634,-2.08005 -0.90132,-2.49995 -1.63707,-5.05796 -2.25564,-7.64517 -0.17061,-0.77448 -0.35227,-1.54638 -0.51194,-2.3233 -0.64893,-3.15775 -1.09861,-6.35639 -1.29394,-9.58023 -0.0563,-0.96603 -0.10184,-1.93233 -0.13139,-2.89961 1.99498,-2.39956 4.2275,-4.79425 6.61059,-7.14247 -0.15193,0.57335 -0.26797,1.15539 -0.39033,1.71893 -0.55684,3.11792 -0.71848,6.27637 -0.51329,9.3735 0.0528,0.79751 0.15181,1.58731 0.22783,2.38086 0.34002,2.79063 0.92608,5.52301 1.7082,8.18114 0.3128,1.06304 0.45144,1.43043 0.7947,2.42093 0.0962,0.25722 0.37558,1.02224 0.51027,1.32475 0.0541,0.12169 0.12123,0.23616 0.18187,0.35418 0.045,0.087 0.11028,0.13325 0.17994,0.14902 z m -4.19685,6.02043 c 0.0502,0.11168 0.10054,0.22334 0.15077,0.33506 0.0734,0.1632 -0.15794,0.26964 -0.23129,0.10644 -0.0297,-0.0659 -0.0591,-0.13195 -0.0888,-0.19789 0.0563,-0.0814 0.11309,-0.16228 0.16932,-0.2436 z m -0.16932,0.24361 c -2.05332,2.9709 -4.09338,5.95072 -6.13062,8.9327 -0.23163,-0.33962 -0.4658,-0.67758 -0.68274,-1.02553 -1.65867,-2.66024 -2.97362,-5.49703 -3.9475,-8.41924 -0.23595,-0.83486 -0.50594,-1.66405 -0.70774,-2.50476 -0.80046,-3.33491 -0.94828,-6.72718 -0.79877,-10.06168 0.0242,-0.27436 0.0462,-0.54909 0.0706,-0.82342 1.56069,-3.51997 4.00313,-7.17901 7.00893,-10.83073 0.0296,0.87555 0.0719,1.75044 0.12288,2.62503 0.19602,3.23483 0.64682,6.44428 1.29781,9.61281 0.16009,0.77931 0.34204,1.55373 0.51314,2.33059 0.62074,2.59688 1.35945,5.16424 2.26398,7.67357 0.3254,0.90265 0.47235,1.24977 0.81049,2.09126 0.0598,0.13316 0.11968,0.26623 0.1795,0.39939 z m 21.81497,-30.95878 c 0.0718,-0.10235 0.14332,-0.20491 0.21505,-0.30731 0.0423,0.23908 0.0951,0.4762 0.14233,0.71439 0.009,0.0453 1.5e-4,0.0823 -0.0192,0.11029 -7.9e-4,0.002 -0.003,0.005 -0.004,0.004 -0.0616,0.0819 -0.21381,0.0752 -0.24122,-0.0633 -0.0303,-0.15325 -0.0626,-0.30595 -0.0936,-0.45907 z m 0.33485,0.5224 c 8e-4,-0.002 0.003,-0.005 0.004,-0.004 0.13712,-0.19554 0.27373,-0.39144 0.41075,-0.58707 0.24034,-0.0201 0.48129,-0.0357 0.72072,-0.0642 1.47544,-0.17557 2.93669,-0.46389 4.37601,-0.83064 0.64107,-0.18946 1.28852,-0.35854 1.92317,-0.56849 3.11442,-1.03029 6.09673,-2.4856 8.66697,-4.540648 0.73221,-0.61649 1.47461,-1.23282 2.13873,-1.92263 -0.52905,2.00986 -1.12367,4.094248 -1.77391,6.221118 -1.19113,1.33471 -2.64965,2.41263 -4.09025,3.46248 -3.2896,2.2245 -6.97605,3.80764 -10.77071,4.94822 -0.76766,0.23073 -1.54715,0.42 -2.32075,0.62993 -1.53062,0.40622 -3.09093,0.65936 -4.65622,0.87807 0.11629,-0.16401 0.0612,-0.0861 0.18339,-0.25867 1.73253,-2.45167 3.46461,-4.90417 5.18867,-7.36245 z m 21.07959,-26.022808 c 0.0586,1.43282 -0.0552,3.21387 -0.31767,5.25751 -0.0877,0.0205 -0.16801,0.0845 -0.20872,0.20374 -0.73103,1.69798 -2.02721,2.91576 -3.35752,4.14848 -2.95471,2.463348 -6.32387,4.345628 -9.78001,6.0013 -0.1111,0.0487 -0.22217,0.0975 -0.33327,0.14621 1.99242,-2.948502 3.957,-5.91577 5.8715,-8.91616 0.18884,-0.30487 0.37748,-0.60994 0.56648,-0.91475 0.0395,0.0249 0.092,0.0311 0.14779,-0.004 1.64733,-1.03263 3.23742,-2.15353 4.72734,-3.40515 0.87438,-0.73693 1.82819,-1.49838 2.57219,-2.37376 0.0383,-0.045 0.0752,-0.0937 0.11189,-0.14353 z m -0.51915,6.68847 c -0.45993,3.0089 -1.20291,6.498958 -2.17861,10.26491 -0.73576,0.83571 -1.6027,1.55097 -2.45413,2.26754 -2.5462,2.034698 -5.50108,3.474278 -8.58587,4.493838 -0.62944,0.20803 -1.27151,0.37553 -1.90731,0.56326 -1.42662,0.36299 -2.87471,0.64856 -4.33705,0.82231 -0.16067,0.019 -0.32201,0.032 -0.48336,0.0445 1.97427,-2.82058 3.93598,-5.650038 5.86936,-8.498538 0.39343,-0.17267 0.7868,-0.3452 1.18025,-0.51787 3.50756,-1.68138 6.92652,-3.593332 9.92212,-6.09801 1.12074,-1.04034 2.19728,-2.06015 2.9746,-3.34196 z m -4.46902,18.248648 c -0.85165,2.71684 -1.79317,5.49281 -2.80675,8.26524 -0.5605,0.5127 -1.14788,0.99716 -1.75629,1.45071 -0.41701,0.31089 -0.84664,0.60437 -1.26996,0.9066 -2.62988,1.77055 -5.4638,3.24082 -8.44253,4.33242 -2.19544,0.80457 -3.0806,0.97924 -5.32501,1.56556 -2.11111,0.49753 -4.25448,0.84211 -6.408,1.09063 -0.28736,0.033 -1.2296,0.12315 -1.89351,0.18632 1.10872,-1.56837 2.62966,-3.71602 5.98232,-8.44692 1.76869,-0.23976 3.53414,-0.5092 5.2626,-0.96832 0.78319,-0.21279 1.5725,-0.40443 2.34963,-0.63833 3.85158,-1.1592 7.59206,-2.76945 10.92973,-5.0299 1.16281,-0.84836 2.33564,-1.71546 3.37777,-2.71401 z m -3.00456,8.80256 c -0.94397,2.55764 -1.94913,5.10683 -3.00335,7.6008 -0.60681,0.53522 -1.28083,0.99816 -1.93776,1.4648 -2.77077,1.80888 -5.77871,3.25497 -8.91045,4.32357 -0.80753,0.27556 -1.63091,0.50308 -2.4462,0.75466 -2.9118,0.81726 -5.88987,1.37341 -8.89412,1.70971 -1.19951,0.13427 -1.63006,0.15105 -2.77345,0.22616 -0.29934,0.0121 -1.18448,0.057 -1.54802,0.0508 -0.12948,-0.003 -0.25829,-0.0187 -0.38734,-0.0294 -0.006,-5.3e-4 -0.0123,10e-4 -0.0185,1.7e-4 0.26587,-0.37672 0.53124,-0.75377 0.79789,-1.12992 2.67935,-3.79173 3.22347,-4.5615 4.01931,-5.68742 0.62991,-0.0597 1.80553,-0.17156 2.1321,-0.20929 2.16492,-0.24997 4.31945,-0.59654 6.44171,-1.09705 2.26056,-0.59096 3.14706,-0.76592 5.35874,-1.577 2.99798,-1.09945 5.85054,-2.57994 8.4973,-4.36253 0.42683,-0.30485 0.86,-0.60066 1.28049,-0.91423 0.47769,-0.35623 0.94193,-0.73209 1.39161,-1.12439 z m -3.52765,8.82814 c -1.54178,3.5647 -3.18055,6.99198 -4.87974,10.13732 -0.69216,0.22257 -1.38654,0.43838 -2.0829,0.64835 -3.27546,0.97964 -6.62102,1.69793 -10.00125,2.20344 -0.8317,0.1244 -1.66696,0.22545 -2.50032,0.33807 -2.80217,0.328 -5.61922,0.52875 -8.44097,0.54445 -1.01322,0.006 -1.41122,-0.0138 -2.36873,-0.0431 -0.22014,-0.0155 -0.44057,-0.031 -0.66068,-0.0471 1.40341,-2.02852 2.81267,-4.05307 4.2335,-6.06945 0.0419,0.0977 0.13428,0.17638 0.28341,0.18702 0.14823,0.01 0.29616,0.0279 0.44468,0.0302 0.36927,0.006 1.27195,-0.0392 1.57664,-0.0521 1.15927,-0.0763 1.59501,-0.0934 2.81087,-0.22974 3.04023,-0.34092 6.05426,-0.90474 9.00071,-1.73279 0.82733,-0.25572 1.66254,-0.48714 2.48197,-0.76709 3.18227,-1.08728 6.23834,-2.55889 9.05273,-4.3994 0.34507,-0.24535 0.7004,-0.49188 1.0501,-0.74866 z m -5.06545,10.47935 c -1.57107,2.8815 -3.19131,5.51832 -4.83316,7.78966 -0.14218,0.0934 -0.28514,0.18548 -0.42993,0.27428 -0.40269,0.24701 -0.81819,0.47091 -1.22734,0.70629 -2.4273,1.28683 -5.0105,2.20811 -7.63629,2.92133 -0.77149,0.20956 -1.54613,0.40689 -2.32559,0.57754 -0.7888,0.17268 -1.58498,0.30129 -2.37739,0.45197 -3.18015,0.46195 -6.39654,0.77214 -9.59198,0.66412 -0.37448,-0.0124 -0.74745,-0.0436 -1.1212,-0.0649 -0.9298,-0.0939 -1.89309,-0.18751 -2.73123,-0.61049 -0.0161,-0.008 -0.0269,-0.0159 -0.038,-0.0244 2.09153,-3.06148 4.18673,-6.12035 6.29552,-9.16997 0.0217,0.0288 0.0559,0.0506 0.10584,0.0537 0.23134,0.0169 0.46293,0.0322 0.69427,0.0493 0.96286,0.0292 1.36265,0.0485 2.38148,0.0424 2.83225,-0.0159 5.65997,-0.21755 8.47254,-0.54698 0.83589,-0.11299 1.67365,-0.21427 2.50787,-0.33908 3.39174,-0.50742 6.74859,-1.22835 10.03524,-2.21134 0.60802,-0.18337 1.21473,-0.37113 1.81964,-0.56379 z m -5.79556,9.07711 c -1.42679,1.83887 -2.86495,3.38971 -4.29549,4.57382 -1.15881,0.95919 -2.2345,1.83527 -3.26351,2.66371 -0.0276,0.0113 -0.0552,0.022 -0.0826,0.0335 -4.14019,1.57039 -8.54376,2.45576 -12.9698,2.63661 -0.8369,0.0343 -1.6752,0.005 -2.51278,0.007 -1.83384,-0.14635 -2.34913,-0.11832 -4.07248,-0.49733 -0.47706,-0.10487 -0.94085,-0.26345 -1.41119,-0.39513 -0.13087,-0.0366 -0.18248,0.14836 -0.0516,0.18495 0.47666,0.13314 0.94659,0.29328 1.43,0.39936 1.73787,0.38137 2.2577,0.35321 4.10574,0.50032 0.8423,-0.002 1.68527,0.0267 2.52686,-0.008 4.28188,-0.17555 8.54195,-1.00948 12.56565,-2.4802 -3.92537,3.14445 -6.92276,5.3391 -9.27435,6.78045 -3.31225,0.44111 -6.65411,0.37749 -9.97566,0.0743 -1.17524,-1.26975 -2.45462,-2.93353 -4.40385,-4.59365 -5.39526,-4.59502 -10.24541,-0.83874 -6.98756,-12.95339 0.78257,1.9367 1.82724,3.76155 2.97084,5.50855 0.36764,0.56164 0.76018,1.10669 1.14028,1.65996 0.92032,1.22442 1.20881,1.64951 2.17699,2.78635 0.29745,0.34926 0.61268,0.68296 0.91897,1.02448 0.12648,0.14113 0.32585,-0.0376 0.19933,-0.17872 -0.3036,-0.33834 -0.616,-0.66924 -0.91078,-1.01529 -0.96209,-1.12934 -1.24897,-1.552 -2.16355,-2.76845 -0.37794,-0.54993 -0.76837,-1.09176 -1.13392,-1.65 -1.19991,-1.8324 -2.29057,-3.75123 -3.07931,-5.79644 0.92799,-3.36278 2.45079,-7.89906 4.71683,-14.0807 -0.064,2.98344 0.14107,6.00081 0.8514,8.97378 0.20535,0.85902 0.48074,1.70637 0.72102,2.55939 0.99028,2.98069 2.3297,5.87383 4.01962,8.58746 0.28344,0.45514 0.5964,0.89364 0.89464,1.34044 0.10702,0.16018 0.25827,0.20539 0.38595,0.17864 0.0469,0.0509 0.10511,0.0917 0.19694,0.13621 0.91413,0.45149 1.94679,0.57987 2.96157,0.67143 0.38251,0.022 0.76445,0.0527 1.1477,0.0657 3.23671,0.1083 6.49459,-0.20467 9.71563,-0.6746 0.80364,-0.15318 1.61115,-0.28424 2.41115,-0.45963 0.78833,-0.17282 1.57171,-0.37259 2.35197,-0.58487 2.67346,-0.72733 5.30316,-1.66762 7.77363,-2.98019 0.13471,-0.0776 0.27041,-0.15364 0.40583,-0.23005 z m -18.53514,15.11826 c -4.35217,2.40274 -6.2352,1.81458 -8.12654,-0.013 2.70656,0.21967 5.42413,0.2695 8.12654,0.013 z M 9.5360446,77.985894 c -0.58917,0.53249 -0.87957,1.66195 -0.91039,3.26185 0.0935,0.11943 0.25203,0.32263 0.32455,0.3996 0.27261,0.28947 0.67591,0.64255 0.96777,0.88778 0.6763904,0.56829 0.9411604,0.75428 1.6745204,1.31249 1.46796,1.11373 3.0207,2.10435 4.6225,3.01167 -2.0889,-3.02388 -4.17203,-6.05356 -6.11269,-9.17548 -0.2121904,0.0531 -0.4014704,0.15315 -0.5662504,0.30208 z m 1.2323804,-0.31851 c 1.80453,2.88435 3.72725,5.69203 5.66024,8.49146 -0.33141,-1.42384 -0.72883,-2.83138 -1.21607,-4.21167 -0.30815,-0.86859 -0.40474,-1.1773 -0.73985,-1.99472 -0.12608,-0.30747 -0.30398,-0.71548 -0.47525,-1.04682 -1.1243,-0.5087 -2.08601,-0.89658 -2.84377,-1.14437 -0.13449,-0.044 -0.26219,-0.0737 -0.3853,-0.0939 z m 5.66024,8.49146 c 0.1063,0.4567 0.20582,0.91499 0.29926,1.3747 0.0379,0.18631 0.30155,0.13283 0.26366,-0.0535 -0.0495,-0.24312 -0.10078,-0.48606 -0.15372,-0.72839 -0.13649,-0.19755 -0.27276,-0.39522 -0.4092,-0.59282 z m 0.40919,0.59282 c 0.23769,0.34402 0.47502,0.68835 0.71251,1.03243 2.00714,2.82596 4.06066,5.6179 6.13956,8.390758 -0.0394,-0.23072 -0.0789,-0.46155 -0.1183,-0.69226 -0.77155,-3.753788 -1.78389,-7.477608 -3.46034,-10.939968 -0.85674,-1.55602 -1.70909,-3.07555 -3.12577,-4.18941 -0.93004,-0.47393 -1.80517,-0.90342 -2.59546,-1.26859 0.42992,0.88694 0.7517,1.85888 1.0759,2.7724 0.56517,1.60073 1.0102,3.23793 1.37191,4.89464 z m 6.85207,9.423188 c 0.0404,0.23651 0.0807,0.47316 0.12115,0.70968 1.5e-4,7.9e-4 5.8e-4,0.002 6.9e-4,0.003 0.15897,0.0605 0.31785,0.12118 0.47681,0.18169 0.0143,-0.0125 0.0272,-0.0265 0.0388,-0.0422 -0.21332,-0.28331 -0.42482,-0.56796 -0.63756,-0.8517 z m 0.63757,0.8517 c 0.0204,0.0272 0.0408,0.0545 0.0613,0.0817 0.12382,0.0532 0.18035,0.1497 0.18559,0.24792 2.13393,2.829448 4.29675,5.637448 6.47165,8.435828 0.003,-0.0237 0.007,-0.0471 0.01,-0.0708 0.16907,-1.4629 0.22605,-2.938 0.20273,-4.4099 -0.0357,-0.66197 -0.0502,-1.325478 -0.10704,-1.985968 -0.27872,-3.23693 -0.99597,-6.444368 -2.38686,-9.392008 -0.64932,-1.29013 -1.28747,-2.60736 -2.25529,-3.69569 -0.12035,-0.1472 0.088,-0.31733 0.20818,-0.17008 0.98053,1.10331 1.62885,2.43744 2.28724,3.74491 1.40512,2.97575 2.13171,6.213608 2.414,9.481858 0.0575,0.66598 0.0723,1.335038 0.10832,2.002548 0.0241,1.4851 -0.0333,2.97337 -0.20364,4.44944 -0.0132,0.11432 -0.0301,0.22814 -0.0473,0.34192 1.8912,2.43174 3.79051,4.85707 5.69054,7.2812 0.30506,0.38817 0.18663,0.23753 0.45757,0.58229 0.29663,-1.4083 0.56455,-2.82488 0.68598,-4.27682 0.0551,-0.70644 0.12952,-1.4101 0.16561,-2.1194 0.17848,-3.5062 -0.0423,-7.08827 -0.91226,-10.584968 -0.52648,-1.85007 -1.0764,-3.735918 -2.11217,-5.409978 -0.0434,-0.0713 -0.0548,-0.13828 -0.0459,-0.19646 -6.05386,-4.15454 -11.89689,-7.66207 -16.51182,-10.12073 0.74758,0.91644 1.33087,1.95416 1.92013,3.02215 1.70667,3.51202 2.73586,7.29162 3.51994,11.101508 0.081,0.47352 0.16188,0.94709 0.24292,1.4206 0.0171,0.0993 -0.005,0.17997 -0.049,0.23892 z m 13.09661,16.925208 c -0.008,0.0384 -0.0156,0.0768 -0.0237,0.11523 0.16801,0.0997 0.17555,0.33621 0.0422,0.45608 0.11544,0.10595 0.31131,0.10834 0.38888,-0.0532 -0.21626,-0.27516 -0.16624,-0.21146 -0.4075,-0.51845 z m 0.40751,0.51845 c 3.23372,4.11439 4.96952,6.32408 6.06388,7.71969 0.1632,-0.50394 0.51677,-1.5928 0.6025,-1.87656 0.55389,-1.83337 1.02639,-3.68846 1.36444,-5.56586 0.31309,-2.01402 0.48218,-2.79077 0.60198,-4.83376 0.16256,-2.77187 -0.0309,-5.54518 -0.53849,-8.24692 -0.0956,-0.44033 -0.182,-0.883 -0.28679,-1.32091 -0.1329,-0.555348 -0.29222,-1.104428 -0.47345,-1.645058 -2.99798,-2.37849 -6.08663,-4.65287 -9.13685,-6.769298 0.84215,1.5575 1.3411,3.260158 1.81889,4.935888 0.88555,3.549058 1.11276,7.184878 0.9329,10.744228 -0.0363,0.71817 -0.11151,1.43048 -0.16709,2.14576 -0.1316,1.57744 -0.43196,3.11456 -0.75778,4.64344 -0.006,0.0263 -0.0142,0.0488 -0.0242,0.0694 z m 6.06388,7.71969 c -0.0149,0.0458 -0.0437,0.13645 -0.0547,0.17064 -0.0517,0.15998 0.1733,0.22332 0.22506,0.0633 7.9e-4,-0.002 0.002,-0.01 0.004,-0.0116 -0.0332,-0.0421 -0.14179,-0.18117 -0.1739,-0.22213 z m 0.17389,0.22214 c 0.85465,1.09007 1.49644,1.9089 4.48871,5.72685 0.34097,0.43371 0.6802,0.86862 1.02009,1.30316 0.0476,-0.10248 0.10093,-0.20243 0.14189,-0.30827 0.11771,-0.30399 0.35424,-1.06673 0.43621,-1.32377 0.28989,-0.99239 0.40901,-1.36121 0.66547,-2.42391 0.64226,-2.66151 1.08738,-5.38687 1.28721,-8.15753 0.0364,-0.78462 0.0956,-1.56658 0.10898,-2.35396 0.0518,-3.05368 -0.25929,-6.14983 -0.95623,-9.18728 -0.23426,-0.87046 -0.45593,-1.75918 -0.81961,-2.59666 -1.59869,-1.39893 -3.25057,-2.77427 -4.93387,-4.117398 0.13446,0.4299 0.25443,0.86476 0.3594,1.303068 0.10575,0.44158 0.19292,0.88834 0.28942,1.33235 0.51133,2.71932 0.7068,5.51058 0.54383,8.3006 -0.12024,2.05826 -0.2898,2.83613 -0.60481,4.86479 -0.33957,1.88739 -0.81429,3.75248 -1.37097,5.59563 -0.0947,0.31334 -0.51844,1.61819 -0.65569,2.04232 z m 5.5088,7.03001 c -8e-4,0.002 -0.002,0.004 -0.003,0.007 -0.12381,0.27135 0.14277,0.49711 0.35232,0.43867 -0.11614,-0.14877 -0.23281,-0.29713 -0.34911,-0.4458 z m 0.3491,0.44579 c 1.50566,1.92809 3.00068,3.8644 4.49009,5.80503 0.0337,-0.0861 0.0673,-0.17211 0.10096,-0.25822 0.29444,-0.8524 0.4235,-1.20485 0.70227,-2.11746 0.77631,-2.54156 1.38436,-5.13288 1.87393,-7.74757 0.13203,-0.78198 0.27521,-1.56194 0.39618,-2.34583 0.49162,-3.18602 0.78221,-6.40301 0.81752,-9.63258 0.008,-0.96763 0.006,-1.935 -0.0125,-2.90255 -2.11146,-2.29774 -4.45992,-4.57883 -6.95647,-6.80606 0.18011,0.56512 0.32498,1.14067 0.47505,1.69748 0.71067,3.08649 1.02867,6.23303 0.97724,9.33652 -0.0132,0.79917 -0.073,1.59289 -0.10954,2.38925 -0.2013,2.80405 -0.65121,5.56212 -1.30063,8.25573 -0.25973,1.07724 -0.38,1.45105 -0.67374,2.45735 -0.0834,0.26167 -0.32444,1.03959 -0.44398,1.34841 -0.0481,0.12424 -0.10938,0.24187 -0.16409,0.36275 -0.0406,0.0891 -0.10354,0.13857 -0.17233,0.15776 z m 4.49009,5.80503 c -0.0447,0.11403 -0.0893,0.22805 -0.13398,0.34211 -0.0652,0.16664 0.17111,0.26148 0.23629,0.0948 0.0264,-0.0674 0.0525,-0.13472 0.0788,-0.20205 -0.0602,-0.0784 -0.121,-0.15646 -0.18119,-0.23491 z m 0.18118,0.23491 c 2.19805,2.86549 4.38328,5.74053 6.56582,8.61788 0.21452,-0.35068 0.43165,-0.69984 0.63106,-1.05811 1.52481,-2.73918 2.69753,-5.63766 3.52538,-8.60454 0.19428,-0.84552 0.42284,-1.68707 0.58272,-2.53676 0.63419,-3.37049 0.61371,-6.76592 0.29911,-10.0889 -0.0378,-0.27282 -0.0734,-0.54612 -0.11138,-0.8189 -1.73323,-3.43831 -4.35402,-6.97178 -7.53712,-10.47005 0.0138,0.87595 0.015,1.75186 0.007,2.6279 -0.0355,3.24058 -0.32663,6.46842 -0.81977,9.66532 -0.12128,0.78629 -0.26463,1.56878 -0.39702,2.35316 -0.49126,2.62446 -1.10182,5.22527 -1.88087,7.77635 -0.28025,0.91767 -0.40982,1.27165 -0.70584,2.12886 -0.0531,0.13596 -0.10633,0.27184 -0.15948,0.40779 z m -23.32255,-29.83951 c -0.0768,-0.0987 -0.15332,-0.19755 -0.23003,-0.29626 -0.0304,0.24088 -0.0714,0.48032 -0.10675,0.72055 -0.007,0.0457 0.004,0.0822 0.0246,0.10921 9.8e-4,0.002 0.003,0.004 0.004,0.004 0.0656,0.0788 0.21729,0.0645 0.23779,-0.0752 0.0227,-0.15456 0.0474,-0.30867 0.0708,-0.46314 z m -0.30856,0.53834 c -9e-4,-0.002 -0.003,-0.004 -0.004,-0.005 -0.14665,-0.18849 -0.2928,-0.37738 -0.43934,-0.56596 -0.24104,-0.008 -0.48247,-0.0118 -0.72302,-0.0284 -1.48233,-0.10222 -2.95607,-0.31776 -4.4118,-0.61273 -0.64967,-0.15746 -1.3047,-0.29423 -1.94898,-0.47246 -3.16165,-0.87466 -6.21243,-2.18038 -8.88137,-4.10552 -0.76187,-0.57944 -1.5339,-1.158218 -2.2314,-1.814248 0.62802,1.981158 1.32522,4.033508 2.08008,6.125538 1.25581,1.27404 2.76596,2.27835 4.25682,3.2555 3.39581,2.05872 7.15619,3.4572 11.00272,4.40829 0.77815,0.1924 1.56607,0.3428 2.34913,0.51413 1.54886,0.32986 3.11981,0.50536 4.69401,0.64622 -0.12423,-0.15806 -0.0654,-0.083 -0.19598,-0.24926 -1.85192,-2.36278 -3.70342,-4.72642 -5.5472,-7.09624 z M 8.6240046,81.680584 c 0.0125,1.43397 0.2144,3.20719 0.57786,5.2353 0.0885,0.0161 0.172,0.0761 0.21856,0.19315 0.8142804,1.65967 2.1692304,2.81171 3.5590004,3.97698 3.07317,2.31388 6.53148,4.026858 10.06544,5.509188 0.11337,0.0432 0.22672,0.0863 0.3401,0.12951 -2.1361,-2.846118 -4.24534,-5.712368 -6.30619,-8.614188 -0.20372,-0.29513 -0.40725,-0.59047 -0.61112,-0.88555 -0.0383,0.0268 -0.0904,0.0356 -0.1478,0.003 -1.69648,-0.94968 -3.34017,-1.99039 -4.8903,-3.16663 -0.90982,-0.6927 -1.9002104,-1.40594 -2.6866804,-2.24336 -0.0405,-0.0431 -0.0798,-0.0899 -0.11888,-0.13781 z m 0.85002,6.65452 c 0.6081004,2.98249 1.5235404,6.431348 2.6846804,10.144318 0.77628,0.79821 1.6776,1.46962 2.56351,2.143108 2.64391,1.90601 5.66651,3.19736 8.79804,4.06277 0.63898,0.17659 1.28856,0.31205 1.93288,0.46804 1.44286,0.29185 2.90332,0.50529 4.37247,0.60635 0.16143,0.0111 0.32321,0.016 0.48498,0.0205 -2.11164,-2.71926 -4.21117,-5.44802 -6.28336,-8.197178 -0.40151,-0.15295 -0.80294,-0.30578 -1.20446,-0.45873 -3.58659,-1.50547 -7.09611,-3.245608 -10.21216,-5.598748 -1.17092,-0.98352 -2.29669,-1.94872 -3.1365804,-3.19044 z m 5.3679804,18.004726 c 0.98525,2.67128 2.0632,5.39716 3.21294,8.11595 0.58522,0.48428 1.1959,0.93904 1.82603,1.36187 0.43191,0.28984 0.87556,0.56167 1.31334,0.84255 2.71439,1.63802 5.61771,2.96603 8.64688,3.90865 2.23262,0.69477 3.12534,0.82535 5.39606,1.29971 2.13317,0.3923 4.29099,0.63022 6.45417,0.77169 0.28865,0.0188 1.2342,0.0621 1.90042,0.0923 -1.18508,-1.51149 -2.8106,-3.58111 -6.39363,-8.14003 -1.77838,-0.15182 -3.55503,-0.33341 -5.30411,-0.70632 -0.79277,-0.1737 -1.59062,-0.32599 -2.37839,-0.52108 -3.90429,-0.96688 -7.71998,-2.38976 -11.16558,-4.482 -1.20343,-0.78968 -2.41779,-1.59757 -3.50813,-2.54324 z m 3.43714,8.64279 c 1.06957,2.50772 2.19984,5.00394 3.37638,7.44261 0.63257,0.50449 1.32871,0.93345 2.00796,1.36697 2.85703,1.66932 5.93294,2.96455 9.11381,3.87661 0.82019,0.2352 1.65382,0.42163 2.48059,0.6325 2.94873,0.67193 5.95069,1.0798 8.96792,1.26679 1.2047,0.0747 1.63555,0.0701 2.78126,0.0884 0.29957,-0.003 1.18585,-0.002 1.54864,-0.026 0.12918,-0.009 0.25704,-0.0315 0.38539,-0.0486 0.006,-7.9e-4 0.0124,5.3e-4 0.0184,-7.9e-4 -0.28422,-0.36308 -0.56794,-0.72651 -0.85292,-1.08899 -2.86397,-3.65428 -3.44557,-4.39613 -4.29623,-5.48122 -0.63211,-0.0284 -1.81182,-0.0819 -2.13987,-0.10336 -2.17465,-0.14237 -4.34371,-0.38172 -6.48816,-0.77643 -2.28707,-0.4782 -3.18115,-0.609 -5.43031,-1.30948 -3.0488,-0.9495 -5.97122,-2.2868 -8.70309,-3.936 -0.44141,-0.28332 -0.88871,-0.55731 -1.32421,-0.84965 -0.49477,-0.33212 -0.97707,-0.68451 -1.44564,-1.05404 z m 3.96086,8.64245 c 1.71655,3.48392 3.52318,6.82575 5.37617,9.88301 0.70234,0.18799 1.40657,0.36912 2.11248,0.54433 3.31999,0.81609 6.69704,1.36768 10.09816,1.70504 0.83684,0.083 1.67609,0.14256 2.51401,0.21373 2.81498,0.1887 5.63851,0.2496 8.45757,0.12542 1.01227,-0.0445 1.40882,-0.0838 2.36369,-0.16039 0.21912,-0.0264 0.43851,-0.0527 0.65752,-0.0799 -1.50222,-1.95646 -3.01009,-3.90868 -4.52911,-5.85218 -0.037,0.0996 -0.12537,0.18283 -0.27379,0.20085 -0.14757,0.0172 -0.2944,0.0425 -0.44263,0.0523 -0.36854,0.0241 -1.27233,0.0238 -1.57729,0.0261 -1.16162,-0.0188 -1.59768,-0.0142 -2.8188,-0.0901 -3.05339,-0.18984 -6.09166,-0.60357 -9.07553,-1.28457 -0.83899,-0.2144 -1.68463,-0.40413 -2.51693,-0.64314 -3.23226,-0.92822 -6.3575,-2.24655 -9.25966,-3.94531 -0.3568,-0.22795 -0.72392,-0.45657 -1.08592,-0.69568 z m 5.57862,10.21541 c 1.71195,2.80011 3.46088,5.35337 5.21329,7.54056 0.14663,0.0863 0.29398,0.17111 0.44299,0.25263 0.41444,0.22674 0.84053,0.42978 1.26084,0.6446 2.4881,1.16493 5.11378,1.95705 7.7717,2.53925 0.78092,0.17107 1.5644,0.32976 2.35135,0.46157 0.79639,0.13338 1.59796,0.22237 2.39686,0.33358 3.19915,0.30377 6.42696,0.45416 9.61312,0.18791 0.37341,-0.0309 0.74437,-0.0806 1.1166,-0.12039 0.92401,-0.13986 1.88148,-0.2811 2.69762,-0.7451 0.0156,-0.009 0.0261,-0.0173 0.0367,-0.0263 -2.24069,-2.95407 -4.48493,-5.90534 -6.74227,-8.84667 -0.0203,0.0298 -0.0533,0.0532 -0.10304,0.0589 -0.2302,0.0284 -0.46076,0.0551 -0.69098,0.0837 -0.96022,0.0769 -1.35856,0.11598 -2.37643,0.16038 -2.82957,0.12448 -5.66381,0.0632 -8.48925,-0.12639 -0.84046,-0.0714 -1.68221,-0.13105 -2.52159,-0.21436 -3.41272,-0.33869 -6.80119,-0.89236 -10.13251,-1.71125 -0.61637,-0.15301 -1.23163,-0.31046 -1.84534,-0.47291 z m 6.23831,8.77872 c 1.51617,1.7659 3.02943,3.24354 4.51691,4.35531 1.20492,0.90058 2.32271,1.72226 3.39152,2.49869 0.0281,0.01 0.0562,0.0192 0.0842,0.0293 4.21294,1.36326 8.65498,2.02928 13.08454,1.99054 0.83757,-0.007 1.67338,-0.0782 2.51005,-0.11735 1.82434,-0.23706 2.34038,-0.2346 4.04282,-0.69856 0.47128,-0.12839 0.92664,-0.30976 1.38989,-0.46459 0.12889,-0.043 0.1896,0.13913 0.0607,0.18216 -0.46949,0.15658 -0.9309,0.33983 -1.40846,0.46974 -1.71684,0.46704 -2.23739,0.46478 -4.0759,0.7032 -0.84136,0.0396 -1.68187,0.11024 -2.52413,0.11751 -4.28533,0.0369 -8.58149,-0.58488 -12.67314,-1.85437 4.0764,2.94603 7.17888,4.98943 9.59901,6.31247 3.33004,0.2764 6.66463,0.0472 9.96709,-0.42018 1.11085,-1.32644 2.3062,-3.05157 4.17076,-4.80627 5.16089,-4.85678 10.19124,-1.3455 6.33697,-13.28379 -0.68563,1.97311 -1.63857,3.84749 -2.69417,5.64902 -0.33935,0.57917 -0.70439,1.14301 -1.0566,1.71444 -0.85851,1.26854 -1.12558,1.70739 -2.03621,2.89082 -0.27978,0.36357 -0.57809,0.71249 -0.86707,1.06877 -0.11934,0.14723 -0.32731,-0.0214 -0.20795,-0.16863 0.28645,-0.35296 0.58207,-0.69893 0.85934,-1.05917 0.90492,-1.17564 1.17051,-1.612 2.02369,-2.87229 0.35021,-0.56799 0.7133,-1.12849 1.05074,-1.70416 1.10761,-1.88962 2.10183,-3.86015 2.78824,-5.94194 -1.09354,-3.31265 -2.83929,-7.76787 -5.40891,-13.82963 0.2118,2.9766 0.15651,6.00044 -0.4056,9.00496 -0.16252,0.86815 -0.39557,1.7281 -0.59328,2.59199 -0.84133,3.0261 -2.03571,5.98207 -3.58906,8.77612 -0.26053,0.46863 -0.55139,0.92211 -0.82711,1.38313 -0.0989,0.16529 -0.24777,0.21794 -0.37662,0.19756 -0.0444,0.0532 -0.10045,0.0968 -0.18994,0.1458 -0.89063,0.49623 -1.91567,0.67565 -2.92466,0.81739 -0.38096,0.0408 -0.76089,0.0906 -1.14303,0.12245 -3.22737,0.26859 -6.49676,0.11747 -9.73712,-0.19224 -0.81026,-0.11316 -1.62327,-0.20404 -2.43098,-0.33956 -0.79593,-0.13353 -1.58823,-0.29423 -2.37807,-0.46759 -2.70622,-0.59392 -5.37928,-1.40271 -7.91178,-2.59125 -0.13839,-0.0709 -0.27769,-0.14004 -0.41673,-0.20964 z m 19.26166,14.18103 c 4.46592,2.18409 6.31748,1.50332 8.11593,-0.41572 -2.69236,0.35354 -5.40411,0.53801 -8.11593,0.41572 z m 37.0341,-144.320786 c -0.98077,0.0883 -2.11057,0.99093 -3.33388,2.55318 0.004,0.18806 0.009,0.50757 0.0237,0.6379 0.0542,0.49006 0.19061,1.14057 0.29703,1.60114 0.24654,1.06735 0.37023,1.44903 0.68065,2.54887 0.62411,2.19795 1.42408,4.33709 2.33474,6.43029 0.1847,-4.55348 0.37941,-9.10843 0.78409,-13.64853 -0.24981,-0.1056 -0.51196,-0.14756 -0.78626,-0.12285 z m 1.45851,0.6032 c -0.36242,4.20324 -0.55058,8.41861 -0.72242,12.63347 0.73316,-1.65785 1.38876,-3.34876 1.93506,-5.07965 0.34225,-1.09036 0.4767,-1.46824 0.75409,-2.528 0.10431,-0.39865 0.23222,-0.93554 0.30955,-1.39153 -0.73472,-1.34225 -1.39845,-2.44356 -1.96451,-3.25401 -0.10042,-0.14384 -0.20481,-0.26853 -0.31177,-0.38028 z m -0.72242,12.63347 c -0.23517,0.53176 -0.47822,1.06004 -0.72836,1.58519 -0.10138,0.21285 0.19976,0.35642 0.30111,0.14358 0.13226,-0.27775 0.26248,-0.55677 0.39072,-0.83632 0.0121,-0.2975 0.0244,-0.59495 0.0365,-0.89245 z m -0.0365,0.89245 c -0.0211,0.51807 -0.0425,1.03618 -0.0638,1.55416 -0.11816,4.29643 -0.16498,8.59373 -0.17242,12.89104 0.13293,-0.258 0.26594,-0.51611 0.39888,-0.77411 2.03414,-4.29456 3.80733,-8.73895 4.727605,-13.41939 0.3112,-2.18048 0.59953,-4.32154 0.0263,-6.48136 -0.568165,-1.16297 -1.115085,-2.24095 -1.625885,-3.19197 -0.23527,1.19934 -0.64106,2.40225 -1.0009,3.54909 -0.63342,2.0074 -1.41308,3.96136 -2.28984,5.87254 z m -0.23616,14.4452 c -0.13627,0.26449 -0.27277,0.52901 -0.40904,0.7935 -5.3e-4,10e-4 -1.7e-4,0.002 -0.003,0.003 0.11243,0.17847 0.22459,0.35705 0.33695,0.53553 0.0235,-0.002 0.0468,-0.006 0.0699,-0.0128 1.2e-4,-0.43975 0.003,-0.87948 0.004,-1.31922 z m -0.004,1.31922 c -2.7e-4,0.0422 5.3e-4,0.0844 5.3e-4,0.1266 0.0829,0.14497 0.0669,0.28282 -8e-4,0.38403 0.004,4.39441 0.0544,8.78912 0.12303,13.18327 0.0204,-0.0212 0.0422,-0.0415 0.0625,-0.0629 1.25815,-1.32342 2.41437,-2.7425 3.48861,-4.21827 0.4582,-0.68248 0.93844,-1.35078 1.374545,-2.04761 2.13706,-3.41501 3.81766,-7.12775 4.63714,-11.08531 0.31846,-1.76239 0.66822,-3.5433 0.52067,-5.34319 -0.01,-0.23554 0.32375,-0.24883 0.33307,-0.0132 0.149,1.8242 -0.20331,3.62943 -0.52572,5.41576 -0.8263,3.99602 -2.52035,7.74587 -4.67724,11.19458 -0.43951,0.70278 -0.923765,1.37664 -1.385655,2.06495 -1.08341,1.4894 -2.24977,2.92125 -3.51899,4.25678 -0.0983,0.10344 -0.19989,0.20362 -0.30179,0.30352 0.0612,3.81938 0.13494,7.63846 0.2096,11.4569 0.0129,0.61207 0.008,0.3745 0.0193,0.91808 1.34384,-1.1742 2.66541,-2.37806 3.86824,-3.72614 0.581275,-0.65886 1.179605,-1.3006 1.744185,-1.97648 2.79082,-3.34095 5.24268,-7.05474 6.9876,-11.16795 0.85767,-2.22561 1.71875,-4.50414 1.94055,-6.93505 0.0103,-0.10295 0.0487,-0.17784 0.10095,-0.2289 -2.9009,-8.62984 -6.07529,-16.46139 -8.81486,-22.3381 0.0576,1.46537 -0.13825,2.92844 -0.35061,4.42595 -0.92734,4.75218 -2.725435,9.26439 -4.788985,13.62388 -0.27273,0.52959 -0.54571,1.05909 -0.81842,1.58868 -0.0572,0.1111 -0.13921,0.17453 -0.22666,0.20019 z m 0.35803,26.53393 c -0.0366,0.032 -0.0728,0.0646 -0.10937,0.0965 0.0917,0.22423 -0.0767,0.46399 -0.29818,0.48338 0.0354,0.19106 0.22766,0.33947 0.42478,0.2376 -0.009,-0.43388 -0.007,-0.33347 -0.0175,-0.8175 z m 0.0175,0.81749 c 0.13664,6.48752 0.20909,9.97104 0.25292,12.16973 0.5374,-0.37764 1.69953,-1.19291 1.99604,-1.41016 1.91567,-1.40359 3.766865,-2.8894 5.501485,-4.49753 1.81177,-1.76213 2.55839,-2.4057 4.20021,-4.34058 2.22762,-2.62526 4.10351,-5.51737 5.61488,-8.57272 0.23353,-0.50755 0.47798,-1.01058 0.70063,-1.52259 0.28235,-0.64934 0.53385,-1.31217 0.75735,-1.98295 -1.19722,-4.59177 -2.56187,-9.148 -4.00623,-13.51907 -0.32676,2.17107 -1.10179,4.23009 -1.8777,6.24665 -1.76856,4.17672 -4.25407,7.94856 -7.0859,11.34114 -0.57139,0.68453 -1.17695,1.33422 -1.765305,2.0015 -1.30645,1.46485 -2.75005,2.76396 -4.2127,4.03587 -0.0251,0.0218 -0.0503,0.0377 -0.0756,0.0507 z m 0.25292,12.16973 c -0.0488,0.0343 -0.14501,0.10259 -0.18149,0.12825 -0.17054,0.11981 0.005,0.35045 0.17576,0.23057 0.004,-0.003 0.01,-0.008 0.0122,-0.01 -8e-4,-0.0665 -0.005,-0.28523 -0.006,-0.34974 z m 0.006,0.34975 c 0.0338,1.71725 0.0599,3.00704 0.17791,9.02081 0.0142,0.68393 0.0266,1.36777 0.039,2.05171 0.12351,-0.0661 0.25093,-0.12537 0.37043,-0.19963 0.34324,-0.21345 1.14627,-0.79281 1.41911,-0.9864 1.02711,-0.76714 1.42013,-1.04378 2.466505,-1.90551 2.62064,-2.15827 5.09352,-4.52676 7.35715,-7.12302 0.62103,-0.75029 1.2627,-1.4809 1.86298,-2.2511 2.32797,-2.98702 4.328,-6.28671 5.90198,-9.81589 0.41685,-1.03712 0.85978,-2.08294 1.12383,-3.18387 -0.54107,-2.57799 -1.15242,-5.17225 -1.81891,-7.75802 -0.18728,0.52621 -0.39262,1.04652 -0.61539,1.55907 -0.22444,0.51636 -0.47116,1.024 -0.70657,1.53589 -1.5207,3.07558 -3.40802,5.98695 -5.64958,8.62986 -1.65365,1.94973 -2.4016,2.59404 -4.22617,4.36921 -1.74356,1.61693 -3.604425,3.11099 -5.530155,4.52217 -0.32739,0.23988 -1.72011,1.21685 -2.17228,1.53477 z m 0.21711,11.07252 c -0.004,0.002 -0.006,0.003 -0.009,0.004 -0.32498,0.17655 -0.22914,0.59899 0.0221,0.697328 -0.004,-0.234018 -0.009,-0.467988 -0.0135,-0.701988 z m 0.0135,0.701988 c 0.0544,3.03291 0.092,6.066088 0.12104,9.099278 0.0976,-0.06 0.195,-0.12038 0.29255,-0.18055 0.92724,-0.62509 1.31787,-0.87806 2.27447,-1.57447 2.664005,-1.939478 5.198405,-4.053708 7.632865,-6.279398 0.71381,-0.67637 1.43715,-1.342398 2.14144,-2.028928 2.86243,-2.79026 5.54873,-5.76108 7.99149,-8.93469 0.72975,-0.9525 1.44849,-1.91283 2.15162,-2.88522 -0.37901,-3.85081 -1.00528,-7.86184 -1.81844,-11.92989 -0.24287,0.69421 -0.52843,1.37249 -0.79484,2.03607 -1.59695,3.588 -3.62776,6.94275 -5.99248,9.97942 -0.60892,0.78195 -1.25985,1.52386 -1.88981,2.28565 -2.28998,2.62823 -4.792,5.02556 -7.44364,7.2103 -1.060495,0.87371 -1.458355,1.15443 -2.499635,1.93247 -0.27771,0.1971 -1.09652,0.78819 -1.4452,1.00504 -0.14021,0.0872 -0.28869,0.15815 -0.43305,0.237078 -0.10669,0.058 -0.20603,0.0596 -0.28833,0.028 z m 0.12104,9.099278 c -0.12925,0.0798 -0.25856,0.1593 -0.38782,0.23907 -0.18882,0.11645 -0.0255,0.38665 0.16338,0.27014 0.0765,-0.047 0.15252,-0.0942 0.22877,-0.14139 -0.002,-0.12259 -0.004,-0.24522 -0.004,-0.36784 z m 0.004,0.36786 c 0.0416,4.47791 0.0632,8.95578 0.0806,13.43388 0.47401,-0.1875 0.94942,-0.37168 1.41417,-0.57788 3.552985,-1.57722 6.875875,-3.57482 9.908045,-5.89728 0.82286,-0.69293 1.67675,-1.35633 2.46865,-2.07905 3.14118,-2.86671 5.65233,-6.24625 7.81801,-9.773308 0.16598,-0.29848 0.33443,-0.59583 0.50019,-0.89439 0.84609,-4.698978 0.88368,-10.153928 0.33788,-15.993208 -0.63936,0.87819 -1.29128,1.74693 -1.95189,2.60927 -2.45111,3.18443 -5.14608,6.16554 -8.01814,8.96545 -0.70635,0.688658 -1.43177,1.357108 -2.14773,2.035568 -2.44339,2.23412 -4.98738,4.35591 -7.661195,6.302748 -0.96185,0.70033 -1.35412,0.95444 -2.28652,1.5831 -0.15402,0.0951 -0.30798,0.19009 -0.46202,0.28516 z m -0.86201,-46.953596 c -0.003,-0.15501 -0.004,-0.31003 -0.007,-0.46502 -0.20966,0.21604 -0.42887,0.42267 -0.64296,0.63436 -0.0407,0.0403 -0.057,0.0846 -0.057,0.12653 1.2e-4,0.002 5.3e-4,0.005 2.6e-4,0.007 0.007,0.12698 0.16723,0.22586 0.29168,0.10275 0.13767,-0.13626 0.27706,-0.27052 0.4154,-0.40613 z m -0.70708,0.30338 c -1.4e-4,-0.002 -5.3e-4,-0.005 -5.3e-4,-0.007 -0.005,-0.29612 -0.009,-0.59222 -0.0134,-0.88833 -0.23265,-0.18747 -0.46891,-0.37141 -0.69489,-0.56719 -1.39251,-1.20642 -2.69205,-2.51872 -3.91451,-3.89628 -0.52633,-0.64037 -1.07336,-1.26424 -1.57886,-1.92117 -2.48053,-3.22376 -4.52986,-6.79196 -5.73903,-10.68925 -0.32286,-1.14213 -0.65635,-2.29116 -0.85833,-3.4612 -0.85476,2.43119 -1.69408,4.9845 -2.50584,7.6201 0.29446,2.1986 1.04198,4.31959 1.79066,6.39925 1.82978,4.57155 4.51305,8.7607 7.61519,12.5708 0.62757,0.77078 1.29614,1.50722 1.94428,2.26078 1.28872,1.4816 2.71442,2.82668 4.16914,4.13987 -0.005,-0.24922 -0.003,-0.13103 -0.008,-0.3931 -0.0729,-3.72177 -0.14572,-7.44408 -0.20612,-11.16675 z m -3.53974,-41.37503 c -1.05669,1.43014 -2.17866,3.3376 -3.33058,5.61806 0.0756,0.082 0.11364,0.20364 0.0726,0.35432 -0.43056,2.25153 0.0531,4.40316 0.56133,6.59388 1.31988,4.58381 3.46938,8.85936 5.86576,12.9628 0.0801,0.12729 0.16031,0.25457 0.24045,0.38186 0.005,-4.41256 0.0524,-8.82502 0.1739,-13.23666 0.0182,-0.44429 0.0367,-0.88867 0.0547,-1.33303 -0.0579,-0.002 -0.11608,-0.0321 -0.14901,-0.10677 -0.97288,-2.20577 -1.82559,-4.46238 -2.48455,-6.78351 -0.38504,-1.36464 -0.8346,-2.80971 -0.98953,-4.2258 -0.007,-0.0729 -0.012,-0.14855 -0.0156,-0.22514 z m -4.119,7.22717 c -1.62107,3.40848 -3.28529,7.50819 -4.90295,12.05276 0.17407,1.36963 0.56653,2.70686 0.9422,4.03465 1.1985,3.85971 3.23076,7.39262 5.68834,10.58478 0.50147,0.65135 1.04411,1.26984 1.56621,1.90477 1.21205,1.36487 2.49997,2.6652 3.8803,3.86063 0.15165,0.13136 0.30827,0.25686 0.46521,0.38193 -0.0649,-4.26863 -0.11085,-8.53764 -0.11436,-12.80649 -0.28381,-0.45087 -0.56761,-0.9016 -0.85138,-1.35248 -2.43129,-4.1656 -4.61127,-8.50627 -5.94438,-13.16095 -0.42691,-1.84746 -0.82275,-3.64311 -0.72922,-5.49959 z m -8.10451,21.84154 c -1.01535,3.38131 -1.97953,6.88582 -2.86731,10.43685 0.21884,0.91613 0.48487,1.82198 0.79396,2.71075 0.21185,0.60917 0.44874,1.2093 0.67314,1.81396 1.46827,3.64667 3.35488,7.127 5.65348,10.31937 1.69415,2.35289 2.48134,3.14784 4.37756,5.31074 1.82111,1.97908 3.78177,3.82358 5.81963,5.57645 0.27194,0.23391 1.17657,0.98167 1.81419,1.50824 -0.0477,-2.38114 -0.11494,-5.64365 -0.2662,-12.83202 -1.64887,-1.47628 -3.27383,-2.98077 -4.72886,-4.65426 -0.65599,-0.76316 -1.33296,-1.50887 -1.96808,-2.2895 -3.14759,-3.86881 -5.86747,-8.12336 -7.7216,-12.76524 -0.60362,-1.67965 -1.20453,-3.38546 -1.57984,-5.13534 z m -3.03794,11.12601 c -0.80985,3.2821 -1.55098,6.5981 -2.20337,9.89153 0.2506,0.9715 0.62058,1.91548 0.97043,2.85145 1.58628,3.784 3.66831,7.36057 6.14001,10.63573 0.6373,0.8445 1.3243,1.65074 1.98629,2.47606 2.4207,2.86419 5.09104,5.50636 7.94117,7.9411 1.13799,0.97215 1.56832,1.28882 2.6898,2.1612 0.2985,0.22113 1.17663,0.88186 1.55383,1.12876 0.13435,0.0879 0.27851,0.15981 0.41779,0.23967 0.006,0.004 0.0121,0.009 0.0187,0.013 -0.011,-0.57163 -0.0211,-1.14325 -0.0329,-1.71488 -0.1134,-5.75593 -0.13647,-6.9246 -0.17035,-8.63393 -0.60503,-0.49957 -1.73415,-1.43191 -2.04318,-1.69776 -2.04857,-1.76236 -4.01926,-3.61665 -5.84977,-5.60649 -1.90959,-2.1789 -2.69794,-2.97509 -4.40423,-5.34597 -2.31292,-3.21378 -4.21151,-6.7176 -5.68878,-10.38838 -0.22616,-0.6098 -0.46504,-1.21477 -0.67861,-1.8291 -0.24258,-0.69796 -0.45773,-1.4067 -0.64651,-2.12216 z m -2.51877,11.51611 c -0.89661,4.7317 -1.59803,9.3898 -2.04136,13.80049 0.55575,0.70986 1.11848,1.41437 1.68729,2.11424 2.6811,3.2838 5.61593,6.34804 8.73433,9.218 0.76726,0.70616 1.55442,1.39083 2.33158,2.086048 2.64847,2.28565 5.40069,4.45105 8.28648,6.429728 1.03621,0.7105 1.45826,0.96745 2.46142,1.60355 0.23682,0.13712 0.47408,0.27412 0.71088,0.41128 -0.0299,-3.058488 -0.0684,-6.116968 -0.12447,-9.175136 -0.11094,0.0712 -0.26047,0.088 -0.42104,-0.005 -0.15921,-0.0926 -0.32353,-0.17714 -0.47763,-0.27802 -0.38317,-0.25083 -1.27842,-0.92497 -1.58222,-1.15012 -1.13692,-0.88472 -1.57246,-1.20522 -2.72576,-2.19086 -2.88383,-2.46449 -5.58577,-5.13961 -8.03453,-8.03895 -0.67148,-0.83792 -1.36789,-1.65636 -2.01436,-2.51373 -2.51056,-3.32945 -4.62427,-6.96567 -6.23331,-10.81253 -0.18355,-0.49186 -0.37689,-0.99208 -0.55731,-1.49889 z m -2.08858,14.28074 c -0.39135,4.05072 -0.56202,7.88448 -0.45632,11.35809 0.081,0.19474 0.1637,0.38872 0.25059,0.58059 0.24156,0.53363 0.5124,1.052468 0.76869,1.578668 1.59678,3.00921 3.60781,5.751638 5.80727,8.310098 0.64623,0.75169 1.3042,1.49303 1.98567,2.21034 0.68963,0.72589 1.41752,1.41167 2.12616,2.11748 2.94329,2.68607 6.02938,5.24154 9.38481,7.35316 0.39322,0.24745 0.79742,0.47543 1.19615,0.71309 1.01978,0.55037 2.0738,1.12417 3.22837,1.27293 0.0225,0.003 0.0386,7.9e-4 0.056,0.002 -0.0178,-4.59749 -0.0411,-9.19486 -0.0848,-13.79215 -0.042,0.0151 -0.0926,0.0126 -0.14602,-0.0183 -0.24886,-0.14422 -0.49795,-0.2884 -0.74681,-0.43261 -1.00874,-0.63995 -1.43257,-0.89818 -2.47446,-1.61267 -2.89641,-1.986218 -5.65896,-4.159958 -8.31712,-6.454278 -0.7795,-0.697738 -1.56908,-1.384378 -2.33863,-2.092718 -3.1289,-2.87989 -6.07349,-5.95472 -8.76373,-9.24972 -0.49663,-0.61112 -0.98886,-1.22583 -1.47583,-1.84435 z m -0.36379,13.349088 c 0.18574,2.88005 0.58346,5.472348 1.22841,7.682878 0.52244,1.79064 1.0174,3.43814 1.49754,5.00427 0.0203,0.0308 0.0413,0.0611 0.0617,0.0917 3.15792,4.49167 7.06265,8.4633 11.48045,11.72733 0.83533,0.61718 1.71636,1.17003 2.57455,1.75499 1.98435,1.12517 2.49381,1.51238 4.52651,2.32195 0.56271,0.22408 1.14908,0.38391 1.72352,0.57587 0.15975,0.0535 0.0845,0.27911 -0.0756,0.22577 -0.58192,-0.19488 -1.17572,-0.35731 -1.74574,-0.58464 -2.04929,-0.81721 -2.56339,-1.20753 -4.56276,-2.34199 -0.8629,-0.58842 -1.74861,-1.14471 -2.58853,-1.76548 -4.27346,-3.15837 -8.06669,-6.97736 -11.17434,-11.28568 1.84262,5.95811 3.39319,10.29578 4.80473,13.411 3.09342,2.75653 6.56826,5.01555 10.18889,7.01454 2.08957,-0.4861 4.56009,-1.30422 7.71576,-1.6527 8.734435,-0.96457 11.100825,6.26484 16.182395,-8.43745 -2.15037,1.44386 -4.492,2.59057 -6.88102,3.5886 -0.76803,0.32083 -1.55007,0.60737 -2.3251,0.91095 -1.79638,0.61682 -2.38816,0.85257 -4.172715,1.34625 -0.54831,0.1516 -1.10398,0.27494 -1.65595,0.41255 -0.22798,0.0569 -0.30831,-0.26529 -0.0803,-0.3221 0.54697,-0.13624 1.09781,-0.25859 1.64113,-0.40877 1.773115,-0.49024 2.361595,-0.72454 4.146505,-1.33721 0.77046,-0.30172 1.54809,-0.58634 2.31163,-0.90516 2.50622,-1.04651 4.96043,-2.25778 7.19261,-3.80868 1.38621,-4.09752 2.97801,-9.81339 4.95125,-17.73527 -2.0093,3.10718 -4.31806,6.06234 -7.11542,8.61996 -0.80825,0.73899 -1.68031,1.4173 -2.52029,2.12586 -3.08968,2.37111 -6.47688,4.40946 -10.099055,6.0198 -0.60739,0.27036 -1.23377,0.5026 -1.85068,0.7538 -0.22113,0.0904 -0.40798,0.0315 -0.52045,-0.085 -0.0836,0.0192 -0.17171,0.0208 -0.29692,0.003 -1.2524,-0.17231 -2.4018,-0.75879 -3.5072,-1.37057 -0.40796,-0.24343 -0.82154,-0.47732 -1.2239,-0.73073 -3.39799,-2.14004 -6.5247,-4.72721 -9.50443,-7.4499 -0.71847,-0.71617 -1.45626,-1.41235 -2.15553,-2.14879 -0.68908,-0.72573 -1.35429,-1.47566 -2.00764,-2.23626 -2.23859,-2.60608 -4.28414,-5.400318 -5.90728,-8.466038 -0.0843,-0.17343 -0.17076,-0.34578 -0.25663,-0.51841 z m 8.5124,28.411248 c 2.79661,5.49355 5.13871,6.19944 8.35139,5.63882 -2.93123,-1.65698 -5.75564,-3.49588 -8.35139,-5.63882 z" />
  </g>
</svg>
