<?xml version="1.0" encoding="UTF-8" standalone="no"?>
<svg
   xmlns:dc="http://purl.org/dc/elements/1.1/"
   xmlns:cc="http://creativecommons.org/ns#"
   xmlns:rdf="http://www.w3.org/1999/02/22-rdf-syntax-ns#"
   xmlns:svg="http://www.w3.org/2000/svg"
   xmlns="http://www.w3.org/2000/svg"
   xmlns:sodipodi="http://sodipodi.sourceforge.net/DTD/sodipodi-0.dtd"
   xmlns:inkscape="http://www.inkscape.org/namespaces/inkscape"
   width="700"
   height="700"
   viewBox="0 0 185.20833 185.20834"
   version="1.1"
   id="svg1549"
   inkscape:version="1.0.1 (3bc2e813f5, 2020-09-07)"
   sodipodi:docname="settings.svg"
   inkscape:export-filename="D:\_Personal(Clark)\Downloads\_cert_talline\jpg\App Abaca\UI\vector\icons\settings.png"
   inkscape:export-xdpi="96"
   inkscape:export-ydpi="96">
  <defs
     id="defs1543">
    <clipPath
       clipPathUnits="userSpaceOnUse"
       id="clipPath1683">
      <path
         id="path1685"
         style="fill:#ff0000;fill-opacity:1;fill-rule:nonzero;stroke:none"
         d="m 38.240234,30.818359 v 65.488282 c 1.753455,0.502261 3.521375,0.965275 5.265625,1.49414 2.066363,0.836156 4.10634,1.74235 6.199219,2.509769 0.760514,0.27885 1.527327,0.54143 2.294922,0.80078 2.711925,0.64107 5.442834,1.20748 8.15625,1.84375 2.37563,0.78323 4.751324,1.56637 7.126953,2.34961 3.847348,1.02759 7.749143,1.8717 11.542969,3.08203 2.488641,0.79394 4.809542,2.04669 7.271484,2.91992 3.882698,1.37717 7.870159,2.44841 11.751953,3.82813 2.702791,0.96066 5.328051,2.12626 7.992191,3.18945 l 15.84765,5.28125 c 0.1064,0.0394 0.21387,0.0759 0.32032,0.11523 -0.13745,-0.70906 -0.13105,-1.60179 -0.0898,-2.52539 -0.21476,-0.41386 -0.41873,-0.83229 -0.63867,-1.24414 -1.31279,-1.44002 -2.61213,-2.89348 -3.91797,-4.33984 -1.29641,-1.40146 -2.73758,-2.68005 -3.88867,-4.20313 -1.32518,-1.75343 -2.60175,-3.54376 -3.86328,-5.34375 -0.38592,0.36277 -0.77809,0.71931 -1.16211,1.08399 -2.02416,-1.24325 -4.16265,-2.31564 -6.07227,-3.72852 -0.94766,-0.70116 -1.66469,-1.67283 -2.433591,-2.5664 C 95.542826,95.739681 92.267759,89.901405 88.589844,84.269531 78.600288,67.08091 70.547669,48.938632 62.419922,30.818359 Z m 104.353516,0 c 0.31739,0.915064 0.62416,1.834284 0.89063,2.765625 0.52408,1.831963 0.67824,3.750865 1.0625,5.617188 0.77928,3.785265 1.43166,7.597509 2.2832,11.367187 1.08204,4.790094 2.41627,9.519241 3.56836,14.292969 3.28932,11.784321 6.42519,23.610588 9.34375,35.492192 1.59593,6.64497 3.69843,13.14475 5.56445,19.71289 0.15088,0.32139 0.29257,0.6472 0.44727,0.96679 0.63962,1.32139 1.50267,2.54163 2.00781,3.91992 1.10437,3.01261 1.93096,6.1216 2.80469,9.20899 0.0715,0.25234 0.13262,1.02368 0.0234,0.78516 -0.27905,-0.61041 -0.62128,-2.6028 -0.54882,-1.93555 0.18638,1.71598 0.59467,3.39943 0.89257,5.09961 -0.0381,0.0173 -0.0752,0.0373 -0.11328,0.0547 2.83144,0.96934 5.53065,2.28708 8.29688,3.42968 10.02654,3.17013 0.98796,-0.74239 10.36133,7.77539 0.97945,0.89005 2.93719,0.57504 3.56836,1.73829 1.20287,2.21698 0.81231,4.98451 1.4082,7.43554 0.56886,2.33986 4.00043,5.46059 2.08203,6.91602 -3.39792,2.57789 -8.49491,0.77995 -12.74219,1.16992 -0.71487,0.10075 -1.42966,0.20198 -2.14453,0.30273 0.53046,0.82838 1.07824,1.66172 1.16797,2.58203 0.94888,9.73208 -0.86862,3.38784 -3.16602,3.64844 -10.33997,1.17284 -0.57709,3.32972 -9.67187,0.42578 -0.37837,-0.0525 -0.7551,-0.11398 -1.13281,-0.16992 0.001,0.0104 0.002,0.0209 0.004,0.0312 1.34119,0.85882 3.10071,1.93136 5.61133,3.36719 2.16539,1.23839 4.93115,1.38252 6.88477,2.93359 1.81177,1.43848 2.46956,3.93259 3.97461,5.68946 0.66474,0.77596 2.49501,0.80305 2.46289,1.82421 -0.0948,3.02272 -1.86081,5.75524 -2.79102,8.63282 -5.00051,2.31918 -2.75378,0.29971 -5.38281,-1.28321 -0.26457,1.30104 -0.54041,2.59985 -0.87305,3.88477 -0.0356,0.13738 -0.0986,-0.36063 -0.24023,-0.35156 -1.77961,0.11375 -3.54491,1.00506 -5.30274,0.70508 -2.23913,-0.38213 -4.05387,-2.16214 -6.26562,-2.67969 -30.33278,-7.09792 5.49461,3.85276 -17.37891,-3.45703 -20.90094,-6.51101 -41.72446,-13.2256 -62.197264,-21.00586 -4.640687,-1.75988 -9.271129,-3.5454 -13.919922,-5.28321 -2.845413,-0.48543 -5.691758,-0.96357 -8.541016,-1.42382 -9.156183,-2.16071 -17.930419,-5.386 -26.652344,-8.85938 V 362.67578 H 370.09766 V 30.818359 Z m -12.29297,93.449221 c -1.56495,0.32684 -3.14074,0.5847 -4.73242,0.73633 2.04784,0.72684 4.10058,1.43967 6.16211,2.1289 -0.37976,-0.7741 -0.78,-1.5307 -1.17188,-2.07226 0.0643,0.19356 0.12496,0.38853 0.18946,0.58203 0.14328,0.42991 -1.04084,-1.46151 -0.69727,-1.16602 0.16173,0.1391 0.33316,0.34261 0.50781,0.58399 -0.0876,-0.26369 -0.17048,-0.52917 -0.25781,-0.79297 z m 37.11328,4.76758 c 0.12399,0.89824 0.12393,1.8219 0.38867,2.6875 0.0717,0.23444 0.52471,0.0622 0.69532,0.23828 -0.45932,-0.74407 -0.71952,-1.95798 -1.08399,-2.92578 z m 13.56055,34.66796 c -0.19777,-0.0164 -0.33211,0.0687 -0.36523,0.31446 -0.0608,0.44945 0.0241,0.87644 0.17578,1.29492 0.88423,-0.12389 1.76811,-0.2472 2.65234,-0.37109 -0.70722,-0.23084 -1.86959,-1.18896 -2.46289,-1.23829 z m 0.54101,26.2168 c -0.0819,0.0666 -0.40396,0.36756 -1.16015,1.05078 -0.11598,0.53968 -0.22061,1.08183 -0.33008,1.62305 1.2686,-0.55943 2.66436,-0.93825 0.95117,-0.95508 -1.13408,-0.0112 0.78494,-1.91856 0.53906,-1.71875 z" />
    </clipPath>
  </defs>
  <sodipodi:namedview
     id="base"
     pagecolor="#ffffff"
     bordercolor="#666666"
     borderopacity="1.0"
     inkscape:pageopacity="0.0"
     inkscape:pageshadow="2"
     inkscape:zoom="0.61918733"
     inkscape:cx="253.35358"
     inkscape:cy="483.4227"
     inkscape:document-units="mm"
     inkscape:current-layer="layer1"
     inkscape:document-rotation="0"
     showgrid="false"
     units="px"
     inkscape:window-width="1920"
     inkscape:window-height="1001"
     inkscape:window-x="-9"
     inkscape:window-y="-9"
     inkscape:window-maximized="1" />
  <metadata
     id="metadata1546">
    <rdf:RDF>
      <cc:Work
         rdf:about="">
        <dc:format>image/svg+xml</dc:format>
        <dc:type
           rdf:resource="http://purl.org/dc/dcmitype/StillImage" />
        <dc:title />
      </cc:Work>
    </rdf:RDF>
  </metadata>
  <g
     inkscape:label="Layer 1"
     inkscape:groupmode="layer"
     id="layer1">
    <path
       id="rect1687"
       style="fill:#0e9594;fill-opacity:1;stroke:none;stroke-width:38.5587;stroke-opacity:1"
       d="M 187.68164 32.6875 A 159.05481 159.05481 1.4648117 0 0 152.85742 36.644531 A 108.30397 95.707193 51.932772 0 1 206.33008 75.433594 A 108.30397 95.707193 51.932772 0 1 197.75977 219.70898 A 108.30397 95.707193 51.932772 0 1 55.632812 193.45703 A 108.30397 95.707193 51.932772 0 1 34.296875 151.26758 A 159.05481 159.05481 1.4648117 0 0 29.386719 181.57422 A 159.05481 159.05481 1.4648117 0 0 177.95117 350.4707 A 159.05481 159.05481 1.4648117 0 0 256.69922 335.25 C 251.93146 322.20335 254.96812 307.04969 265.68164 296.78711 L 297.4082 266.39648 C 307.17337 257.04235 320.73909 254.22258 332.79883 257.80859 A 159.05481 159.05481 1.4648117 0 0 346.8457 201.9043 A 159.05481 159.05481 1.4648117 0 0 198.2793 33.011719 A 159.05481 159.05481 1.4648117 0 0 187.68164 32.6875 z M 332.79883 257.80859 A 159.05481 159.05481 1.4648117 0 1 256.69922 335.25 C 258.37459 339.83456 261.00585 344.16211 264.61719 347.92188 L 559.1875 654.59766 C 573.07591 669.0569 595.9124 669.53288 610.39062 655.66406 L 642.11719 625.27148 C 656.59542 611.40267 657.07005 588.59792 643.18164 574.13867 L 348.61133 267.46094 C 344.09027 262.75405 338.61935 259.53935 332.79883 257.80859 z M 580.41992 559.83594 A 31.434008 31.434008 0 0 1 611.85352 591.26953 A 31.434008 31.434008 0 0 1 580.41992 622.70508 A 31.434008 31.434008 0 0 1 548.98633 591.26953 A 31.434008 31.434008 0 0 1 580.41992 559.83594 z "
       transform="scale(0.26458333)" />
  </g>
</svg>
