<?xml version="1.0" encoding="UTF-8" standalone="no"?>
<svg
   xmlns:dc="http://purl.org/dc/elements/1.1/"
   xmlns:cc="http://creativecommons.org/ns#"
   xmlns:rdf="http://www.w3.org/1999/02/22-rdf-syntax-ns#"
   xmlns:svg="http://www.w3.org/2000/svg"
   xmlns="http://www.w3.org/2000/svg"
   xmlns:sodipodi="http://sodipodi.sourceforge.net/DTD/sodipodi-0.dtd"
   xmlns:inkscape="http://www.inkscape.org/namespaces/inkscape"
   width="700"
   height="700"
   viewBox="0 0 185.20833 185.20833"
   version="1.1"
   id="svg878"
   inkscape:version="1.0.1 (3bc2e813f5, 2020-09-07)"
   sodipodi:docname="cure.svg"
   inkscape:export-filename="D:\_Personal(Clark)\Downloads\_cert_talline\jpg\App Abaca\UI\vector\icons\cure.png"
   inkscape:export-xdpi="96"
   inkscape:export-ydpi="96">
  <defs
     id="defs872" />
  <sodipodi:namedview
     id="base"
     pagecolor="#ffffff"
     bordercolor="#666666"
     borderopacity="1.0"
     inkscape:pageopacity="0.0"
     inkscape:pageshadow="2"
     inkscape:zoom="0.5573222"
     inkscape:cx="342.85714"
     inkscape:cy="560.03914"
     inkscape:document-units="mm"
     inkscape:current-layer="layer1"
     inkscape:document-rotation="0"
     showgrid="false"
     units="px"
     width="700px"
     inkscape:window-width="1920"
     inkscape:window-height="1001"
     inkscape:window-x="-9"
     inkscape:window-y="-9"
     inkscape:window-maximized="1" />
  <metadata
     id="metadata875">
    <rdf:RDF>
      <cc:Work
         rdf:about="">
        <dc:format>image/svg+xml</dc:format>
        <dc:type
           rdf:resource="http://purl.org/dc/dcmitype/StillImage" />
        <dc:title></dc:title>
      </cc:Work>
    </rdf:RDF>
  </metadata>
  <g
     inkscape:label="Layer 1"
     inkscape:groupmode="layer"
     id="layer1">
    <rect
       style="fill:none;fill-opacity:1;stroke:#147475;stroke-width:8.76509;stroke-opacity:1"
       id="rect1451"
       width="97.919624"
       height="134.47607"
       x="40.721001"
       y="43.035133"
       rx="9.5751657"
       ry="9.5750856" />
    <path
       id="rect1451-0"
       style="fill:#147475;fill-opacity:1;stroke:none;stroke-width:5.99019;stroke-opacity:1"
       d="m 56.056857,95.352343 c -4.462865,0 -8.055841,3.947783 -8.055841,8.851137 v 56.91486 c 0,4.90337 3.592976,8.85115 8.055841,8.85115 h 66.311713 c 4.46286,0 8.05532,-3.94778 8.05532,-8.85115 v -56.91486 c 0,-4.903354 -3.59246,-8.851137 -8.05532,-8.851137 z m 10.003006,18.081577 a 10.51247,10.373785 0 0 1 0.05013,0 10.51247,10.373785 0 0 1 10.512536,10.37353 10.51247,10.373785 0 0 1 -10.512536,10.37404 10.51247,10.373785 0 0 1 -10.512021,-10.37404 10.51247,10.373785 0 0 1 10.461895,-10.37353 z m 23.520011,21.2695 a 8.0435989,8.0435989 0 0 1 8.043436,8.04344 8.0435989,8.0435989 0 0 1 -8.043436,8.04343 8.0435989,8.0435989 0 0 1 -8.043952,-8.04343 8.0435989,8.0435989 0 0 1 8.043952,-8.04344 z" />
    <rect
       style="fill:#147475;fill-opacity:1;stroke:none;stroke-width:6.6922;stroke-opacity:1"
       id="rect1468"
       width="56.34024"
       height="28.896427"
       x="60.954662"
       y="4.5855284"
       rx="9.5751657"
       ry="9.5750856" />
  </g>
</svg>
